<svg width="84" height="64" viewBox="0 0 84 64" fill="none" xmlns="http://www.w3.org/2000/svg">
<path d="M70.0415 2.5419L64.7081 6.70857L41.9998 23.5836L19.2915 6.5419L13.9581 2.37524C12.7017 1.33584 11.1679 0.687902 9.54683 0.511694C7.92575 0.335486 6.28858 0.638752 4.83817 1.38392C3.38775 2.12909 2.18783 3.28341 1.38705 4.70388C0.586272 6.12435 0.219834 7.74854 0.333132 9.37524V57.6669C0.333132 59.1698 0.930154 60.6111 1.99286 61.6738C3.05557 62.7366 4.4969 63.3336 5.9998 63.3336H19.2915V31.1669L41.9998 48.2086L64.7081 31.1669V63.3336H77.9998C79.5027 63.3336 80.944 62.7366 82.0067 61.6738C83.0695 60.6111 83.6665 59.1698 83.6665 57.6669V9.37524C83.7447 7.76258 83.3528 6.16192 82.5383 4.76783C81.7239 3.37374 80.522 2.24626 79.0788 1.52245C77.6356 0.79863 76.0132 0.509649 74.4088 0.690631C72.8044 0.871613 71.2872 1.51476 70.0415 2.5419Z" fill="url(#paint0_linear_131_1815)"/>
<defs>
<linearGradient id="paint0_linear_131_1815" x1="86.5879" y1="63.3336" x2="-3.05832" y2="63.3336" gradientUnits="userSpaceOnUse">
<stop stop-color="#4F55F5"/>
<stop offset="0.717342" stop-color="#66C7E5" stop-opacity="0.459065"/>
</linearGradient>
</defs>
</svg>
