<svg width="65" height="65" viewBox="0 0 65 65" fill="none" xmlns="http://www.w3.org/2000/svg">
<path fill-rule="evenodd" clip-rule="evenodd" d="M13.501 5.41663C9.79062 5.41663 7.04708 8.66392 7.17167 12.182C7.28812 15.5675 7.13646 19.9468 6.03417 23.5191C4.92375 27.0995 3.055 29.3691 0 29.6616V32.9523C3.055 33.242 4.92646 35.5116 6.03146 39.0948C7.13646 42.667 7.28813 47.0464 7.16896 50.4291C7.04708 53.95 9.79062 57.1973 13.501 57.1973H51.5044C55.2148 57.1973 57.9583 53.95 57.8337 50.4291C57.7173 47.0464 57.869 42.667 58.9712 39.0948C60.079 35.5116 61.945 33.2448 65 32.9523V29.6616C61.945 29.3691 60.079 27.0995 58.9712 23.5191C57.869 19.9441 57.7173 15.5648 57.8337 12.182C57.9583 8.66121 55.2121 5.41663 51.5044 5.41663H13.501ZM44.0646 37.291C44.0646 42.1389 40.449 45.0775 34.45 45.0775H24.2369C23.9445 45.0775 23.6642 44.9613 23.4574 44.7546C23.2507 44.5479 23.1346 44.2675 23.1346 43.9752V18.636C23.1353 18.3441 23.2517 18.0644 23.4584 17.8583C23.665 17.6522 23.945 17.5364 24.2369 17.5364H34.3931C39.3954 17.5364 42.6806 20.2448 42.6806 24.4075C42.6806 27.327 40.4706 29.9406 37.6567 30.401V30.5527C41.489 30.9725 44.0673 33.6266 44.0673 37.291H44.0646ZM33.3396 21.0275H27.5167V29.2554H32.4215C36.2131 29.2554 38.304 27.7279 38.304 24.9979C38.304 22.4412 36.5056 21.0275 33.3396 21.0275ZM27.5167 32.5189V41.5837H33.5563C37.5023 41.5837 39.5958 39.9993 39.5958 37.0229C39.5958 34.0437 37.4454 32.5189 33.3017 32.5189H27.5167Z" fill="url(#paint0_linear_131_1394)"/>
<defs>
<linearGradient id="paint0_linear_131_1394" x1="67.2702" y1="57.1972" x2="-2.62868" y2="57.1972" gradientUnits="userSpaceOnUse">
<stop stop-color="#4F55F5"/>
<stop offset="0.717342" stop-color="#66C7E5" stop-opacity="0.459065"/>
</linearGradient>
</defs>
</svg>
