<svg width="65" height="65" viewBox="0 0 65 65" fill="none" xmlns="http://www.w3.org/2000/svg">
<path fill-rule="evenodd" clip-rule="evenodd" d="M32.5 0C14.5437 0 0 14.5438 0 32.5C0 46.8813 9.30312 59.0281 22.2219 63.3344C23.8469 63.6188 24.4562 62.6438 24.4562 61.7906C24.4562 61.0188 24.4156 58.4594 24.4156 55.7375C16.25 57.2406 14.1375 53.7469 13.4875 51.9188C13.1219 50.9844 11.5375 48.1 10.1562 47.3281C9.01875 46.7188 7.39375 45.2156 10.1156 45.175C12.675 45.1344 14.5031 47.5313 15.1125 48.5063C18.0375 53.4219 22.7094 52.0406 24.5781 51.1875C24.8625 49.075 25.7156 47.6531 26.65 46.8406C19.4187 46.0281 11.8625 43.225 11.8625 30.7938C11.8625 27.2594 13.1219 24.3344 15.1938 22.0594C14.8687 21.2469 13.7312 17.9156 15.5187 13.4469C15.5187 13.4469 18.2406 12.5938 24.4562 16.7781C27.0562 16.0469 29.8187 15.6813 32.5812 15.6813C35.3438 15.6813 38.1062 16.0469 40.7062 16.7781C46.9219 12.5531 49.6437 13.4469 49.6437 13.4469C51.4312 17.9156 50.2938 21.2469 49.9688 22.0594C52.0406 24.3344 53.3 27.2188 53.3 30.7938C53.3 43.2656 45.7031 46.0281 38.4719 46.8406C39.65 47.8563 40.6656 49.8063 40.6656 52.8531C40.6656 57.2 40.625 60.6938 40.625 61.7906C40.625 62.6438 41.2344 63.6594 42.8594 63.3344C49.3111 61.1561 54.9174 57.0096 58.8891 51.4783C62.8608 45.947 64.9981 39.3095 65 32.5C65 14.5438 50.4562 0 32.5 0Z" fill="url(#paint0_linear_131_1387)"/>
<defs>
<linearGradient id="paint0_linear_131_1387" x1="67.2702" y1="63.3965" x2="-2.62868" y2="63.3965" gradientUnits="userSpaceOnUse">
<stop stop-color="#4F55F5"/>
<stop offset="0.717342" stop-color="#66C7E5" stop-opacity="0.459065"/>
</linearGradient>
</defs>
</svg>
