<svg width="65" height="65" viewBox="0 0 65 65" fill="none" xmlns="http://www.w3.org/2000/svg">
<path d="M9.2168 6.09375L13.4062 53.4854L32.5 58.9062L51.5176 53.4854L55.7896 6.09375H9.2168ZM46.9854 17.3354L46.6807 20.3315L46.5728 21.5693H24.2671L24.7876 27.5488H46.0586L45.8491 29.0913L44.5034 44.4653L44.3955 45.4937L32.5254 48.769V48.7881H32.4492L32.4302 48.7944V48.7881H32.4238L20.4521 45.4873L19.7285 36.3086H25.5112L25.9238 40.9551L32.4238 42.7134H32.4492L38.9238 40.9614L39.6475 33.4331H32.4302V33.4268H19.4238L17.9766 17.3354L17.8687 15.793H47.0869L46.9854 17.3354Z" fill="url(#paint0_linear_131_1364)"/>
<defs>
<linearGradient id="paint0_linear_131_1364" x1="57.4162" y1="58.9062" x2="7.33334" y2="58.9062" gradientUnits="userSpaceOnUse">
<stop stop-color="#4F55F5"/>
<stop offset="0.717342" stop-color="#66C7E5" stop-opacity="0.459065"/>
</linearGradient>
</defs>
</svg>
