<svg width="65" height="65" viewBox="0 0 65 65" fill="none" xmlns="http://www.w3.org/2000/svg">
<g clip-path="url(#clip0_131_1378)">
<path d="M36.0236 15.1694C34.3228 11.031 34.5611 6.37542 37.0176 2.62979L38.8538 0C35.4576 6.36458 38.6913 14.1808 43.8913 18.2785C45.2828 19.3676 46.834 20.2354 48.4901 20.8515C48.9342 21.014 49.438 21.1873 49.8984 21.3038C55.7105 22.7663 60.4474 21.756 63.2667 17.5419C63.1801 17.6719 63.069 17.8777 62.9282 18.1377C61.6715 20.4669 57.9936 27.2838 47.3282 25.1442C47.1251 25.1035 46.9301 25.0358 46.7351 24.9735L46.5617 24.914L46.4372 24.8733C46.3797 24.8535 46.3219 24.8345 46.2638 24.8165C46.1058 24.7621 45.9487 24.7052 45.7926 24.6458C41.4999 23.01 37.8192 19.565 36.0236 15.1694Z" fill="url(#paint0_linear_131_1378)"/>
<path d="M21.9916 8.03289C17.8289 14.2485 18.0564 22.5712 21.3037 29.1471C21.9041 30.3707 22.5939 31.5484 23.3674 32.6706C23.9335 33.5183 24.5564 34.4581 25.2849 35.1135C25.5856 35.4575 25.8997 35.7906 26.2193 36.1183L26.4035 36.3079L26.4658 36.3702C26.7891 36.6971 27.1205 37.0159 27.4597 37.3262L27.4624 37.3289L27.4679 37.3344C27.8772 37.7048 28.2972 38.0633 28.7272 38.4096L28.8356 38.4962C29.2147 38.7996 29.602 39.0975 30.0001 39.3819L30.0164 39.3927L30.0354 39.4062C30.1626 39.4983 30.2926 39.5877 30.4226 39.6744L30.5662 39.7719C30.6512 39.8281 30.7352 39.8859 30.8181 39.9452C31.1024 40.1348 31.3895 40.3162 31.682 40.495L31.7633 40.541L31.8039 40.5681C32.1175 40.7551 32.4345 40.9366 32.7545 41.1125L32.8385 41.1558L32.9468 41.2154C33.0876 41.2912 33.2285 41.3698 33.3747 41.4429L33.456 41.4835C33.8749 41.6968 34.2994 41.8991 34.7289 42.0902L34.8156 42.1254C35.2187 42.3029 35.626 42.4709 36.037 42.6291L36.1183 42.6589C36.3972 42.7673 36.6762 42.8648 36.9579 42.9623L37.0987 43.011L37.337 43.0896C37.4426 43.1221 37.5483 43.16 37.6512 43.1952C37.9464 43.2981 38.2416 43.3983 38.5504 43.4525C60.0383 47.1466 64.9999 29.9758 64.9999 29.9758C60.5285 36.66 51.8672 39.8504 42.6264 37.3587C42.2172 37.2469 41.8108 37.125 41.4076 36.9931C41.2985 36.9594 41.1902 36.9233 41.0826 36.8848L41.042 36.8712C40.7567 36.7755 40.4731 36.6744 40.1916 36.5679L40.1835 36.5625C39.7161 36.3856 39.2537 36.196 38.7968 35.9937L38.6451 35.926C38.1127 35.6853 37.5887 35.426 37.0743 35.1487L36.9606 35.0891L36.6356 34.9158C36.3388 34.75 36.0454 34.5785 35.7554 34.4012C35.1825 34.0514 34.6224 33.681 34.0762 33.2908C33.6817 33.0061 33.2943 32.7117 32.9143 32.4079L32.8195 32.3294C32.7642 32.2846 32.7091 32.2394 32.6543 32.1939C28.6081 28.8789 25.4014 24.3479 23.8793 19.2129C22.2814 13.8829 22.6254 7.90289 25.3933 3.04956L21.9916 8.03289Z" fill="url(#paint1_linear_131_1378)"/>
<path d="M4.12751 15.2669C-1.62499 23.8523 -0.90999 35.0242 3.48564 44.1459C3.56689 44.3219 3.65626 44.4953 3.74293 44.6659L3.80793 44.7959L3.88918 44.9557C3.9573 45.0977 4.02955 45.2377 4.10584 45.3755L4.14105 45.4432L4.33064 45.7953L4.37126 45.8684C4.50668 46.1176 4.64751 46.3667 4.79105 46.6159L4.83709 46.6971C5.05413 47.0757 5.2808 47.4487 5.51689 47.8157L5.56564 47.8969L5.72543 48.1488C5.95293 48.5009 6.18584 48.8557 6.42959 49.2051V49.2078C6.43536 49.2163 6.44169 49.2244 6.44855 49.2321L6.51355 49.3215L6.56772 49.3973C6.77897 49.6953 6.99293 49.9932 7.2123 50.2857L7.45605 50.6053C7.98692 51.2932 8.536 51.9669 9.10272 52.6257L9.11897 52.6446L9.13251 52.6582L9.15147 52.6798C9.72605 53.3272 10.3204 53.9567 10.9336 54.5676L11.0148 54.6488L11.2071 54.8384C11.514 55.1384 11.8264 55.4328 12.1442 55.7213L12.2336 55.8026L12.304 55.8621C12.6429 56.1647 12.986 56.4627 13.3331 56.7559L13.4848 56.8832C13.715 57.0728 13.9479 57.2623 14.1836 57.4465L14.5546 57.7417C14.8146 57.9394 15.0746 58.1344 15.3373 58.324L15.3806 58.3565L15.6244 58.5353L15.7002 58.5894C15.9386 58.7628 16.1796 58.9253 16.4233 59.0878L16.4613 59.1148C16.5706 59.1884 16.6789 59.2633 16.7863 59.3396C17.2384 59.6364 17.6962 59.9244 18.1594 60.2036L18.3056 60.2903C18.7157 60.5325 19.1302 60.7673 19.5488 60.9944L19.6923 61.073L19.8521 61.1596C20.0119 61.2463 20.169 61.333 20.3315 61.4169L20.3992 61.4494L20.4804 61.4901L20.5725 61.5361C20.6267 61.5632 20.6836 61.5903 20.7404 61.6228C21.0763 61.788 21.4121 61.9505 21.7533 62.1103L21.8806 62.1671L21.9673 62.2078C22.8136 62.5932 23.6746 62.9455 24.5483 63.264L24.5754 63.2721L24.6892 63.3155C25.3066 63.5375 25.9297 63.7434 26.5579 63.933C26.8721 64.0386 27.189 64.1415 27.514 64.2038C55.3475 69.4742 63.4319 46.8434 63.4319 46.8434C56.6421 56.0246 44.59 58.4486 33.169 55.7511C32.7392 55.6468 32.3145 55.523 31.8961 55.3801L31.5765 55.2798C31.1648 55.1498 30.7558 55.009 30.3496 54.8655L30.1817 54.8032C29.8161 54.6678 29.4586 54.5323 29.0983 54.3861L28.795 54.2615C28.4028 54.1008 28.0137 53.9328 27.6277 53.7578L27.5031 53.7036C27.1362 53.5332 26.7714 53.358 26.409 53.1782L26.2979 53.1186C26.24 53.091 26.1822 53.063 26.1246 53.0346L25.545 52.7286L25.3608 52.6311C25.3006 52.5982 25.2401 52.5657 25.1794 52.5336L24.8544 52.3548C24.5456 52.1842 24.2423 52.0028 23.939 51.8213L23.8225 51.7536L23.6329 51.6453C23.1615 51.3544 22.6955 51.0546 22.2354 50.7461L22.119 50.6648C20.9631 49.8942 19.8552 49.0539 18.8013 48.1488C18.4793 47.8765 18.1614 47.5993 17.8479 47.3173L17.8046 47.2767C17.3929 46.898 16.9884 46.5115 16.5913 46.1176C16.3619 45.891 16.1362 45.6607 15.9142 45.4269L15.8221 45.3348C15.4713 44.9683 15.1282 44.5944 14.7929 44.2136L14.7767 44.1973L14.7713 44.1892C14.4842 43.8642 14.2025 43.5284 13.9263 43.1926L13.7042 42.919C13.4207 42.5674 13.1435 42.2107 12.8727 41.8492C12.6344 41.5242 12.3988 41.2046 12.1686 40.8769C5.83105 31.9015 3.55334 19.519 8.62064 9.35193L4.12751 15.2669Z" fill="url(#paint2_linear_131_1378)"/>
</g>
<defs>
<linearGradient id="paint0_linear_131_1378" x1="64.2565" y1="25.5542" x2="33.7812" y2="25.5542" gradientUnits="userSpaceOnUse">
<stop stop-color="#4F55F5"/>
<stop offset="0.717342" stop-color="#66C7E5" stop-opacity="0.459065"/>
</linearGradient>
<linearGradient id="paint1_linear_131_1378" x1="66.6112" y1="43.9732" x2="17.0005" y2="43.9732" gradientUnits="userSpaceOnUse">
<stop stop-color="#4F55F5"/>
<stop offset="0.717342" stop-color="#66C7E5" stop-opacity="0.459065"/>
</linearGradient>
<linearGradient id="paint2_linear_131_1378" x1="65.6473" y1="64.9997" x2="-2.56424" y2="64.9997" gradientUnits="userSpaceOnUse">
<stop stop-color="#4F55F5"/>
<stop offset="0.717342" stop-color="#66C7E5" stop-opacity="0.459065"/>
</linearGradient>
<clipPath id="clip0_131_1378">
<rect width="65" height="65" fill="white"/>
</clipPath>
</defs>
</svg>
