<svg width="80" height="81" viewBox="0 0 80 81" fill="none" xmlns="http://www.w3.org/2000/svg">
<path d="M51.3021 44.7295C51.7535 44.7295 53.4462 45.4934 56.3802 47.0212C59.3142 48.5489 60.8681 49.4691 61.0417 49.7816C61.1111 49.9552 61.1458 50.2156 61.1458 50.5628C61.1458 51.7087 60.8507 53.0281 60.2604 54.5212C59.7049 55.8753 58.4722 57.0125 56.5625 57.9326C54.6528 58.8528 52.8819 59.3128 51.25 59.3128C49.2708 59.3128 45.9722 58.2364 41.3542 56.0837C37.9514 54.5212 35 52.4725 32.5 49.9378C30 47.4031 27.4306 44.1913 24.7917 40.3024C22.2917 36.5871 21.059 33.2191 21.0938 30.1982V29.7816C21.1979 26.6219 22.4826 23.8788 24.9479 21.5524C25.7812 20.7885 26.684 20.4066 27.6562 20.4066C27.8646 20.4066 28.1771 20.4326 28.5938 20.4847C29.0104 20.5368 29.3403 20.5628 29.5833 20.5628C30.2431 20.5628 30.7031 20.6757 30.9635 20.9014C31.224 21.1271 31.4931 21.6045 31.7708 22.3337C32.0486 23.0281 32.6215 24.5559 33.4896 26.917C34.3576 29.2781 34.7917 30.5802 34.7917 30.8232C34.7917 31.5524 34.1927 32.5507 32.9948 33.818C31.7969 35.0854 31.1979 35.8927 31.1979 36.2399C31.1979 36.483 31.2847 36.7434 31.4583 37.0212C32.6389 39.5559 34.4097 41.9344 36.7708 44.1566C38.7153 45.9969 41.3368 47.7503 44.6354 49.417C45.0521 49.66 45.434 49.7816 45.7812 49.7816C46.3021 49.7816 47.2396 48.9396 48.5938 47.2555C49.9479 45.5715 50.8507 44.7295 51.3021 44.7295ZM40.7292 72.3337C45.1389 72.3337 49.3663 71.4656 53.4115 69.7295C57.4566 67.9934 60.9375 65.667 63.8542 62.7503C66.7708 59.8337 69.0972 56.3528 70.8333 52.3076C72.5694 48.2625 73.4375 44.035 73.4375 39.6253C73.4375 35.2156 72.5694 30.9882 70.8333 26.943C69.0972 22.8979 66.7708 19.417 63.8542 16.5003C60.9375 13.5837 57.4566 11.2573 53.4115 9.52116C49.3663 7.78505 45.1389 6.91699 40.7292 6.91699C36.3194 6.91699 32.092 7.78505 28.0469 9.52116C24.0017 11.2573 20.5208 13.5837 17.6042 16.5003C14.6875 19.417 12.3611 22.8979 10.625 26.943C8.88889 30.9882 8.02083 35.2156 8.02083 39.6253C8.02083 46.6739 10.1042 53.0628 14.2708 58.792L10.1562 70.9274L22.7604 66.917C28.2465 70.5281 34.2361 72.3337 40.7292 72.3337ZM40.7292 0.354492C46.0417 0.354492 51.1198 1.39616 55.9635 3.47949C60.8073 5.56283 64.9826 8.35796 68.4896 11.8649C71.9965 15.3719 74.7917 19.5472 76.875 24.3909C78.9583 29.2347 80 34.3128 80 39.6253C80 44.9378 78.9583 50.0159 76.875 54.8597C74.7917 59.7034 71.9965 63.8788 68.4896 67.3857C64.9826 70.8927 60.8073 73.6878 55.9635 75.7712C51.1198 77.8545 46.0417 78.8962 40.7292 78.8962C33.9583 78.8962 27.6215 77.2642 21.7188 74.0003L0 80.9795L7.08333 59.8857C3.33333 53.7052 1.45833 46.9517 1.45833 39.6253C1.45833 34.3128 2.5 29.2347 4.58333 24.3909C6.66667 19.5472 9.46181 15.3719 12.9688 11.8649C16.4757 8.35796 20.651 5.56283 25.4948 3.47949C30.3385 1.39616 35.4167 0.354492 40.7292 0.354492Z" fill="url(#paint0_linear_131_1809)"/>
<defs>
<linearGradient id="paint0_linear_131_1809" x1="82.7941" y1="80.9795" x2="-3.23529" y2="80.9795" gradientUnits="userSpaceOnUse">
<stop stop-color="#4F55F5"/>
<stop offset="0.717342" stop-color="#66C7E5" stop-opacity="0.459065"/>
</linearGradient>
</defs>
</svg>
