<svg width="65" height="65" viewBox="0 0 65 65" fill="none" xmlns="http://www.w3.org/2000/svg">
<g clip-path="url(#clip0_131_1399)">
<path d="M0 0.814453V64.1854H65V0.814453H0ZM2.70766 3.52211H62.2903V61.4757H2.70766V3.52211ZM15.7097 15.6568C15.7097 15.476 16.0916 15.3399 16.313 15.3399C18.6395 15.2415 20.9679 15.1955 23.2964 15.2018C30.808 15.2018 33.7269 19.3171 33.7269 24.5862C33.7269 31.4741 28.7341 34.4255 22.618 34.4255C21.582 34.4255 21.2327 34.3727 20.5136 34.3727V44.7829C20.5136 45.0043 20.4283 45.0998 20.2069 45.0998H16.0164C15.795 45.0998 15.7097 45.0145 15.7097 44.793V15.6568ZM20.5136 30.0462C21.1372 30.0888 21.6348 30.0888 22.7134 30.0888C25.8761 30.0888 28.86 28.9676 28.86 24.6837C28.86 21.2448 26.7231 19.4999 23.1055 19.4999C22.037 19.4999 21.0112 19.5426 20.5136 19.5852V30.0462ZM43.8303 26.8185C41.6833 26.8185 40.9642 27.8971 40.9642 28.7868C40.9642 29.7699 41.4517 30.4382 44.3178 31.919C48.5611 33.9827 49.9038 35.9388 49.9038 38.8476C49.9038 43.1741 46.5928 45.502 42.1281 45.502C39.7577 45.502 37.7386 45.0043 36.5747 44.338C36.4061 44.2527 36.3634 44.1166 36.3634 43.8932V39.916C36.3634 39.652 36.4914 39.5565 36.6702 39.6946C38.2913 40.7487 40.1843 41.3077 42.118 41.3034C44.265 41.3034 45.1547 40.4137 45.1547 39.199C45.1547 38.2159 44.5311 37.3688 41.8112 35.9409C37.96 34.1005 36.3512 32.2277 36.3512 29.0955C36.3512 25.6038 39.0813 22.7052 43.81 22.7052C46.1378 22.7052 47.777 23.0648 48.6769 23.4568C48.8983 23.5949 48.9409 23.8163 48.9409 23.9971V27.7102C48.9409 27.9316 48.8028 28.0698 48.5387 27.9743C47.3322 27.2654 45.5548 26.8104 43.8202 26.8104L43.8303 26.8185Z" fill="url(#paint0_linear_131_1399)"/>
</g>
<defs>
<linearGradient id="paint0_linear_131_1399" x1="67.2702" y1="64.1854" x2="-2.62868" y2="64.1854" gradientUnits="userSpaceOnUse">
<stop stop-color="#4F55F5"/>
<stop offset="0.717342" stop-color="#66C7E5" stop-opacity="0.459065"/>
</linearGradient>
<clipPath id="clip0_131_1399">
<rect width="65" height="65" fill="white"/>
</clipPath>
</defs>
</svg>
