<svg width="76" height="76" viewBox="0 0 76 76" fill="none" xmlns="http://www.w3.org/2000/svg">
<path d="M38.125 56.875C27.0417 56.875 22.0833 51.4167 22.0833 47.3333C22.0833 45.25 23.625 43.75 25.75 43.75C30.5 43.75 29.2917 50.5 38.125 50.5C42.6667 50.5 45.2083 48.125 45.2083 45.5833C45.2083 44.0833 44.4583 42.4167 41.4583 41.6667L31.5833 39.2083C23.625 37.2083 22.1667 32.9167 22.1667 28.875C22.1667 20.4583 30.0833 17.2917 37.5 17.2917C44.25 17.2917 52.4167 21.0833 52.4167 26.125C52.4167 28.2917 50.5 29.5417 48.4167 29.5417C44.25 29.5417 45.0833 23.9167 36.9167 23.9167C32.875 23.9167 30.625 25.75 30.625 28.375C30.625 31 33.8333 31.75 36.5833 32.5L43.9167 34.125C51.9167 35.9167 53.9583 40.5833 53.9583 44.9583C53.9583 51.7917 48.7083 56.875 38.125 56.875ZM63 13C71.625 21.5 74.875 33.375 72.8333 44.4583C74.5417 47.4583 75.5 50.9583 75.5 54.6667C75.5 60.192 73.3051 65.4911 69.3981 69.3981C65.4911 73.3051 60.192 75.5 54.6667 75.5C50.9583 75.5 47.4583 74.5417 44.4583 72.8333C33.375 74.875 21.5 71.625 13 63C4.375 54.5 1.125 42.625 3.16667 31.5417C1.45833 28.5417 0.5 25.0417 0.5 21.3333C0.5 15.808 2.69493 10.5089 6.60194 6.60194C10.5089 2.69493 15.808 0.5 21.3333 0.5C25.0417 0.5 28.5417 1.45833 31.5417 3.16667C42.625 1.125 54.5 4.375 63 13ZM21.3333 8.83333C18.0181 8.83333 14.8387 10.1503 12.4945 12.4945C10.1503 14.8387 8.83333 18.0181 8.83333 21.3333C8.83333 24.625 10.0833 27.5833 12.1667 29.8333C9.25 39.1667 11.4583 49.75 18.8333 57.1667C22.3486 60.6643 26.7533 63.1342 31.5709 64.3092C36.3886 65.4842 41.4358 65.3197 46.1667 63.8333C48.4167 65.9167 51.375 67.1667 54.6667 67.1667C57.9819 67.1667 61.1613 65.8497 63.5055 63.5055C65.8497 61.1613 67.1667 57.9819 67.1667 54.6667C67.1667 51.375 65.9167 48.4167 63.8333 46.1667C66.75 36.8333 64.5417 26.25 57.1667 18.8333C53.6514 15.3357 49.2467 12.8658 44.4291 11.6908C39.6114 10.5158 34.5642 10.6803 29.8333 12.1667C27.5833 10.0833 24.625 8.83333 21.3333 8.83333Z" fill="url(#paint0_linear_131_1813)"/>
<defs>
<linearGradient id="paint0_linear_131_1813" x1="78.1195" y1="75.5" x2="-2.53309" y2="75.5" gradientUnits="userSpaceOnUse">
<stop stop-color="#4F55F5"/>
<stop offset="0.717342" stop-color="#66C7E5" stop-opacity="0.459065"/>
</linearGradient>
</defs>
</svg>
