<svg width="65" height="65" viewBox="0 0 65 65" fill="none" xmlns="http://www.w3.org/2000/svg">
<path d="M48.7498 59.5834H16.2498C13.3767 59.5834 10.6212 58.4421 8.58951 56.4104C6.55787 54.3788 5.4165 51.6233 5.4165 48.7501V16.2501C5.4165 13.3769 6.55787 10.6214 8.58951 8.58976C10.6212 6.55811 13.3767 5.41675 16.2498 5.41675H48.7498C51.623 5.41675 54.3785 6.55811 56.4102 8.58976C58.4418 10.6214 59.5832 13.3769 59.5832 16.2501V48.7501C59.5832 51.6233 58.4418 54.3788 56.4102 56.4104C54.3785 58.4421 51.623 59.5834 48.7498 59.5834ZM16.2498 10.8334C14.8132 10.8334 13.4355 11.4041 12.4197 12.4199C11.4039 13.4357 10.8332 14.8135 10.8332 16.2501V48.7501C10.8332 50.1867 11.4039 51.5644 12.4197 52.5802C13.4355 53.5961 14.8132 54.1668 16.2498 54.1668H48.7498C50.1864 54.1668 51.5642 53.5961 52.58 52.5802C53.5958 51.5644 54.1665 50.1867 54.1665 48.7501V16.2501C54.1665 14.8135 53.5958 13.4357 52.58 12.4199C51.5642 11.4041 50.1864 10.8334 48.7498 10.8334H16.2498ZM42.6886 45.4351C41.5174 45.4823 40.3488 45.2905 39.2542 44.8714C38.1595 44.4524 37.1616 43.8148 36.3213 42.9976C34.562 40.9918 33.6596 38.376 33.808 35.7122C33.7535 33.1231 34.6771 30.6087 36.3944 28.6705C37.2922 27.7213 38.3806 26.9727 39.5881 26.4737C40.7956 25.9748 42.0949 25.7368 43.4009 25.7753H44.0319V20.3586C44.0319 19.9361 44.3759 19.5922 44.7984 19.5895H48.3653C48.5633 19.5821 48.7567 19.6498 48.9069 19.779C48.9802 19.8484 49.0379 19.9326 49.0762 20.026C49.1145 20.1194 49.1325 20.2198 49.129 20.3207V41.118C49.1155 41.8357 49.1534 42.5534 49.2373 43.2657V43.3334C49.2415 43.5056 49.1881 43.6743 49.0857 43.8128C48.9972 43.9215 48.8852 44.0086 48.758 44.0674C46.8784 44.9646 44.8228 45.4327 42.74 45.4378L42.6886 45.4351ZM40.2078 31.5792L40.1942 31.5955C39.3364 32.7245 38.9048 34.12 38.9755 35.5361C38.8643 37.0117 39.2904 38.4776 40.1753 39.6636C40.8984 40.4599 41.9411 40.8932 43.0163 40.839C43.3577 40.8441 43.6985 40.8096 44.0319 40.7361V30.3118C43.7792 30.2576 43.5212 30.2313 43.2628 30.2332C42.6849 30.2177 42.1109 30.3312 41.5824 30.5655C41.0539 30.7997 40.5843 31.1488 40.2078 31.5874V31.5792ZM33.1092 45.1209H29.1794C28.9774 45.1341 28.7763 45.0838 28.6044 44.9769C28.4325 44.8701 28.2983 44.7121 28.2207 44.5251L27.6519 43.3334L27.6384 43.3036L27.0832 42.1959L26.9098 41.8357C26.0459 40.0536 25.1548 38.2174 24.2611 36.327C23.0184 39.0802 21.7391 41.8168 20.4234 44.5359V44.563L20.4098 44.5874C20.3192 44.7393 20.1927 44.8667 20.0415 44.9584C19.8878 45.0502 19.7114 45.0971 19.5323 45.0938H15.8192C15.6639 45.1015 15.5104 45.0583 15.3818 44.9708C15.2533 44.8833 15.1568 44.7563 15.1069 44.609C15.0743 44.4969 15.0678 44.3788 15.088 44.2637C15.1082 44.1487 15.1545 44.0398 15.2234 43.9455L21.2603 32.4053L15.4211 20.7215C15.3425 20.6079 15.2978 20.4743 15.292 20.3362C15.2863 20.1982 15.3198 20.0613 15.3886 19.9415C15.4548 19.8329 15.5479 19.7431 15.6589 19.681C15.7699 19.6188 15.8951 19.5864 16.0223 19.5867H19.9061C20.0948 19.5767 20.2825 19.6198 20.4478 19.7113C20.6158 19.8139 20.7453 19.9691 20.8161 20.1528C22.2678 23.1997 23.4919 25.8403 24.5617 28.183C25.8915 25.2038 27.3053 22.1759 28.2532 20.169L28.2667 20.1392L28.283 20.1122V20.0824C28.3509 19.9665 28.4358 19.8615 28.5348 19.7709C28.7024 19.6311 28.9152 19.5569 29.1334 19.5624H32.7707C32.9098 19.5587 33.0469 19.5953 33.1657 19.6679C33.2844 19.7404 33.3795 19.8458 33.4396 19.9713C33.4875 20.0863 33.5068 20.2111 33.4959 20.3351C33.4851 20.4592 33.4444 20.5787 33.3773 20.6836L27.5355 32.0234L33.7159 43.9401C33.7809 44.0436 33.8217 44.1604 33.8353 44.2818C33.8489 44.4033 33.8349 44.5262 33.7944 44.6415C33.7434 44.7818 33.65 44.9027 33.5273 44.9876C33.4045 45.0725 33.2585 45.1172 33.1092 45.1155V45.1209Z" fill="url(#paint0_linear_131_1332)"/>
<defs>
<linearGradient id="paint0_linear_131_1332" x1="61.475" y1="59.5834" x2="3.22594" y2="59.5834" gradientUnits="userSpaceOnUse">
<stop stop-color="#4F55F5"/>
<stop offset="0.717342" stop-color="#66C7E5" stop-opacity="0.459065"/>
</linearGradient>
</defs>
</svg>
