<svg width="66" height="66" viewBox="0 0 66 66" fill="none" xmlns="http://www.w3.org/2000/svg">
<path fill-rule="evenodd" clip-rule="evenodd" d="M0.916505 6.27759C0.916505 4.85581 1.48131 3.49226 2.48666 2.48691C3.49201 1.48156 4.85556 0.916755 6.27734 0.916755H59.7165C60.4211 0.915604 61.119 1.05344 61.7703 1.32237C62.4215 1.59129 63.0133 1.98603 63.5118 2.48399C64.0103 2.98194 64.4057 3.57332 64.6753 4.22428C64.945 4.87524 65.0836 5.573 65.0832 6.27759V59.7168C65.0839 60.4215 64.9457 61.1195 64.6765 61.7707C64.4073 62.422 64.0122 63.0138 63.5141 63.5122C63.0159 64.0107 62.4243 64.406 61.7732 64.6756C61.122 64.9452 60.4242 65.0838 59.7194 65.0834H6.27734C5.5731 65.0834 4.87576 64.9447 4.22516 64.6751C3.57457 64.4055 2.98346 64.0103 2.48562 63.5122C1.98779 63.0141 1.59297 62.4228 1.32374 61.7721C1.0545 61.1213 0.916122 60.4239 0.916505 59.7197V6.27759ZM26.3148 25.3818H35.0036V29.7451C36.2578 27.2368 39.4661 24.9793 44.2873 24.9793C53.5303 24.9793 55.7207 29.9755 55.7207 39.1426V56.1234H46.3669V41.2309C46.3669 36.0101 45.1128 33.0643 41.9278 33.0643C37.509 33.0643 35.6715 36.2405 35.6715 41.2309V56.1234H26.3148V25.3818ZM10.2732 55.7238H19.6298V24.9793H10.2732V55.7209V55.7238ZM20.9686 14.9518C20.9862 15.7529 20.8437 16.5495 20.5493 17.2948C20.2549 18.04 19.8146 18.719 19.2543 19.2918C18.6939 19.8647 18.0248 20.3198 17.2862 20.6305C16.5475 20.9412 15.7543 21.1013 14.953 21.1013C14.1516 21.1013 13.3584 20.9412 12.6198 20.6305C11.8811 20.3198 11.212 19.8647 10.6517 19.2918C10.0913 18.719 9.65103 18.04 9.35664 17.2948C9.06225 16.5495 8.9197 15.7529 8.93734 14.9518C8.97197 13.3792 9.62096 11.8828 10.7453 10.7829C11.8697 9.68303 13.3801 9.06714 14.953 9.06714C16.5259 9.06714 18.0362 9.68303 19.1606 10.7829C20.285 11.8828 20.934 13.3792 20.9686 14.9518Z" fill="url(#paint0_linear_131_480)"/>
<defs>
<linearGradient id="paint0_linear_131_480" x1="67.3243" y1="65.0834" x2="-1.67847" y2="65.0834" gradientUnits="userSpaceOnUse">
<stop stop-color="#4F55F5"/>
<stop offset="0.717342" stop-color="#66C7E5" stop-opacity="0.459065"/>
</linearGradient>
</defs>
</svg>
