<svg width="65" height="65" viewBox="0 0 65 65" fill="none" xmlns="http://www.w3.org/2000/svg">
<path d="M52.8125 8.125H12.1875C9.94384 8.125 8.125 9.94384 8.125 12.1875V52.8125C8.125 55.0562 9.94384 56.875 12.1875 56.875H52.8125C55.0562 56.875 56.875 55.0562 56.875 52.8125V12.1875C56.875 9.94384 55.0562 8.125 52.8125 8.125Z" stroke="url(#paint0_linear_131_1408)" stroke-width="4" stroke-linecap="round" stroke-linejoin="round"/>
<path d="M17.604 41.9791V23.0208H28.4373M17.604 32.4999H27.7603M17.604 41.9791H27.7603M35.2082 41.9791V25.7291M35.2082 41.9791V33.177C35.2082 31.5608 35.8502 30.0109 36.993 28.8681C38.1358 27.7253 39.6858 27.0833 41.3019 27.0833C42.9181 27.0833 44.4681 27.7253 45.6109 28.8681C46.7537 30.0109 47.3957 31.5608 47.3957 33.177V41.9791" stroke="url(#paint1_linear_131_1408)" stroke-width="4" stroke-linecap="round" stroke-linejoin="round"/>
<defs>
<linearGradient id="paint0_linear_131_1408" x1="58.5777" y1="56.875" x2="6.15349" y2="56.875" gradientUnits="userSpaceOnUse">
<stop stop-color="#4F55F5"/>
<stop offset="0.717342" stop-color="#66C7E5" stop-opacity="0.459065"/>
</linearGradient>
<linearGradient id="paint1_linear_131_1408" x1="48.4362" y1="41.9791" x2="16.3992" y2="41.9791" gradientUnits="userSpaceOnUse">
<stop stop-color="#4F55F5"/>
<stop offset="0.717342" stop-color="#66C7E5" stop-opacity="0.459065"/>
</linearGradient>
</defs>
</svg>
