<svg width="65" height="65" viewBox="0 0 65 65" fill="none" xmlns="http://www.w3.org/2000/svg">
<path d="M8.27947 27.5408C7.72303 28.5836 7.348 29.7136 7.17041 30.8822L9.86385 29.6258L8.27947 27.5408ZM21.3282 42.2612C21.7977 42.0791 22.2532 41.8628 22.6912 41.6143L20.7381 41.4843L21.3282 42.2612ZM16.6574 34.0134C16.6574 34.2673 16.8635 34.4734 17.1174 34.4734H17.9208C18.0425 34.4729 18.159 34.4242 18.2448 34.338C18.3307 34.2517 18.3788 34.135 18.3788 34.0134V32.3609H16.6574V34.0134ZM17.933 34.1626C17.8673 34.1626 17.8042 34.1365 17.7578 34.0901C17.7113 34.0436 17.6852 33.9806 17.6852 33.9148C17.6852 33.8491 17.7113 33.7861 17.7578 33.7396C17.8042 33.6931 17.8673 33.667 17.933 33.667C17.9987 33.667 18.0617 33.6931 18.1082 33.7396C18.1547 33.7861 18.1808 33.8491 18.1808 33.9148C18.1808 33.9806 18.1547 34.0436 18.1082 34.0901C18.0617 34.1365 17.9987 34.1626 17.933 34.1626ZM17.933 32.6737C17.9987 32.6737 18.0617 32.6998 18.1082 32.7463C18.1547 32.7928 18.1808 32.8558 18.1808 32.9216C18.1808 32.9873 18.1547 33.0503 18.1082 33.0968C18.0617 33.1433 17.9987 33.1694 17.933 33.1694C17.9003 33.1695 17.8679 33.1632 17.8377 33.1508C17.8074 33.1384 17.7799 33.1202 17.7567 33.0972C17.7335 33.0742 17.7151 33.0468 17.7025 33.0167C17.6898 32.9866 17.6833 32.9542 17.6831 32.9216C17.6831 32.7844 17.7949 32.6737 17.933 32.6737ZM17.7674 33.4121C17.768 33.4778 17.7424 33.5411 17.6963 33.5879C17.6502 33.6348 17.5874 33.6614 17.5217 33.6619C17.4559 33.6625 17.3927 33.6369 17.3458 33.5908C17.299 33.5447 17.2724 33.4819 17.2718 33.4162C17.2716 33.3836 17.2777 33.3513 17.2899 33.3212C17.3021 33.291 17.3201 33.2635 17.343 33.2403C17.3658 33.2171 17.393 33.1987 17.4229 33.186C17.4529 33.1733 17.4851 33.1666 17.5176 33.1663C17.5501 33.166 17.5824 33.1722 17.6126 33.1844C17.6428 33.1966 17.6702 33.2146 17.6934 33.2375C17.7166 33.2603 17.7351 33.2875 17.7478 33.3174C17.7605 33.3474 17.7672 33.3796 17.7674 33.4121ZM17.1144 32.6737C17.1482 32.6716 17.1821 32.6764 17.214 32.6878C17.2459 32.6993 17.2751 32.7171 17.2998 32.7403C17.3245 32.7635 17.3442 32.7915 17.3577 32.8226C17.3711 32.8536 17.3781 32.8872 17.3781 32.921C17.3781 32.9549 17.3711 32.9884 17.3577 33.0195C17.3442 33.0506 17.3245 33.0786 17.2998 33.1018C17.2751 33.125 17.2459 33.1428 17.214 33.1543C17.1821 33.1657 17.1482 33.1705 17.1144 33.1684C17.0515 33.1643 16.9926 33.1365 16.9495 33.0906C16.9064 33.0446 16.8824 32.984 16.8824 32.921C16.8824 32.8581 16.9064 32.7974 16.9495 32.7515C16.9926 32.7056 17.0515 32.6778 17.1144 32.6737ZM17.1144 33.666C17.1482 33.6638 17.1821 33.6686 17.214 33.6801C17.2459 33.6915 17.2751 33.7094 17.2998 33.7326C17.3245 33.7557 17.3442 33.7837 17.3577 33.8148C17.3711 33.8459 17.3781 33.8794 17.3781 33.9133C17.3781 33.9472 17.3711 33.9807 17.3577 34.0118C17.3442 34.0429 17.3245 34.0709 17.2998 34.0941C17.2751 34.1172 17.2459 34.1351 17.214 34.1465C17.1821 34.158 17.1482 34.1628 17.1144 34.1606C17.0515 34.1566 16.9926 34.1288 16.9495 34.0828C16.9064 34.0369 16.8824 33.9763 16.8824 33.9133C16.8824 33.8503 16.9064 33.7897 16.9495 33.7438C16.9926 33.6978 17.0515 33.67 17.1144 33.666ZM16.6574 31.5169C16.6574 31.7698 16.8635 31.977 17.1174 31.977H17.9208C18.0425 31.9765 18.159 31.9278 18.2448 31.8416C18.3307 31.7553 18.3788 31.6386 18.3788 31.5169V29.8645H16.6574V31.5169ZM17.9249 31.6591C17.8922 31.6593 17.8598 31.653 17.8296 31.6406C17.7993 31.6282 17.7718 31.61 17.7486 31.587C17.7254 31.564 17.707 31.5366 17.6943 31.5065C17.6817 31.4763 17.6752 31.444 17.675 31.4113C17.6749 31.3786 17.6812 31.3463 17.6936 31.316C17.706 31.2858 17.7242 31.2583 17.7472 31.2351C17.7702 31.2119 17.7975 31.1934 17.8277 31.1808C17.8578 31.1682 17.8902 31.1616 17.9228 31.1615C17.9888 31.1612 18.0522 31.1872 18.0991 31.2336C18.1459 31.2801 18.1724 31.3433 18.1727 31.4093C18.1729 31.4753 18.147 31.5387 18.1005 31.5855C18.054 31.6324 17.9909 31.6589 17.9249 31.6591ZM17.9249 30.1692C17.9907 30.1692 18.0539 30.1954 18.1005 30.2419C18.147 30.2885 18.1732 30.3517 18.1732 30.4175C18.1732 30.4834 18.147 30.5465 18.1005 30.5931C18.0539 30.6397 17.9907 30.6658 17.9249 30.6658C17.8909 30.668 17.8569 30.6632 17.8249 30.6517C17.7929 30.6402 17.7635 30.6223 17.7387 30.599C17.7139 30.5757 17.6942 30.5476 17.6806 30.5164C17.6671 30.4852 17.6601 30.4515 17.6601 30.4175C17.6601 30.3835 17.6671 30.3499 17.6806 30.3186C17.6942 30.2874 17.7139 30.2593 17.7387 30.236C17.7635 30.2128 17.7929 30.1948 17.8249 30.1833C17.8569 30.1718 17.8909 30.167 17.9249 30.1692ZM17.7593 30.9106C17.7615 30.9444 17.7567 30.9783 17.7452 31.0102C17.7338 31.0421 17.7159 31.0713 17.6928 31.096C17.6696 31.1207 17.6416 31.1404 17.6105 31.1539C17.5794 31.1673 17.5459 31.1743 17.512 31.1743C17.4781 31.1743 17.4446 31.1673 17.4135 31.1539C17.3824 31.1404 17.3544 31.1207 17.3313 31.096C17.3081 31.0713 17.2902 31.0421 17.2788 31.0102C17.2673 30.9783 17.2625 30.9444 17.2647 30.9106C17.2687 30.8478 17.2965 30.7888 17.3425 30.7457C17.3884 30.7026 17.449 30.6787 17.512 30.6787C17.575 30.6787 17.6356 30.7026 17.6815 30.7457C17.7275 30.7888 17.7553 30.8478 17.7593 30.9106ZM17.1063 30.1692C17.1553 30.1692 17.2032 30.1837 17.2439 30.211C17.2847 30.2382 17.3165 30.2769 17.3352 30.3222C17.354 30.3675 17.3589 30.4173 17.3493 30.4654C17.3398 30.5134 17.3162 30.5576 17.2815 30.5923C17.2468 30.6269 17.2027 30.6505 17.1546 30.6601C17.1065 30.6696 17.0567 30.6647 17.0114 30.646C16.9662 30.6272 16.9275 30.5954 16.9002 30.5547C16.873 30.5139 16.8585 30.466 16.8585 30.417C16.8585 30.2799 16.9692 30.1692 17.1063 30.1692ZM17.1063 31.1625C17.1553 31.1625 17.2032 31.177 17.2439 31.2043C17.2847 31.2315 17.3165 31.2702 17.3352 31.3155C17.354 31.3608 17.3589 31.4106 17.3493 31.4586C17.3398 31.5067 17.3162 31.5509 17.2815 31.5855C17.2468 31.6202 17.2027 31.6438 17.1546 31.6534C17.1065 31.6629 17.0567 31.658 17.0114 31.6393C16.9662 31.6205 16.9275 31.5887 16.9002 31.548C16.873 31.5072 16.8585 31.4593 16.8585 31.4103C16.8585 31.2732 16.9692 31.1625 17.1063 31.1625ZM20.3908 34.0134V32.3609H18.6683V34.0134C18.6683 34.2673 18.8755 34.4734 19.1263 34.4734H19.9307C20.0527 34.4732 20.1695 34.4246 20.2558 34.3384C20.342 34.2522 20.3905 34.1353 20.3908 34.0134ZM19.9388 32.6737C20.0044 32.6739 20.0673 32.7001 20.1136 32.7465C20.1599 32.793 20.1858 32.856 20.1856 32.9216C20.1855 32.9871 20.1593 33.05 20.1129 33.0963C20.0664 33.1426 20.0034 33.1685 19.9378 33.1684C19.9054 33.1683 19.8732 33.1618 19.8432 33.1493C19.8133 33.1368 19.786 33.1186 19.7631 33.0956C19.7168 33.0491 19.6909 32.9861 19.691 32.9205C19.6912 32.8549 19.7174 32.7921 19.7638 32.7458C19.8103 32.6995 19.8733 32.6736 19.9388 32.6737ZM19.1192 32.6737C19.185 32.6735 19.2481 32.6993 19.2948 32.7456C19.3414 32.7919 19.3678 32.8548 19.3681 32.9205C19.3683 32.9863 19.3425 33.0494 19.2962 33.0961C19.2499 33.1427 19.187 33.1691 19.1213 33.1694C19.0887 33.1695 19.0565 33.1632 19.0264 33.1509C18.9962 33.1386 18.9688 33.1204 18.9457 33.0975C18.9226 33.0746 18.9043 33.0473 18.8917 33.0173C18.8791 32.9873 18.8726 32.9551 18.8724 32.9226C18.8723 32.89 18.8786 32.8578 18.8909 32.8277C18.9032 32.7975 18.9214 32.7701 18.9443 32.747C18.9672 32.7239 18.9945 32.7056 19.0245 32.693C19.0545 32.6804 19.0867 32.6739 19.1192 32.6737ZM19.1192 34.1626C19.0535 34.1626 18.9905 34.1365 18.944 34.0901C18.8975 34.0436 18.8714 33.9806 18.8714 33.9148C18.8714 33.8491 18.8975 33.7861 18.944 33.7396C18.9905 33.6931 19.0535 33.667 19.1192 33.667C19.185 33.667 19.248 33.6931 19.2945 33.7396C19.3409 33.7861 19.3671 33.8491 19.3671 33.9148C19.3671 33.9806 19.3409 34.0436 19.2945 34.0901C19.248 34.1365 19.185 34.1626 19.1192 34.1626ZM19.2767 33.4121C19.2767 33.276 19.3874 33.1653 19.5245 33.1653C19.5738 33.1651 19.6221 33.1796 19.6632 33.2069C19.7043 33.2342 19.7363 33.2731 19.7553 33.3187C19.7742 33.3642 19.7792 33.4144 19.7695 33.4628C19.7599 33.5112 19.736 33.5556 19.7011 33.5904C19.6661 33.6253 19.6216 33.6489 19.5732 33.6583C19.5247 33.6678 19.4746 33.6626 19.4291 33.6435C19.3836 33.6244 19.3448 33.5922 19.3177 33.551C19.2905 33.5098 19.2763 33.4614 19.2767 33.4121ZM19.691 33.9148C19.6889 33.881 19.6937 33.8471 19.7051 33.8152C19.7166 33.7834 19.7344 33.7542 19.7576 33.7294C19.7808 33.7047 19.8088 33.685 19.8399 33.6716C19.8709 33.6581 19.9045 33.6512 19.9383 33.6512C19.9722 33.6512 20.0057 33.6581 20.0368 33.6716C20.0679 33.685 20.0959 33.7047 20.1191 33.7294C20.1423 33.7542 20.1601 33.7834 20.1716 33.8152C20.183 33.8471 20.1878 33.881 20.1856 33.9148C20.1816 33.9777 20.1538 34.0366 20.1079 34.0797C20.0619 34.1228 20.0013 34.1468 19.9383 34.1468C19.8754 34.1468 19.8147 34.1228 19.7688 34.0797C19.7229 34.0366 19.6951 33.9777 19.691 33.9148ZM14.6485 34.0134C14.6485 34.2673 14.8556 34.4734 15.1065 34.4734H15.9129C16.0346 34.4729 16.1511 34.4242 16.2369 34.338C16.3228 34.2517 16.371 34.135 16.371 34.0134V32.3609H14.6485V34.0134ZM15.918 34.1586C15.8523 34.1586 15.7892 34.1325 15.7428 34.086C15.6963 34.0395 15.6702 33.9765 15.6702 33.9108C15.6702 33.845 15.6963 33.782 15.7428 33.7355C15.7892 33.6891 15.8523 33.663 15.918 33.663C15.9505 33.663 15.9828 33.6694 16.0128 33.6818C16.0429 33.6943 16.0702 33.7125 16.0932 33.7355C16.1162 33.7586 16.1345 33.7859 16.1469 33.8159C16.1594 33.846 16.1658 33.8782 16.1658 33.9108C16.1658 33.9433 16.1594 33.9755 16.1469 34.0056C16.1345 34.0357 16.1162 34.063 16.0932 34.086C16.0702 34.109 16.0429 34.1273 16.0128 34.1397C15.9828 34.1522 15.9505 34.1586 15.918 34.1586ZM15.918 32.6697C15.9837 32.6691 16.047 32.6947 16.0938 32.7408C16.1407 32.7869 16.1673 32.8497 16.1678 32.9155C16.1684 32.9812 16.1428 33.0444 16.0967 33.0913C16.0506 33.1381 15.9878 33.1648 15.9221 33.1653C15.8563 33.1658 15.7931 33.1403 15.7462 33.0942C15.6994 33.0481 15.6727 32.9852 15.6722 32.9195C15.6717 32.8538 15.6973 32.7906 15.7434 32.7437C15.7894 32.6968 15.8523 32.6702 15.918 32.6697ZM15.7545 33.4091C15.7545 33.4749 15.7283 33.5381 15.6817 33.5846C15.6352 33.6312 15.572 33.6574 15.5062 33.6574C15.4403 33.6574 15.3771 33.6312 15.3306 33.5846C15.284 33.5381 15.2578 33.4749 15.2578 33.4091C15.2578 33.273 15.3685 33.1623 15.5067 33.1623C15.5392 33.1621 15.5714 33.1684 15.6014 33.1807C15.6315 33.1931 15.6588 33.2113 15.6818 33.2342C15.7049 33.2571 15.7231 33.2844 15.7356 33.3144C15.7481 33.3444 15.7545 33.3766 15.7545 33.4091ZM15.1004 32.6697C15.1661 32.6697 15.2292 32.6958 15.2756 32.7423C15.3221 32.7887 15.3482 32.8518 15.3482 32.9175C15.3482 32.9832 15.3221 33.0462 15.2756 33.0927C15.2292 33.1392 15.1661 33.1653 15.1004 33.1653C15.0347 33.1653 14.9717 33.1392 14.9252 33.0927C14.8787 33.0462 14.8526 32.9832 14.8526 32.9175C14.8526 32.8518 14.8787 32.7887 14.9252 32.7423C14.9717 32.6958 15.0347 32.6697 15.1004 32.6697ZM15.1004 33.663C15.133 33.663 15.1652 33.6694 15.1952 33.6818C15.2253 33.6943 15.2526 33.7125 15.2756 33.7355C15.2987 33.7586 15.3169 33.7859 15.3294 33.8159C15.3418 33.846 15.3482 33.8782 15.3482 33.9108C15.3482 33.9433 15.3418 33.9755 15.3294 34.0056C15.3169 34.0357 15.2987 34.063 15.2756 34.086C15.2526 34.109 15.2253 34.1273 15.1952 34.1397C15.1652 34.1522 15.133 34.1586 15.1004 34.1586C15.0679 34.1586 15.0356 34.1522 15.0056 34.1397C14.9755 34.1273 14.9482 34.109 14.9252 34.086C14.9022 34.063 14.8839 34.0357 14.8715 34.0056C14.859 33.9755 14.8526 33.9433 14.8526 33.9108C14.8526 33.8782 14.859 33.846 14.8715 33.8159C14.8839 33.7859 14.9022 33.7586 14.9252 33.7355C14.9482 33.7125 14.9755 33.6943 15.0056 33.6818C15.0356 33.6694 15.0679 33.663 15.1004 33.663ZM16.6574 36.4539C16.6574 36.7058 16.8635 36.915 17.1174 36.915H17.9208C18.0425 36.9139 18.1588 36.8649 18.2446 36.7786C18.3303 36.6922 18.3786 36.5756 18.3788 36.4539V34.8025H16.6574V36.4539ZM17.9289 36.6022C17.8632 36.6022 17.8002 36.5761 17.7537 36.5296C17.7072 36.4831 17.6811 36.4201 17.6811 36.3544C17.6811 36.2886 17.7072 36.2256 17.7537 36.1791C17.8002 36.1327 17.8632 36.1066 17.9289 36.1066C17.9946 36.1066 18.0577 36.1327 18.1042 36.1791C18.1506 36.2256 18.1767 36.2886 18.1767 36.3544C18.1767 36.4201 18.1506 36.4831 18.1042 36.5296C18.0577 36.5761 17.9946 36.6022 17.9289 36.6022ZM17.9289 35.1112C17.9949 35.1115 18.0581 35.138 18.1046 35.1848C18.1511 35.2317 18.177 35.2951 18.1767 35.3611C18.1765 35.4271 18.15 35.4903 18.1031 35.5367C18.0563 35.5832 17.9929 35.6092 17.9269 35.6089C17.8609 35.6086 17.7977 35.5822 17.7512 35.5353C17.7048 35.4884 17.6788 35.425 17.6791 35.3591C17.6794 35.2931 17.7058 35.2299 17.7527 35.1834C17.7995 35.1369 17.8629 35.111 17.9289 35.1112ZM17.7634 35.8537C17.7634 35.9194 17.7373 35.9824 17.6908 36.0289C17.6443 36.0754 17.5813 36.1015 17.5156 36.1015C17.4498 36.1015 17.3868 36.0754 17.3403 36.0289C17.2939 35.9824 17.2678 35.9194 17.2678 35.8537C17.2678 35.7879 17.2939 35.7249 17.3403 35.6784C17.3868 35.632 17.4498 35.6058 17.5156 35.6058C17.5813 35.6058 17.6443 35.632 17.6908 35.6784C17.7373 35.7249 17.7634 35.7879 17.7634 35.8537ZM17.1103 35.1112C17.1763 35.1112 17.2396 35.1375 17.2863 35.1841C17.3329 35.2308 17.3592 35.2941 17.3592 35.3601C17.3592 35.4261 17.3329 35.4894 17.2863 35.536C17.2396 35.5827 17.1763 35.6089 17.1103 35.6089C17.0443 35.6089 16.981 35.5827 16.9344 35.536C16.8877 35.4894 16.8615 35.4261 16.8615 35.3601C16.8615 35.2941 16.8877 35.2308 16.9344 35.1841C16.981 35.1375 17.0443 35.1112 17.1103 35.1112ZM17.1103 36.1066C17.1441 36.1044 17.178 36.1092 17.2099 36.1206C17.2418 36.1321 17.271 36.1499 17.2957 36.1731C17.3204 36.1963 17.3401 36.2243 17.3536 36.2554C17.3671 36.2865 17.374 36.32 17.374 36.3539C17.374 36.3877 17.3671 36.4213 17.3536 36.4523C17.3401 36.4834 17.3204 36.5114 17.2957 36.5346C17.271 36.5578 17.2418 36.5756 17.2099 36.5871C17.178 36.5985 17.1441 36.6033 17.1103 36.6012C17.0475 36.5971 16.9885 36.5693 16.9454 36.5234C16.9024 36.4775 16.8784 36.4168 16.8784 36.3539C16.8784 36.2909 16.9024 36.2303 16.9454 36.1843C16.9885 36.1384 17.0475 36.1106 17.1103 36.1066Z" fill="url(#paint0_linear_131_1320)"/>
<path d="M24.5099 28.4883V26.9669L26.6437 27.3427C25.7926 25.8383 24.5824 24.5679 23.1212 23.6446C21.66 22.7214 19.993 22.174 18.2689 22.0513V25.5095H16.7708V22.0513C15.3426 22.1513 13.95 22.5435 12.6794 23.2035C11.4089 23.8635 10.2873 24.7773 9.3842 25.8883L10.5298 26.6906V30.9685L7.51037 32.3771L10.5298 33.475V34.4978C10.5298 34.6938 10.544 34.8878 10.5593 35.0797L7.12646 33.8315C7.34595 35.5575 7.99359 37.2012 9.01045 38.6131L10.8975 36.722C11.0691 37.2308 11.2987 37.7122 11.5759 38.1611L10.4415 39.2986L12.5814 39.4418C13.3478 40.2058 14.2809 40.7819 15.3073 41.1247L11.193 40.8495C12.8076 42.0778 14.746 42.8075 16.7698 42.9488V41.4467C17.0156 41.4731 17.2654 41.4883 17.5183 41.4883C17.7712 41.4883 18.0211 41.4731 18.2669 41.4467V42.9488C18.795 42.9112 19.3119 42.8391 19.8147 42.7253L18.7828 41.3664C19.8587 41.1682 20.8725 40.7182 21.7413 40.0532L24.5698 40.2442C25.731 39.1887 26.6413 37.8866 27.2338 36.4335L23.4313 38.2058C23.8274 37.5781 24.124 36.8845 24.3027 36.1451L26.9291 34.9203L24.5069 34.4927V32.9713L27.9488 33.5776C28.1064 32.0283 27.9159 30.4634 27.3912 28.9971L24.5099 28.4883ZM9.19225 36.9931C8.92074 36.4895 8.69536 35.9622 8.51889 35.4179L10.1652 36.0171L9.19225 36.9931ZM16.6459 26.5078H16.521V26.0579H16.7708V26.2824H16.9425V26.0579H17.1923V26.2824H17.3863V26.0579H17.6362V26.2824H17.8464V26.0579H18.0962V26.2824H18.2547V26.0579H18.5035V26.5078H18.2679V27.5062L18.5177 28.5046H16.52L16.7698 27.5062V26.5078H16.6459ZM15.7552 23.206V24.3913L15.6323 24.3699V25.5105H11.1646C12.4541 24.3353 14.0424 23.538 15.7552 23.206ZM11.6521 26.5078H11.5272V26.0579H11.777V26.2824H11.9487V26.0579H12.1985V26.2824H12.3935V26.0579H12.6423V26.2824H12.8536V26.0579H13.1034V26.2824H13.2608V26.0579H13.5097V26.5078H13.274V27.5062L13.5239 28.5046H11.5272L11.777 27.5062V26.5078H11.6521ZM11.5607 34.3921L11.8105 33.3938V32.3954H11.5607V31.9475H11.8105V32.172H11.9822V31.9475H12.231V32.172H12.426V31.9475H12.6758V32.172H12.8861V31.9475H13.1359V32.172H13.2933V31.9475H13.5432V32.3954H13.3076V33.3938L13.5574 34.3921H11.5607ZM14.7365 40.0431L14.2074 39.1615L13.5015 38.4556L13.4132 38.544L13.3238 38.6313L13.0059 38.3135L13.1837 38.1378L13.3411 38.2952L13.464 38.1743L13.3045 38.0169L13.4822 37.8392L13.6397 37.9966L13.7788 37.8595L13.6194 37.7L13.7971 37.5243L13.9545 37.6817L14.1038 37.5335L13.9444 37.376L14.1221 37.1983L14.2795 37.3578L14.3933 37.245L14.2328 37.0856L14.4105 36.9099L14.7284 37.2278L14.5608 37.3953L15.2657 38.1012L16.1483 38.6303L14.7365 40.0431ZM17.5194 37.4938C16.725 37.493 15.9634 37.1771 15.4017 36.6154C14.84 36.0537 14.5241 35.2921 14.5233 34.4978V29.5039H20.5154V34.4978C20.5146 35.2921 20.1987 36.0537 19.637 36.6154C19.0753 37.1771 18.3137 37.493 17.5194 37.4938ZM21.6976 38.6303L21.6093 38.543L21.5219 38.4546L20.8161 39.1605L20.2859 40.042L18.8732 38.6293L19.7568 38.1002L20.4626 37.3943L20.2951 37.2267L20.6129 36.9088L20.7887 37.0846L20.6312 37.244L20.744 37.3567L20.9014 37.1973L21.0791 37.375L20.9197 37.5324L21.0679 37.6807L21.2284 37.5233L21.4041 37.699L21.2457 37.8585L21.3848 37.9956L21.5422 37.8381L21.72 38.0159L21.5605 38.1733L21.6814 38.2942L21.8408 38.1367L22.0165 38.3124L21.6976 38.6303ZM21.5148 34.5171L21.7647 33.5187V32.5203H21.5148V32.0714H21.7647V32.2969H21.9353V32.0714H22.1851V32.2969H22.3801V32.0714H22.63V32.2969H22.8402V32.0714H23.0901V32.2969H23.2475V32.0714H23.4973V32.5203H23.2617V33.5187L23.5115 34.5171H21.5148ZM21.5148 28.5046L21.7647 27.5062V26.5078H21.5148V26.0579H21.7647V26.2824H21.9353V26.0579H22.1851V26.2824H22.3801V26.0579H22.63V26.2824H22.8402V26.0579H23.0901V26.2824H23.2475V26.0579H23.4973V26.5078H23.2617V27.5062L23.5115 28.5046H21.5148Z" fill="url(#paint1_linear_131_1320)"/>
<path d="M32.5 2.03125C15.6731 2.03125 2.03125 15.6731 2.03125 32.5C2.03125 49.3269 15.6731 62.9688 32.5 62.9688C49.3269 62.9688 62.9688 49.3269 62.9688 32.5C62.9688 15.6731 49.3269 2.03125 32.5 2.03125ZM17.5195 8.34336V19.0003H17.2697C16.7802 19.0003 16.3445 19.2329 16.0672 19.5955C12.858 19.9576 9.89791 21.4992 7.76141 23.921C7.27188 23.9555 6.8575 24.1871 6.60156 24.5558L6.52336 24.6675L6.48781 24.703C6.3387 24.853 6.22291 25.0327 6.14801 25.2305C6.07311 25.4283 6.04077 25.6396 6.05312 25.8507C6.05516 25.998 6.07648 26.1412 6.11812 26.2773C5.32834 27.7258 4.82101 29.3112 4.62313 30.9491L4.57945 30.9695C4.3875 31.0609 4.22297 31.1878 4.09094 31.3371C4.485 21.6359 9.75711 13.1737 17.5195 8.34336ZM17.5195 56.6566C9.70836 51.7948 4.42 43.2555 4.08688 33.477C4.21281 33.7238 4.39969 33.931 4.6282 34.0732C4.86898 36.0733 5.57433 37.9894 6.68789 39.6683C6.57656 39.9437 6.5483 40.2457 6.6066 40.537C6.66489 40.8283 6.80719 41.0961 7.01594 41.3075L7.37344 41.665C7.54977 41.841 7.76673 41.9708 8.00514 42.0431C8.24356 42.1154 8.4961 42.1278 8.74047 42.0794C10.769 43.9397 13.3375 45.1051 16.0733 45.4066C16.3505 45.7702 16.7832 46.0007 17.2697 46.0007H17.5195V56.6566ZM29.77 34.9131C29.7467 35.0433 29.6729 35.159 29.5646 35.2349C29.4563 35.3108 29.3224 35.3408 29.1921 35.3184L29.1586 35.3123C28.7146 37.148 27.8435 38.8531 26.6163 40.2888C25.3891 41.7244 23.8403 42.8501 22.0959 43.5744C22.0776 43.6639 22.0347 43.7465 21.972 43.813L21.6186 44.1665C21.5245 44.2595 21.3975 44.3117 21.2652 44.3117C21.1328 44.3117 21.0058 44.2595 20.9117 44.1665L20.799 44.0182C19.9875 44.2487 19.1405 44.3909 18.2691 44.4458V44.4844C18.2688 44.6166 18.2162 44.7434 18.1228 44.8371C18.0293 44.9307 17.9027 44.9835 17.7704 44.9841H17.2707C17.1384 44.9835 17.0118 44.9307 16.9183 44.8371C16.8249 44.7434 16.7723 44.6166 16.772 44.4844V44.4468C13.7933 44.266 10.9904 42.9756 8.91617 40.8302L8.80039 40.9459C8.7059 41.0382 8.57905 41.0899 8.44695 41.0899C8.31486 41.0899 8.18801 41.0382 8.09352 40.9459L7.73906 40.5935C7.64634 40.4995 7.59435 40.3727 7.59435 40.2406C7.59435 40.1085 7.64634 39.9817 7.73906 39.8877L7.94219 39.6835C6.5413 37.822 5.71777 35.5901 5.57375 33.2648C5.52568 33.2793 5.47569 33.2865 5.42547 33.2861C5.33197 33.287 5.24016 33.2611 5.16094 33.2114C5.08173 33.1618 5.01844 33.0904 4.97859 33.0058L4.76836 32.5538C4.71345 32.4337 4.70802 32.2968 4.75325 32.1727C4.79848 32.0486 4.89074 31.9472 5.01008 31.8906L5.57984 31.6245C5.72203 29.6674 6.33242 27.8444 7.30234 26.261L7.27289 26.2397C7.20669 26.1921 7.15344 26.1287 7.11796 26.0552C7.08249 25.9818 7.06592 25.9007 7.06977 25.8192C7.06142 25.747 7.06941 25.6738 7.09314 25.6051C7.11687 25.5363 7.15574 25.4738 7.20688 25.4221L7.30539 25.3236L7.43742 25.1347C7.48364 25.07 7.54504 25.0176 7.61623 24.9822C7.68742 24.9468 7.76622 24.9294 7.8457 24.9316H7.86297C7.97289 24.9203 8.08334 24.9472 8.17578 25.0077C9.21855 23.7066 10.5221 22.6381 12.0026 21.8709C13.483 21.1037 15.1077 20.6549 16.772 20.5532V20.5156C16.772 20.2404 16.9965 20.0159 17.2707 20.0159H17.7704C18.0456 20.0159 18.2691 20.2414 18.2691 20.5156V20.5532C20.4595 20.6892 22.5705 21.4245 24.3715 22.6788C26.1724 23.9331 27.5941 25.6582 28.4812 27.6656L28.5827 27.6839C28.7126 27.7079 28.8278 27.7821 28.9033 27.8905C28.9788 27.9989 29.0085 28.1327 28.9859 28.2628L28.9006 28.7544L28.8996 28.7564C29.2876 29.9345 29.5049 31.1909 29.5049 32.5C29.5049 32.952 29.4755 33.3978 29.4257 33.8366L29.4521 33.8416C29.5824 33.8652 29.698 33.9392 29.7739 34.0476C29.8498 34.1561 29.8798 34.2901 29.8573 34.4205L29.77 34.9131Z" fill="url(#paint2_linear_131_1320)"/>
<defs>
<linearGradient id="paint0_linear_131_1320" x1="23.2333" y1="42.2612" x2="6.54273" y2="42.2612" gradientUnits="userSpaceOnUse">
<stop stop-color="#4F55F5"/>
<stop offset="0.717342" stop-color="#66C7E5" stop-opacity="0.459065"/>
</linearGradient>
<linearGradient id="paint1_linear_131_1320" x1="28.7316" y1="42.9488" x2="6.28221" y2="42.9488" gradientUnits="userSpaceOnUse">
<stop stop-color="#4F55F5"/>
<stop offset="0.717342" stop-color="#66C7E5" stop-opacity="0.459065"/>
</linearGradient>
<linearGradient id="paint2_linear_131_1320" x1="65.0971" y1="62.9687" x2="-0.433134" y2="62.9687" gradientUnits="userSpaceOnUse">
<stop stop-color="#4F55F5"/>
<stop offset="0.717342" stop-color="#66C7E5" stop-opacity="0.459065"/>
</linearGradient>
</defs>
</svg>
