<svg width="85" height="40" viewBox="0 0 85 40" fill="none" xmlns="http://www.w3.org/2000/svg">
<g clip-path="url(#clip0_131_1417)">
<path d="M4.76415 9.44596V12.2214H4.88866C5.13686 11.8353 5.46142 11.4413 5.86201 11.041C6.26211 10.6404 6.75285 10.2817 7.33291 9.96343C7.91297 9.647 8.56873 9.38403 9.30103 9.17651C10.0322 8.96966 10.8546 8.8654 11.7659 8.8654C13.1747 8.8654 14.4726 9.13518 15.6603 9.6734C16.8478 10.2129 17.8701 10.9517 18.7266 11.8904C19.5822 12.8297 20.2451 13.9347 20.7149 15.2047C21.1844 16.4754 21.4193 17.8427 21.4193 19.3065C21.4193 20.77 21.1914 22.1443 20.7354 23.4286C20.2801 24.7129 19.6302 25.8312 18.7883 26.7841C17.9455 27.7371 16.9241 28.4977 15.7225 29.0627C14.5207 29.6286 13.1601 29.9117 11.6415 29.9117C10.2327 29.9117 8.94144 29.6217 7.76787 29.0421C6.59331 28.4619 5.68936 27.6753 5.05418 26.68H4.97167V39.2748H0V9.44596H4.76415ZM16.3648 19.306C16.3648 18.5325 16.2471 17.766 16.0125 17.0063C15.7773 16.2471 15.4253 15.5636 14.9558 14.9555C14.486 14.3489 13.8927 13.8582 13.1743 13.485C12.456 13.1122 11.6138 12.9258 10.6474 12.9258C9.73582 12.9258 8.92068 13.1192 8.203 13.506C7.48465 13.8929 6.86989 14.3906 6.35939 14.9972C5.8479 15.6051 5.46158 16.2958 5.19928 17.0691C4.93631 17.8427 4.80582 18.6165 4.80582 19.3893C4.80582 20.1629 4.93631 20.9294 5.19928 21.6883C5.46158 22.4486 5.8479 23.1318 6.35939 23.7397C6.87022 24.347 7.48465 24.8378 8.203 25.2098C8.92068 25.5832 9.73582 25.7688 10.6474 25.7688C11.6138 25.7688 12.456 25.5762 13.1742 25.1894C13.8924 24.8024 14.486 24.3055 14.9558 23.6974C15.4253 23.0903 15.7773 22.3997 16.0125 21.6262C16.2471 20.8526 16.3648 20.0793 16.3648 19.306ZM64.8248 8.49585V30.5333C64.8248 31.7208 64.7278 32.8465 64.5346 33.9097C64.3407 34.973 63.9756 35.8981 63.4367 36.6858C62.8985 37.4735 62.1659 38.1009 61.2407 38.5707C60.315 39.0406 59.1074 39.2748 57.6156 39.2748C57.2015 39.2748 56.7871 39.2471 56.3726 39.1923C55.9586 39.1367 55.6272 39.0812 55.3783 39.0261L55.793 34.8002C56.0246 34.8575 56.2598 34.8991 56.4969 34.9247C56.746 34.9518 56.9663 34.966 57.1598 34.966C57.7394 34.966 58.2091 34.8556 58.5685 34.6347C58.9269 34.4129 59.2035 34.1092 59.3974 33.7231C59.59 33.3361 59.7145 32.8874 59.7701 32.3762C59.8249 31.865 59.8528 31.3203 59.8528 30.7401V8.49585H64.8246H64.8248ZM52.411 22.0387V25.1255L55.3717 24.2318L55.9532 26.0211L53.0045 27.0267L54.835 29.6223L53.2917 30.7418L51.3647 28.1919L49.4881 30.6745L47.9893 29.5332L49.82 27.0267L46.8483 25.9544L47.4303 24.1639L50.4143 25.1255V22.0386H52.4111L52.411 22.0387ZM81.7693 14.7488C81.3271 14.1686 80.7198 13.6652 79.9463 13.2369C79.1727 12.8086 78.3307 12.5944 77.4191 12.5944C76.6177 12.5944 75.8866 12.7605 75.2238 13.0918C74.5603 13.4225 74.2296 13.9757 74.2296 14.7488C74.2296 15.522 74.595 16.0687 75.3269 16.3851C76.0587 16.703 77.1295 17.0277 78.5382 17.3591C79.3042 17.5312 80.0583 17.7526 80.7958 18.022C81.5557 18.2977 82.2463 18.6638 82.8677 19.1199C83.4886 19.5751 83.9928 20.1418 84.3798 20.8185C84.7659 21.4955 84.96 22.3168 84.96 23.2837C84.96 24.4996 84.7316 25.5286 84.276 26.3703C83.8206 27.2129 83.2127 27.8964 82.4528 28.4212C81.6928 28.9458 80.8093 29.326 79.8012 29.5604C78.7928 29.795 77.7509 29.9124 76.6733 29.9124C75.1261 29.9124 73.6213 29.6291 72.1572 29.0632C70.6933 28.4979 69.4779 27.6892 68.5115 26.6404L71.7845 23.5741C72.337 24.2924 73.0545 24.8862 73.9392 25.3554C74.8229 25.8252 75.8029 26.0593 76.8808 26.0593C77.2393 26.0593 77.6053 26.0188 77.9787 25.9355C78.3514 25.853 78.6964 25.7221 79.0141 25.5423C79.3259 25.368 79.5894 25.1188 79.7808 24.8172C79.9734 24.5127 80.0702 24.1408 80.0702 23.6981C80.0702 22.869 79.6905 22.276 78.9316 21.9167C78.1713 21.5576 77.0317 21.1985 75.5135 20.8396C74.7743 20.6759 74.0473 20.4612 73.3377 20.1971C72.6338 19.9347 72.0053 19.5897 71.4528 19.1615C70.8996 18.7332 70.4587 18.2023 70.1272 17.5659C69.7958 16.9309 69.6296 16.1439 69.6296 15.2045C69.6296 14.0997 69.8572 13.1474 70.3136 12.3466C70.7688 11.5447 71.3703 10.8901 72.1155 10.3776C72.8609 9.86714 73.7035 9.48713 74.643 9.2391C75.5816 8.99008 76.5488 8.86557 77.5429 8.86557C78.9784 8.86557 80.3808 9.11459 81.7476 9.61098C83.1144 10.1087 84.1981 10.8687 85 11.89L81.7693 14.7488ZM42.1834 15.7635C41.6721 14.618 40.9615 13.651 40.0499 12.8636C39.1385 12.0766 38.068 11.4757 36.8392 11.0615C35.6099 10.6476 34.2771 10.4401 32.8415 10.4401C32.3164 10.4401 31.7296 10.4684 31.0806 10.5226C30.4315 10.5788 29.8724 10.675 29.4029 10.8134L29.6926 4.47412H41.6659V0H24.9697L24.4725 16.0323C24.9136 15.812 25.4182 15.6048 25.9844 15.4109C26.5505 15.2183 27.1303 15.0455 27.7243 14.8938C28.3247 14.7408 28.9335 14.623 29.5476 14.5411C30.169 14.4586 30.7556 14.4173 31.3084 14.4173C32.1089 14.4173 32.8963 14.5069 33.6698 14.6862C34.4429 14.866 35.1404 15.184 35.7619 15.6392C36.3833 16.0944 36.8868 16.6959 37.2742 17.4413C37.6603 18.1867 37.8541 19.126 37.8541 20.2586C37.8541 21.1424 37.709 21.9368 37.4189 22.6409C37.1291 23.3443 36.7353 23.932 36.2386 24.4008C35.741 24.8711 35.1616 25.2299 34.498 25.4779C33.8353 25.7274 33.1312 25.8515 32.3852 25.8515C31.0599 25.8515 29.913 25.4988 28.9465 24.7948C27.9794 24.0907 27.2896 23.1585 26.8749 21.9982L26.8197 22.0187L23.2219 25.3899C23.9496 26.5766 24.8876 27.5694 26.0465 28.3578C27.7309 29.5033 29.8023 30.0774 32.2612 30.0774C33.7249 30.0774 35.1057 29.842 36.4039 29.3731C37.7016 28.904 38.8344 28.227 39.8011 27.3424C40.7675 26.4592 41.5341 25.375 42.1007 24.0907C42.6663 22.8064 42.9496 21.3499 42.9496 19.7197C42.9499 18.2282 42.6946 16.9102 42.1834 15.7635Z" fill="url(#paint0_linear_131_1417)"/>
</g>
<defs>
<linearGradient id="paint0_linear_131_1417" x1="87.9688" y1="39.2748" x2="-3.4375" y2="39.2748" gradientUnits="userSpaceOnUse">
<stop stop-color="#4F55F5"/>
<stop offset="0.717342" stop-color="#66C7E5" stop-opacity="0.459065"/>
</linearGradient>
<clipPath id="clip0_131_1417">
<rect width="85" height="39.3457" fill="white"/>
</clipPath>
</defs>
</svg>
