<svg width="65" height="65" viewBox="0 0 65 65" fill="none" xmlns="http://www.w3.org/2000/svg">
<path d="M32.5 2.03125C15.6731 2.03125 2.03125 15.6731 2.03125 32.5C2.03125 49.3269 15.6731 62.9688 32.5 62.9688C49.3269 62.9688 62.9688 49.3269 62.9688 32.5C62.9688 15.6731 49.3269 2.03125 32.5 2.03125ZM6.35172 43.6719C6.10188 43.0853 5.87188 42.4905 5.66211 41.8884H59.3379C59.1281 42.4905 58.8981 43.0853 58.6483 43.6719H6.35172ZM32.5 4.0625C44.6032 4.0625 54.9575 11.6655 59.0555 22.3438H5.94547C10.0425 11.6655 20.3968 4.0625 32.5 4.0625Z" fill="url(#paint0_linear_131_1412)"/>
<defs>
<linearGradient id="paint0_linear_131_1412" x1="65.0971" y1="62.9687" x2="-0.433134" y2="62.9687" gradientUnits="userSpaceOnUse">
<stop stop-color="#4F55F5"/>
<stop offset="0.717342" stop-color="#66C7E5" stop-opacity="0.459065"/>
</linearGradient>
</defs>
</svg>
