<svg width="65" height="65" viewBox="0 0 65 65" fill="none" xmlns="http://www.w3.org/2000/svg">
<path fill-rule="evenodd" clip-rule="evenodd" d="M22.7905 0C16.1632 0 10.8332 5.56021 10.8332 12.3717C10.8332 16.5127 12.8048 20.1906 15.8355 22.4358C14.2735 23.6061 13.0075 25.126 12.1388 26.8737C11.2701 28.6214 10.8229 30.5483 10.8332 32.5C10.8332 36.6437 12.8048 40.319 15.8355 42.5642C14.2735 43.7344 13.0075 45.2543 12.1388 47.002C11.2701 48.7497 10.8229 50.6767 10.8332 52.6283C10.8332 59.4398 16.1632 65 22.7905 65C29.4151 65 34.7478 59.4398 34.7478 52.6283V42.1687C36.8422 43.9151 39.4823 44.8724 42.2092 44.8744C48.8365 44.8717 54.1665 39.3115 54.1665 32.5C54.1774 30.5482 53.7305 28.6211 52.8618 26.8732C51.9931 25.1254 50.7267 23.6056 49.1642 22.4358C50.7262 21.2656 51.9922 19.7457 52.8609 17.998C53.7296 16.2503 54.1768 14.3233 54.1665 12.3717C54.1665 5.56021 48.8365 0 42.2092 0H22.7905ZM15.3263 12.3717C15.3263 8.06271 18.6901 4.61229 22.7905 4.61229H30.2519V20.131H22.7905C18.6901 20.131 15.3263 16.6779 15.3263 12.3717ZM42.2092 20.1283H34.7478V4.60958H42.2092C46.3124 4.60958 49.6734 8.06271 49.6734 12.3717C49.6734 16.6779 46.3124 20.1283 42.2092 20.1283ZM15.329 32.5C15.329 28.1937 18.6928 24.7406 22.7932 24.7406H30.2546V40.2594H22.7905C18.6873 40.2594 15.3263 36.8062 15.3263 32.5H15.329ZM34.7478 32.5C34.7478 28.1937 38.1115 24.7406 42.2119 24.7406C46.3151 24.7406 49.6761 28.191 49.6761 32.5C49.6761 36.8062 46.3151 40.2594 42.2119 40.2594C38.1115 40.2594 34.7505 36.809 34.7505 32.5H34.7478ZM15.329 52.6283C15.329 48.3221 18.6928 44.8717 22.7932 44.8717H30.2546V52.6283C30.2546 56.9373 26.8963 60.3877 22.7932 60.3877C18.6928 60.3877 15.329 56.9373 15.329 52.6283Z" fill="url(#paint0_linear_131_1404)"/>
<defs>
<linearGradient id="paint0_linear_131_1404" x1="55.6802" y1="65" x2="9.08054" y2="65" gradientUnits="userSpaceOnUse">
<stop stop-color="#4F55F5"/>
<stop offset="0.717342" stop-color="#66C7E5" stop-opacity="0.459065"/>
</linearGradient>
</defs>
</svg>
