<svg width="60" height="60" viewBox="0 0 60 60" fill="none" xmlns="http://www.w3.org/2000/svg">
<g clip-path="url(#clip0_131_1337)">
<path d="M59.3435 0.449894C59.6513 0.712628 59.8658 1.06789 59.9551 1.46261C60.0443 1.85733 60.0034 2.27033 59.8385 2.63989C54.101 15.5024 42.0523 33.2774 33.2323 42.5399C30.7601 45.131 27.7112 47.102 24.3335 48.2924C24.266 49.1436 24.1085 50.3099 23.7335 51.5474C22.9798 54.0186 21.2323 57.0936 17.3285 58.0724C13.5479 58.9726 9.62984 59.1407 5.78602 58.5674C5.07127 58.4545 4.36657 58.2852 3.67852 58.0611C3.04196 57.8674 2.44866 57.553 1.93102 57.1349C1.58966 56.8446 1.32662 56.4732 1.16602 56.0549C0.966962 55.5181 0.972301 54.9268 1.18102 54.3936C1.53727 53.4749 2.36602 52.9686 2.90977 52.6986C4.38727 51.9599 5.25352 50.9999 6.16102 49.6011C6.51727 49.0611 6.85102 48.4874 7.23727 47.8311L7.67602 47.0886C8.24227 46.1324 8.89852 45.0636 9.72352 43.9086C11.7035 41.1374 14.2273 40.4399 16.271 40.5486C16.7435 40.5749 17.1823 40.6424 17.576 40.7286C17.8085 40.0836 18.1085 39.3036 18.4685 38.4486C19.4473 36.1274 20.936 33.1274 22.9198 30.6899C31.0798 20.6774 46.0948 7.41739 57.1085 0.299894C57.4476 0.0810424 57.8482 -0.02257 58.2509 0.00445409C58.6535 0.0314782 59.0367 0.187696 59.3435 0.449894ZM17.6435 44.6699C17.1459 44.4534 16.614 44.3265 16.0723 44.2949C15.1498 44.2461 13.9235 44.4824 12.776 46.0911C12.0373 47.1224 11.4448 48.0861 10.901 49.0049L10.5073 49.6686C10.1098 50.3474 9.70852 51.0261 9.30727 51.6486C8.54781 52.8792 7.58398 53.9711 6.45727 54.8774C9.04477 55.2974 12.9673 55.2936 16.421 54.4274C18.5173 53.9061 19.5823 52.2936 20.1448 50.4524C20.4163 49.5377 20.575 48.5931 20.6173 47.6399L17.6435 44.6699ZM23.0435 44.7674C23.4935 44.6174 24.0823 44.3924 24.761 44.0811C26.9213 43.0789 28.8739 41.6796 30.5173 39.9561C37.6423 32.4711 47.0623 19.0686 53.2123 7.58989C43.4998 14.8161 32.3398 25.0649 25.8298 33.0599C24.1723 35.0961 22.8485 37.7211 21.9223 39.9074C21.4685 40.9874 21.1198 41.9324 20.891 42.6074V42.6111L23.0473 44.7674H23.0435ZM4.39477 56.1674L4.42102 56.1486C4.41296 56.1548 4.40413 56.1598 4.39477 56.1636V56.1674ZM17.8273 44.7561L17.8348 44.7599H17.8273V44.7561Z" fill="url(#paint0_linear_131_1337)"/>
</g>
<defs>
<linearGradient id="paint0_linear_131_1337" x1="62.0612" y1="58.9004" x2="-1.36474" y2="58.9004" gradientUnits="userSpaceOnUse">
<stop stop-color="#4F55F5"/>
<stop offset="0.717342" stop-color="#66C7E5" stop-opacity="0.459065"/>
</linearGradient>
<clipPath id="clip0_131_1337">
<rect width="60" height="60" fill="white"/>
</clipPath>
</defs>
</svg>
