<svg width="70" height="70" viewBox="0 0 70 70" fill="none" xmlns="http://www.w3.org/2000/svg">
<g clip-path="url(#clip0_131_1353)">
<path d="M33.014 48.4444C32.9484 48.5625 32.9812 48.51 33.014 48.4444V48.4444ZM60.2615 38.9288C58.0609 38.9288 55.8909 39.4319 53.9178 40.4053C53.2724 39.1038 52.6053 37.9663 52.4959 37.1131C52.3646 36.1178 52.2224 35.5272 52.3756 34.346C52.5287 33.1647 53.2178 31.4913 53.2068 31.371C53.1959 31.2506 53.0537 30.6491 51.6428 30.6381C50.2318 30.6272 49.0178 30.9116 48.8756 31.2835C48.6259 31.9629 48.432 32.6616 48.2959 33.3725C48.0443 34.6522 45.4762 39.2241 44.0215 41.6085C43.5403 40.6788 43.1356 39.8585 43.0481 39.2022C42.9168 38.2069 42.7746 37.6163 42.9278 36.435C43.0809 35.2538 43.7699 33.5803 43.759 33.46C43.7481 33.3397 43.6059 32.7381 42.1971 32.7272C40.7884 32.7163 39.5721 33.0006 39.4299 33.3725C39.2878 33.7444 39.1346 34.6194 38.8503 35.4616C38.5659 36.3038 35.1424 43.9163 34.2478 45.896C33.7884 46.9022 33.3946 47.7116 33.1103 48.2585C33.0665 48.346 33.0337 48.4007 33.0118 48.4444C33.0446 48.3897 33.0665 48.335 33.0665 48.3569C32.8259 48.8272 32.6837 49.0897 32.6837 49.0897V49.1006C32.4978 49.4506 32.2899 49.7678 32.1915 49.7678C32.1259 49.7678 31.9837 48.8491 32.2243 47.5913C32.7384 44.9444 33.9524 40.8319 33.9415 40.6897C33.9306 40.6131 34.1712 39.9022 33.1431 39.5194C32.1478 39.1585 31.7868 39.76 31.6993 39.76C31.6118 39.76 31.5462 39.9788 31.5462 39.9788C31.5462 39.9788 32.6509 35.3413 29.4243 35.3413C27.4118 35.3413 24.6118 37.5506 23.2359 39.5522C22.3718 40.0225 20.5015 41.0397 18.5328 42.1225L16.2687 43.3694C16.214 43.3147 16.1703 43.26 16.1156 43.2053C12.1999 39.0272 4.97245 36.0741 5.2787 30.4631C5.38807 28.4178 6.09901 23.0475 19.1781 16.5288C29.8968 11.1913 38.4653 12.6569 39.9418 15.9163C42.0637 20.5647 35.359 29.2163 24.229 30.4631C19.9853 30.9335 17.7562 29.2928 17.1984 28.6803C16.6187 28.035 16.5312 28.0022 16.3124 28.1225C15.9515 28.3194 16.1812 28.8881 16.3124 29.2272C16.6406 30.0913 18.0078 31.6225 20.3374 32.3881C22.3828 33.0553 27.3571 33.4272 33.3706 31.0975C40.1278 28.4944 45.3887 21.2428 43.8443 15.1725C42.2737 9.00377 32.0449 6.98034 22.374 10.4147C16.6099 12.46 10.3778 15.6757 5.89557 19.8647C0.56901 24.8522 -0.281927 29.1944 0.0680728 31.01C1.31495 37.4522 10.194 41.6522 13.7465 44.7585L13.2543 45.0319C11.4715 45.9178 4.70339 49.4616 3.00807 53.2022C1.09401 57.446 3.32526 60.4866 4.7887 60.9022C9.36057 62.171 14.0396 59.885 16.5553 56.1335C19.0709 52.3819 18.7646 47.4819 17.6053 45.2507C17.5943 45.2178 17.5724 45.196 17.5615 45.1632C18.8739 44.3858 20.1975 43.6274 21.5318 42.8881C21.0943 44.0694 20.7771 45.4913 20.6131 47.5475C20.4162 49.9538 21.4115 53.071 22.7021 54.296C23.2709 54.8319 23.9578 54.8428 24.3865 54.8428C25.8959 54.8428 26.574 53.596 27.3287 52.1085C28.2584 50.2928 29.0787 48.1819 29.0787 48.1819C29.0787 48.1819 28.0506 53.8913 30.8615 53.8913C31.8896 53.8913 32.9178 52.5678 33.3771 51.8897V51.9007C33.3771 51.9007 33.399 51.8569 33.4537 51.7694C33.5631 51.6053 33.6178 51.5069 33.6178 51.5069V51.4741C34.0334 50.7631 34.9412 49.1335 36.3084 46.4428C38.0803 42.9647 39.7734 38.6225 39.7734 38.6225C39.9374 39.5763 40.1649 40.5191 40.4515 41.4444C40.7578 42.4835 41.4031 43.621 41.9171 44.7256C41.5015 45.2944 41.2499 45.6225 41.2499 45.6225C41.2499 45.6313 41.2543 45.6378 41.2609 45.6444C40.9328 46.0819 40.5609 46.5522 40.1781 47.0116C38.7803 48.6741 37.1156 50.5772 36.8968 51.1241C36.6343 51.7694 36.6999 52.2506 37.2031 52.6225C37.5749 52.9069 38.2312 52.9506 38.9203 52.896C40.1781 52.8085 41.064 52.5022 41.4906 52.3053C42.2773 52.0234 43.021 51.6332 43.6999 51.146C45.0671 50.1397 45.8984 48.696 45.8218 46.7928C45.7781 45.7428 45.439 44.6928 45.0234 43.7085C45.1437 43.5335 45.2749 43.3475 45.3953 43.1616C46.8186 41.0378 48.101 38.823 49.2343 36.5313C49.3984 37.485 49.6237 38.4278 49.9124 39.3531C50.1749 40.2391 50.689 41.2125 51.1593 42.1641C49.1249 43.8156 47.8671 45.7297 47.4318 46.9875C46.6224 49.3172 47.2568 50.3672 48.449 50.6078C48.9849 50.7172 49.7506 50.4656 50.3193 50.225C51.1637 49.9428 51.9599 49.5338 52.6796 49.011C54.0468 48.0047 55.3703 46.5938 55.2806 44.6797C55.2478 43.8156 55.0071 42.9516 54.6899 42.1203C56.4071 41.3985 58.6384 41.0047 61.4821 41.3328C67.5721 42.0438 68.7643 45.85 68.5346 47.436C68.3049 49.0219 67.0253 49.9078 66.5987 50.1703C66.1721 50.4328 66.0409 50.5313 66.0737 50.7281C66.1284 51.0125 66.3253 51.0016 66.6862 50.936C67.1893 50.8485 69.88 49.6453 70.0003 46.7032C70.1753 42.9844 66.5987 38.8938 60.2659 38.9266L60.2615 38.9288ZM13.3199 54.7553C11.3074 56.9538 8.48776 57.785 7.2737 57.085C5.97214 56.3282 6.4862 53.0928 8.96682 50.75C10.4762 49.3282 12.4231 48.0157 13.7137 47.2063C14.009 47.0313 14.4356 46.7688 14.9606 46.4516C15.0032 46.4242 15.047 46.3987 15.0918 46.375C15.1903 46.3094 15.2996 46.2547 15.409 46.1891C16.3146 49.5141 15.4418 52.4453 13.3199 54.7532V54.7553ZM28.0156 44.7585C27.3156 46.4757 25.8412 50.8507 24.9421 50.621C24.1765 50.4241 23.7062 47.0882 24.789 43.8069C25.3359 42.1553 26.4953 40.1866 27.1843 39.421C28.289 38.185 29.5031 37.7913 29.7874 38.2835C30.1703 38.9288 28.4531 43.6866 28.0156 44.7585ZM40.1562 50.5553C39.8609 50.7085 39.5874 50.8069 39.4562 50.7303C39.3578 50.6757 39.5765 50.4678 39.5765 50.4678C39.5765 50.4678 41.0968 48.8382 41.6984 48.0944C42.0484 47.6569 42.4531 47.1428 42.8906 46.5741C42.8906 46.6288 42.9015 46.6835 42.9015 46.7491C42.8884 48.7069 41.0071 50.0303 40.154 50.5553H40.1562ZM49.5187 48.4225C49.2999 48.2694 49.3328 47.7553 50.0656 46.1585C50.3499 45.535 51.0062 44.485 52.1437 43.4788C52.2728 43.8594 52.3428 44.2575 52.3515 44.66C52.3406 47.121 50.5796 48.0397 49.5187 48.4225Z" fill="url(#paint0_linear_131_1353)"/>
</g>
<defs>
<linearGradient id="paint0_linear_131_1353" x1="72.4515" y1="61.2548" x2="-2.83165" y2="61.2548" gradientUnits="userSpaceOnUse">
<stop stop-color="#4F55F5"/>
<stop offset="0.717342" stop-color="#66C7E5" stop-opacity="0.459065"/>
</linearGradient>
<clipPath id="clip0_131_1353">
<rect width="70" height="70" fill="white"/>
</clipPath>
</defs>
</svg>
