<svg width="400" height="102" viewBox="0 0 400 102" fill="none" xmlns="http://www.w3.org/2000/svg">
<path d="M338.3 75.6C336.3 75.6 334.6 73.9 334.6 71.9V26.4C334.6 24.4 336.2 22.7 338.3 22.7C340.3 22.7 342 24.3 342 26.4V71.9C342 73.9 340.3 75.6 338.3 75.6Z" fill="url(#paint0_linear_359_6)"/>
<path d="M212.4 65.1C210.9 63.9 208.8 64.1 207.5 65.6C204.2 69.7 196 68.7 193.9 67.8C190.8 66.6 189.3 64 189.3 60.2V35.3H205.6C207.6 35.3 209.3 33.7 209.3 31.6C209.3 29.6 207.7 27.9 205.6 27.9H189.3V9.3C189.3 7.4 187.8 5.8 185.8 5.8C183.9 5.8 182.4 7.3 182.4 9.3V60.2C182.4 66.8 185.6 71.9 191.3 74.2C193.1 74.9 195.9 75.5 199 75.5C203.9 75.5 209.5 74.1 212.9 69.9C214.1 68.4 213.9 66.3 212.4 65.1Z" fill="url(#paint1_linear_359_6)"/>
<path d="M155.8 75.8C154.7 75.8 153.5 75.7 152.4 75.6C140.4 74.1 133.2 68.5 133.2 60.8C133.2 58.8 134.8 57.1 136.9 57.1C138.9 57.1 140.6 58.8 140.6 60.8C140.6 64.4 145.6 67.3 153.4 68.3C161.2 69.3 166.7 65.4 167.5 62.4C168 60.6 167.8 59 167 57.7C166.1 56.3 164.6 55.4 162.3 54.9C146.6 52.1 136.2 49.5 134.7 39.6C134.2 36 135.2 32.4 137.6 29.6C141 25.6 146.9 23.3 153.8 23.3C166.4 23.3 174.6 28.9 174.6 37.7C174.6 39.7 172.9 41.4 170.9 41.4C168.9 41.4 167.2 39.7 167.2 37.7C167.2 32.5 160 30.7 153.8 30.7C149.2 30.7 145.2 32.1 143.2 34.4C142.2 35.6 141.7 37 142 38.5C142.6 42.2 145.9 44.5 163.7 47.6H163.8C169.2 48.7 172 51.6 173.3 53.7C175.2 56.7 175.7 60.4 174.7 64.2C172.9 70.3 165.7 75.8 155.8 75.8Z" fill="url(#paint2_linear_359_6)"/>
<path d="M240.6 75.8C226.1 75.8 214.3 64 214.3 49.6C214.3 35.1 226.1 23.4 240.6 23.4C253.8 23.4 265.1 33.3 266.7 46.4C266.9 48.1 266 49.5 265.4 50.2C264.5 51.2 263.3 51.8 262.1 51.8H221.8C222.8 61.2 230.9 68.6 240.6 68.6C247.1 68.6 253.7 65.2 256.5 60.5C257.5 58.7 259.8 58.2 261.5 59.2C263.2 60.2 263.9 62.5 262.8 64.2C258.8 71 249.8 75.8 240.6 75.8ZM222.4 44.3H258.8C256.5 36.4 249.1 30.7 240.6 30.7C232 30.7 224.7 36.4 222.4 44.3Z" fill="url(#paint3_linear_359_6)"/>
<path d="M299.9 23.3C292.5 23.3 285.8 26.4 281 31.3V26.9C281 24.9 279.3 23.2 277.3 23.2C275.3 23.2 273.6 24.8 273.6 26.9V90C273.6 92 275.2 93.7 277.3 93.7C279.3 93.7 281 92 281 90V67.7C285.8 72.7 292.5 75.7 299.9 75.7C314.4 75.7 326.1 63.9 326.1 49.5C326.1 35.1 314.4 23.3 299.9 23.3ZM299.9 68.4C289.5 68.4 281 59.9 281 49.5C281 39.1 289.5 30.6 299.9 30.6C310.3 30.6 318.8 39.1 318.8 49.5C318.8 59.9 310.3 68.4 299.9 68.4Z" fill="url(#paint4_linear_359_6)"/>
<path d="M390.8 75.4C387.2 75.4 383.6 73.8 380.3 70.7C377.8 68.3 361.8 52.2 361.2 51.5C360.5 50.8 360.1 49.9 360.1 48.9C360.1 47.9 360.5 47 361.2 46.3L383.2 24.8C384.7 23.4 387 23.4 388.4 24.9C389.8 26.3 389.8 28.7 388.3 30.1L369 48.9C373.7 53.7 383.5 63.5 385.3 65.3C387.3 67.2 389.2 68.1 391 68C391.5 68 392.7 68 393.7 68C395.7 68 397.4 69.7 397.4 71.7C397.4 73.7 395.7 75.3 393.7 75.4C392.7 75.4 391.7 75.4 391.2 75.4C391.1 75.4 390.9 75.4 390.8 75.4Z" fill="url(#paint5_linear_359_6)"/>
<path d="M355.2 75.5C353.2 75.5 351.5 73.9 351.5 71.8V9.2C351.5 7.2 353.2 5.5 355.2 5.5C357.2 5.5 358.9 7.1 358.9 9.2V71.8C358.9 73.9 357.2 75.5 355.2 75.5Z" fill="url(#paint6_linear_359_6)"/>
<path d="M338.4 15.2C341 15.2 343.1 13.1 343.1 10.5C343.1 7.9 341 5.8 338.4 5.8C335.8 5.8 333.7 7.9 333.7 10.5C333.7 13.1 335.8 15.2 338.4 15.2Z" fill="url(#paint7_linear_359_6)"/>
<path d="M92.8001 27.3L76.4001 10.8C70.0001 4.5 61.6001 1 52.6001 1C43.6001 1 35.2001 4.5 28.9001 10.8L12.5001 27.3C6.1001 33.6 2.6001 42 2.6001 51C2.6001 60 6.1001 68.4 12.4001 74.7L28.8001 91.1C35.1001 97.4 43.6001 100.9 52.5001 100.9C61.2001 100.9 69.5001 97.6 75.8001 91.5L92.6001 74.7C98.9001 68.4 102.4 59.9 102.4 51C102.6 42 99.2001 33.6 92.8001 27.3Z" fill="url(#paint8_linear_359_6)"/>
<path d="M64.7003 79.9C61.6003 82.9 57.3003 84.8 52.7003 84.8C47.9003 84.8 43.6003 82.9 40.4003 79.7L48.5003 71.6C49.6003 72.7 51.0003 73.3 52.7003 73.3C54.3003 73.3 55.8003 72.6 56.9003 71.6L73.3003 55.2C74.4003 54.1 75.0003 52.7 75.0003 51C75.0003 49.4 74.3003 47.9 73.3003 46.8C72.2003 45.7 70.8003 45.1 69.1003 45.1C67.4003 45.1 66.0003 45.8 64.9003 46.8L48.5003 63.3C45.4003 66.4 41.0003 68.4 36.2003 68.4C31.4003 68.4 27.1003 66.4 23.9003 63.3C20.8003 60.2 18.8003 55.8 18.8003 51C18.8003 46.2 20.7003 41.9 23.9003 38.7L40.3003 22.3C43.4003 19.2 47.8003 17.2 52.6003 17.2C57.4003 17.2 61.7003 19.1 64.9003 22.3L56.8003 30.4C55.7003 29.3 54.3003 28.7 52.6003 28.7C50.9003 28.7 49.5003 29.4 48.4003 30.4L32.0003 46.8C30.9003 47.9 30.3003 49.3 30.3003 51C30.3003 52.6 31.0003 54.1 32.0003 55.2C33.1003 56.3 34.5003 56.9 36.2003 56.9C37.8003 56.9 39.3003 56.2 40.4003 55.2L56.8003 38.8C59.9003 35.7 64.3003 33.7 69.1003 33.7C73.9003 33.7 78.2003 35.6 81.4003 38.8C84.5003 41.9 86.5003 46.3 86.5003 51.1C86.5003 55.9 84.6003 60.2 81.4003 63.4L64.7003 79.9Z" fill="white"/>
<defs>
<linearGradient id="paint0_linear_359_6" x1="342.259" y1="75.6" x2="334.301" y2="75.6" gradientUnits="userSpaceOnUse">
<stop stop-color="#4F55F5"/>
<stop offset="0.717342" stop-color="#66C7E5" stop-opacity="0.459065"/>
</linearGradient>
<linearGradient id="paint1_linear_359_6" x1="214.772" y1="75.5" x2="181.135" y2="75.5" gradientUnits="userSpaceOnUse">
<stop stop-color="#4F55F5"/>
<stop offset="0.717342" stop-color="#66C7E5" stop-opacity="0.459065"/>
</linearGradient>
<linearGradient id="paint2_linear_359_6" x1="176.671" y1="75.8" x2="131.502" y2="75.8" gradientUnits="userSpaceOnUse">
<stop stop-color="#4F55F5"/>
<stop offset="0.717342" stop-color="#66C7E5" stop-opacity="0.459065"/>
</linearGradient>
<linearGradient id="paint3_linear_359_6" x1="268.56" y1="75.8" x2="212.18" y2="75.8" gradientUnits="userSpaceOnUse">
<stop stop-color="#4F55F5"/>
<stop offset="0.717342" stop-color="#66C7E5" stop-opacity="0.459065"/>
</linearGradient>
<linearGradient id="paint4_linear_359_6" x1="327.934" y1="93.7" x2="271.477" y2="93.7" gradientUnits="userSpaceOnUse">
<stop stop-color="#4F55F5"/>
<stop offset="0.717342" stop-color="#66C7E5" stop-opacity="0.459065"/>
</linearGradient>
<linearGradient id="paint5_linear_359_6" x1="398.703" y1="75.4" x2="358.592" y2="75.4" gradientUnits="userSpaceOnUse">
<stop stop-color="#4F55F5"/>
<stop offset="0.717342" stop-color="#66C7E5" stop-opacity="0.459065"/>
</linearGradient>
<linearGradient id="paint6_linear_359_6" x1="359.158" y1="75.5" x2="351.201" y2="75.5" gradientUnits="userSpaceOnUse">
<stop stop-color="#4F55F5"/>
<stop offset="0.717342" stop-color="#66C7E5" stop-opacity="0.459065"/>
</linearGradient>
<linearGradient id="paint7_linear_359_6" x1="343.428" y1="15.2" x2="333.32" y2="15.2" gradientUnits="userSpaceOnUse">
<stop stop-color="#4F55F5"/>
<stop offset="0.717342" stop-color="#66C7E5" stop-opacity="0.459065"/>
</linearGradient>
<linearGradient id="paint8_linear_359_6" x1="105.894" y1="100.9" x2="-1.43627" y2="100.9" gradientUnits="userSpaceOnUse">
<stop stop-color="#4F55F5"/>
<stop offset="0.717342" stop-color="#66C7E5" stop-opacity="0.459065"/>
</linearGradient>
</defs>
</svg>
