<svg width="186" height="24" viewBox="0 0 186 24" fill="none" xmlns="http://www.w3.org/2000/svg">
<g clip-path="url(#clip0_359_20)">
<path d="M74.8442 13.2043C75.3568 11 77.004 10.0402 78.8973 10.0402C80.7905 10.0402 82.6462 10.9932 82.8957 13.2043H74.8442ZM85.4348 20.1701L85.7048 17.1363C81.2553 19.5805 75.7601 19.9233 74.9262 15.6451H86.1628V14.291C86.0261 9.68364 82.5164 7.40739 78.8973 7.40739C75.1962 7.40739 71.5771 9.76591 71.5771 14.5618C71.5771 21.8225 79.3552 23.3103 85.4348 20.1701Z" fill="url(#paint0_linear_359_20)"/>
<path d="M58.4985 13.2043C59.0111 11 60.6583 10.0402 62.5516 10.0402C64.4414 10.0402 66.3005 10.9932 66.55 13.2043H58.4985ZM69.0857 20.1701L69.3557 17.1363C64.9062 19.5805 59.411 19.9233 58.5771 15.6451H69.8136V14.291C69.6769 9.68364 66.1672 7.40739 62.5482 7.40739C58.8471 7.40739 55.228 9.76591 55.228 14.5618C55.228 21.8225 63.0095 23.3103 69.0857 20.1701Z" fill="url(#paint1_linear_359_20)"/>
<path d="M91.6719 1.77164H88.5654V21.3357H91.6719V15.3194C92.8611 15.3194 93.7804 15.3194 94.7236 16.1867C96.0462 17.5408 97.0202 19.2754 97.9121 21.3357H101.476C100.612 18.5727 97.8848 14.2636 94.9936 14.2636V13.8556C97.3722 13.8556 100.287 10.1156 101.07 7.78792H97.8028C97.0475 9.41283 96.0462 10.904 94.669 12.1244C93.7497 12.9917 92.6424 12.9643 91.6719 12.9643V1.77164Z" fill="url(#paint2_linear_359_20)"/>
<path d="M107.402 10.7395V5.70021H111.995C114.452 5.70021 115.399 6.94803 115.399 8.21985C115.399 9.46767 114.452 10.7395 111.995 10.7395H107.402ZM107.402 18.487V13.4477H112.751C115.208 13.4477 116.154 14.6955 116.154 15.9673C116.154 17.2151 115.156 18.487 112.696 18.487H107.402ZM112.669 2.8549H104.159V21.3323H113.478C117.449 21.3323 119.449 19.0834 119.449 16.3753C119.449 13.9893 117.719 12.2856 114.777 12.0936V11.6617C117.586 11.1474 118.639 9.3854 118.639 7.54452C118.639 5.04887 116.694 2.8549 112.669 2.8549Z" fill="url(#paint3_linear_359_20)"/>
<path d="M121.837 7.78449V21.3323H124.944V12.2307C126.106 11.0652 127.616 10.6607 130.077 10.6607H131.321L131.078 7.54453H130.08C128.026 7.54453 126.082 8.43926 125.327 10.3076H124.947V7.78449H121.837Z" fill="url(#paint4_linear_359_20)"/>
<path d="M135.107 14.5584C135.107 11.5794 136.792 10.0607 139.061 10.0607C140.897 10.0607 142.178 10.6298 143.313 11.7953V17.3214C142.178 18.487 140.897 19.056 139.061 19.056C136.796 19.056 135.107 17.5408 135.107 14.5584ZM143.316 7.78449V9.76249H142.964C141.747 8.16501 140.333 7.35255 138.251 7.35255C134.01 7.35255 131.892 10.7943 131.892 14.5584C131.892 18.3224 134.01 21.7642 138.251 21.7642C140.333 21.7642 141.747 20.9518 142.964 19.3543H143.316V21.3323H146.423V7.78449H143.316Z" fill="url(#paint5_linear_359_20)"/>
<path d="M150.161 21.3323H153.268V7.78449H150.161V21.3323ZM151.73 6.05331C153.025 6.05331 153.89 5.18602 153.89 3.88677C153.89 2.58753 153.025 1.72021 151.73 1.72021C150.435 1.72021 149.57 2.58753 149.57 3.88677C149.567 5.18602 150.431 6.05331 151.73 6.05331Z" fill="url(#paint6_linear_359_20)"/>
<path d="M160.116 7.78449H157.01V21.3323H160.116V11.7953C161.251 10.6846 162.505 10.0607 164.015 10.0607C165.663 10.0607 167.214 10.9829 167.214 13.7459V21.3323H170.321V13.0432C170.321 9.54653 168.687 7.35255 165.314 7.35255C163.479 7.35255 161.63 8.13758 160.414 9.87219H160.116V7.78449Z" fill="url(#paint7_linear_359_20)"/>
<path d="M172.928 11.7165C172.928 14.1264 175.17 15.076 176.899 15.4565L180.87 16.2964C182.165 16.5672 182.76 16.9478 182.76 17.5957C182.76 18.5727 181.41 19.032 179.438 19.032C177.115 19.032 174.442 18.1373 172.955 17.3248L173.225 20.3861C174.955 21.2808 177.197 21.7676 179.274 21.7676C183.136 21.7676 186 20.4958 186 17.4585C186 14.9937 183.946 14.0716 181.544 13.5574L177.924 12.7998C176.79 12.5564 176.168 12.1759 176.168 11.528C176.168 10.6058 177.384 10.119 179.329 10.119C181.516 10.119 183.867 10.9315 185.108 11.6102L184.838 8.54895C183.351 7.79135 181.434 7.35598 179.49 7.35598C175.956 7.35255 172.928 8.60037 172.928 11.7165Z" fill="url(#paint8_linear_359_20)"/>
<path d="M43.9199 11.1269V14.099H49.6817V17.4277C48.1268 18.3293 46.5206 18.7406 44.993 18.7406C41.3398 18.7406 38.018 16.3616 38.018 12.1244C38.018 7.88734 41.3432 5.50825 44.993 5.50825C47.3374 5.50825 49.8321 6.45783 52.0944 8.3707L51.7595 4.58953C49.5724 3.15316 47.1665 2.4744 44.6273 2.4744C39.549 2.4744 34.5801 5.88877 34.5801 12.121C34.5801 18.3533 39.549 21.7676 44.6273 21.7676C47.1665 21.7676 49.815 21.1986 52.8121 18.9772V11.1269H43.9199Z" fill="url(#paint9_linear_359_20)"/>
<path d="M16.7259 8.64817C16.8597 8.64817 17.0174 8.62074 17.1511 8.59674L17.2025 8.67559C17.1511 9.04585 17.3362 9.23441 17.5213 9.44697C18.399 10.4035 19.7772 11.12 21.4502 10.2183C22.1667 10.8834 22.1667 13.1118 21.4502 13.7769C19.7772 12.8753 18.399 13.5918 17.5213 14.5483C17.3362 14.7609 17.1511 14.946 17.2025 15.3197L17.1511 15.3985C17.0174 15.3711 16.8597 15.3471 16.7259 15.3471C15.742 15.3471 14.9741 16.1425 14.9741 17.099C14.9741 18.0555 15.7454 18.8234 16.7259 18.8234C17.655 18.8234 18.4504 18.0521 18.4504 17.099C18.4504 16.8076 18.3715 16.5402 18.2378 16.3036L18.3167 16.2248C18.5567 16.2762 18.6869 16.1459 18.9269 15.9059C19.4035 15.4294 19.9349 15.0283 20.6274 15.4808C21.5839 16.1185 21.0799 17.3115 20.336 18.3229C19.2492 19.8108 17.6824 21.0039 16.3797 21.4564C15.3169 21.8267 14.309 21.7204 13.6199 21.4838V23.4483C16.7259 24.3259 19.592 22.4918 21.769 19.5982C22.8318 18.1926 23.7849 16.4648 22.6981 14.7403L22.7769 14.634C23.0683 14.6615 23.2809 14.4763 23.442 14.1815C24.186 12.9061 24.186 11.1028 23.442 9.82751C23.2843 9.56353 23.1232 9.35097 22.7769 9.37497L22.6981 9.26869C23.7849 7.54425 22.8318 5.79237 21.769 4.41075C19.808 1.79837 17.391 0.365329 15.2141 0.365329C12.5845 0.365329 10.5961 2.43604 10.5961 5.01071V6.94772C10.5961 8.30191 11.1275 8.991 12.0291 9.97493L12.8005 10.7977C13.0405 11.0617 13.1982 11.2503 13.5719 11.2503L13.6507 11.3291C13.5719 11.5142 13.517 11.7542 13.517 11.9668C13.517 12.9233 14.3124 13.7187 15.2415 13.7187C16.2254 13.7187 16.9934 12.9233 16.9934 11.9668C16.9934 11.0103 16.222 10.2423 15.2415 10.2423C15.0564 10.2423 14.8438 10.2698 14.6827 10.3486L14.6038 10.2698C14.6038 9.89951 14.4187 9.73837 14.1787 9.49839L13.3833 8.67559C12.8245 8.09278 12.5331 7.56139 12.5331 6.76259V5.01071C12.5331 4.00278 12.8794 3.20398 13.5685 2.72745C14.285 2.22348 15.3203 2.16863 16.3831 2.54232C17.895 3.07371 19.4343 4.4279 20.3394 5.67581C21.0833 6.68374 21.5873 7.88022 20.6308 8.51789C20.072 8.88815 19.544 8.73045 18.9304 8.09278C18.6904 7.8288 18.5327 7.74652 18.3201 7.77394L18.2413 7.69509C18.375 7.45511 18.4538 7.19113 18.4538 6.89972C18.4538 5.94322 17.6585 5.17527 16.7294 5.17527C15.7454 5.17527 14.9775 5.94664 14.9775 6.89972C14.9775 7.85279 15.7454 8.64817 16.7259 8.64817ZM7.27748 15.3368C7.14377 15.3368 6.98607 15.3643 6.85237 15.3883L6.80094 15.3094C6.85237 14.9391 6.66724 14.7506 6.48211 14.538C5.60446 13.5815 4.22627 12.865 2.55325 13.7667C1.83673 13.1016 1.83673 10.8732 2.55325 10.2081C4.22627 11.1097 5.60446 10.3932 6.48211 9.43668C6.66724 9.22412 6.85237 9.039 6.80094 8.66531L6.85237 8.58646C6.98607 8.61388 7.14377 8.63788 7.27748 8.63788C8.26141 8.63788 9.02935 7.84251 9.02935 6.88601C9.02935 5.9295 8.25798 5.16156 7.27748 5.16156C6.3484 5.16156 5.55303 5.93293 5.55303 6.88601C5.55303 7.17741 5.63188 7.44482 5.76559 7.68138L5.68674 7.76023C5.44675 7.70881 5.31648 7.83908 5.07649 8.07906C4.59996 8.5556 4.06857 8.95672 3.37604 8.50418C2.41954 7.86651 2.9235 6.67345 3.66745 5.66209C4.75423 4.1742 6.32098 2.98114 7.62374 2.5286C8.68652 2.15834 9.69445 2.26462 10.3835 2.50118V0.550459C7.27748 -0.323765 4.40797 1.50696 2.23098 4.40047C1.1682 5.80608 0.215127 7.53396 1.30191 9.25841L1.22306 9.36469C0.931648 9.33726 0.719091 9.52239 0.55796 9.81723C-0.185987 11.0926 -0.185987 12.8959 0.55796 14.1712C0.715663 14.4352 0.876794 14.6477 1.22306 14.6237L1.30191 14.73C0.215127 16.451 1.17163 18.2063 2.23098 19.5845C4.19541 22.1866 6.61238 23.6197 8.78937 23.6197C11.4189 23.6197 13.4073 21.549 13.4073 18.9743V17.0373C13.4073 15.6831 12.8759 14.994 11.9743 14.0101L11.2029 13.1873C10.9629 12.9233 10.8052 12.7347 10.4315 12.7347L10.3527 12.6559C10.4315 12.4708 10.4864 12.2308 10.4864 12.0182C10.4864 11.0617 9.69102 10.2663 8.76194 10.2663C7.77801 10.2663 7.01007 11.0617 7.01007 12.0182C7.01007 12.9747 7.78144 13.7427 8.76194 13.7427C8.94707 13.7427 9.15963 13.7152 9.32076 13.6364L9.39961 13.7152C9.39961 14.0855 9.58474 14.2466 9.82473 14.4866L10.6201 15.3094C11.1789 15.8922 11.4703 16.4236 11.4703 17.2224V18.9743C11.4703 19.9822 11.1241 20.781 10.435 21.2576C9.71845 21.7615 8.68309 21.8164 7.62031 21.4427C6.10842 20.9113 4.5691 19.5571 3.66402 18.3092C2.92008 17.3013 2.41611 16.1048 3.37262 15.4671C3.93143 15.0968 4.4594 15.2546 5.07307 15.8922C5.31305 16.1562 5.47075 16.2385 5.68331 16.2111L5.76216 16.2899C5.62845 16.5299 5.5496 16.7939 5.5496 17.0853C5.5496 18.0418 6.34497 18.8097 7.27405 18.8097C8.25798 18.8097 9.02593 18.0384 9.02593 17.0853C9.02935 16.1356 8.25798 15.3368 7.27748 15.3368Z" fill="url(#paint10_linear_359_20)"/>
</g>
<defs>
<linearGradient id="paint0_linear_359_20" x1="86.6723" y1="21.726" x2="70.9873" y2="21.726" gradientUnits="userSpaceOnUse">
<stop stop-color="#4F55F5"/>
<stop offset="0.717342" stop-color="#66C7E5" stop-opacity="0.459065"/>
</linearGradient>
<linearGradient id="paint1_linear_359_20" x1="70.323" y1="21.726" x2="54.6382" y2="21.726" gradientUnits="userSpaceOnUse">
<stop stop-color="#4F55F5"/>
<stop offset="0.717342" stop-color="#66C7E5" stop-opacity="0.459065"/>
</linearGradient>
<linearGradient id="paint2_linear_359_20" x1="101.927" y1="21.3357" x2="88.0433" y2="21.3357" gradientUnits="userSpaceOnUse">
<stop stop-color="#4F55F5"/>
<stop offset="0.717342" stop-color="#66C7E5" stop-opacity="0.459065"/>
</linearGradient>
<linearGradient id="paint3_linear_359_20" x1="119.983" y1="21.3323" x2="103.541" y2="21.3323" gradientUnits="userSpaceOnUse">
<stop stop-color="#4F55F5"/>
<stop offset="0.717342" stop-color="#66C7E5" stop-opacity="0.459065"/>
</linearGradient>
<linearGradient id="paint4_linear_359_20" x1="131.652" y1="21.3323" x2="121.453" y2="21.3323" gradientUnits="userSpaceOnUse">
<stop stop-color="#4F55F5"/>
<stop offset="0.717342" stop-color="#66C7E5" stop-opacity="0.459065"/>
</linearGradient>
<linearGradient id="paint5_linear_359_20" x1="146.931" y1="21.7642" x2="131.304" y2="21.7642" gradientUnits="userSpaceOnUse">
<stop stop-color="#4F55F5"/>
<stop offset="0.717342" stop-color="#66C7E5" stop-opacity="0.459065"/>
</linearGradient>
<linearGradient id="paint6_linear_359_20" x1="154.041" y1="21.3323" x2="149.395" y2="21.3323" gradientUnits="userSpaceOnUse">
<stop stop-color="#4F55F5"/>
<stop offset="0.717342" stop-color="#66C7E5" stop-opacity="0.459065"/>
</linearGradient>
<linearGradient id="paint7_linear_359_20" x1="170.786" y1="21.3323" x2="156.471" y2="21.3323" gradientUnits="userSpaceOnUse">
<stop stop-color="#4F55F5"/>
<stop offset="0.717342" stop-color="#66C7E5" stop-opacity="0.459065"/>
</linearGradient>
<linearGradient id="paint8_linear_359_20" x1="186.457" y1="21.7676" x2="172.4" y2="21.7676" gradientUnits="userSpaceOnUse">
<stop stop-color="#4F55F5"/>
<stop offset="0.717342" stop-color="#66C7E5" stop-opacity="0.459065"/>
</linearGradient>
<linearGradient id="paint9_linear_359_20" x1="53.4489" y1="21.7676" x2="33.8428" y2="21.7676" gradientUnits="userSpaceOnUse">
<stop stop-color="#4F55F5"/>
<stop offset="0.717342" stop-color="#66C7E5" stop-opacity="0.459065"/>
</linearGradient>
<linearGradient id="paint10_linear_359_20" x1="24.8382" y1="23.6689" x2="-0.970588" y2="23.6689" gradientUnits="userSpaceOnUse">
<stop stop-color="#4F55F5"/>
<stop offset="0.717342" stop-color="#66C7E5" stop-opacity="0.459065"/>
</linearGradient>
<clipPath id="clip0_359_20">
<rect width="186" height="24" fill="white"/>
</clipPath>
</defs>
</svg>
