<svg width="70" height="66" viewBox="0 0 70 66" fill="none" xmlns="http://www.w3.org/2000/svg">
<path d="M35 25.1419C33.3517 25.1425 31.7407 25.6038 30.3705 26.4676C29.0004 27.3315 27.9326 28.5589 27.3023 29.9949C26.6719 31.4308 26.5073 33.0107 26.8293 34.5348C27.1512 36.059 27.9452 37.4589 29.1109 38.5576C30.2766 39.6563 31.7617 40.4044 33.3783 40.7074C34.9949 41.0103 36.6705 40.8545 38.1933 40.2597C39.716 39.6648 41.0175 38.6576 41.9331 37.3654C42.8488 36.0732 43.3375 34.5541 43.3375 33C43.3358 30.9159 42.4568 28.9176 40.8935 27.4442C39.3302 25.9707 37.2104 25.1427 35 25.1419V25.1419ZM54.4859 19.1017C54.0616 18.0879 53.4209 17.1671 52.6036 16.3964C51.7862 15.6258 50.8096 15.0217 49.7344 14.6217C46.4531 13.4004 38.6406 13.6744 35 13.6744C31.3594 13.6744 23.5547 13.39 20.2641 14.6217C19.1888 15.0217 18.2122 15.6258 17.3949 16.3964C16.5775 17.1671 15.9368 18.0879 15.5125 19.1017C14.2187 22.1954 14.5078 29.5689 14.5078 32.9985C14.5078 36.4282 14.2188 43.7928 15.5187 46.8968C15.943 47.9106 16.5837 48.8314 17.4011 49.6021C18.2185 50.3727 19.1951 50.9768 20.2703 51.3769C23.5516 52.5982 31.3641 52.3242 35.0062 52.3242C38.6484 52.3242 46.45 52.6085 49.7406 51.3769C50.8159 50.9768 51.7925 50.3727 52.6098 49.6021C53.4272 48.8314 54.0679 47.9106 54.4922 46.8968C55.7969 43.8031 55.4969 36.4296 55.4969 33C55.4969 29.5704 55.7969 22.2072 54.4922 19.1032L54.4859 19.1017ZM35 45.0804C32.4659 45.0804 29.9888 44.3719 27.8818 43.0445C25.7748 41.717 24.1325 39.8303 23.1628 37.623C22.193 35.4156 21.9393 32.9866 22.4337 30.6432C22.9281 28.2999 24.1483 26.1474 25.9402 24.4579C27.7321 22.7684 30.015 21.6179 32.5004 21.1518C34.9858 20.6856 37.562 20.9249 39.9031 21.8392C42.2443 22.7535 44.2453 24.3019 45.6532 26.2885C47.0611 28.2751 47.8125 30.6107 47.8125 33C47.8146 34.587 47.4846 36.1587 46.8414 37.6252C46.1982 39.0918 45.2546 40.4243 44.0644 41.5464C42.8742 42.6686 41.461 43.5583 39.9056 44.1647C38.3501 44.7712 36.6831 45.0823 35 45.0804V45.0804ZM48.3406 23.2326C47.7491 23.2329 47.1707 23.0678 46.6787 22.7581C46.1867 22.4484 45.8031 22.0082 45.5765 21.4929C45.3499 20.9777 45.2905 20.4107 45.4057 19.8637C45.5209 19.3166 45.8056 18.814 46.2238 18.4195C46.642 18.025 47.1749 17.7563 47.755 17.6474C48.3352 17.5385 48.9366 17.5942 49.4832 17.8076C50.0297 18.021 50.4969 18.3824 50.8256 18.8461C51.1543 19.3099 51.3297 19.8551 51.3297 20.4129C51.3313 20.7832 51.2554 21.1503 51.1063 21.4929C50.9571 21.8356 50.7377 22.1471 50.4606 22.4096C50.1834 22.6722 49.8541 22.8805 49.4914 23.0227C49.1286 23.165 48.7397 23.2383 48.3469 23.2385L48.3406 23.2326ZM62.5 0H7.5C5.51088 0 3.60322 0.745024 2.1967 2.07117C0.790176 3.39732 0 5.19597 0 7.07143L0 58.9286C0 60.804 0.790176 62.6027 2.1967 63.9288C3.60322 65.255 5.51088 66 7.5 66H62.5C64.4891 66 66.3968 65.255 67.8033 63.9288C69.2098 62.6027 70 60.804 70 58.9286V7.07143C70 5.19597 69.2098 3.39732 67.8033 2.07117C66.3968 0.745024 64.4891 0 62.5 0V0ZM59.825 42.7232C59.6234 46.4991 58.7094 49.8447 55.7859 52.5938C52.8625 55.3428 49.3172 56.2223 45.3172 56.402C41.1906 56.6215 28.8187 56.6215 24.6922 56.402C20.6875 56.212 17.1516 55.3487 14.2234 52.5938C11.2953 49.8388 10.375 46.4917 10.1844 42.7232C9.95156 38.831 9.95156 27.1646 10.1844 23.2768C10.3859 19.5009 11.2891 16.1553 14.2234 13.4063C17.1578 10.6572 20.7031 9.78804 24.6922 9.6083C28.8187 9.3888 41.1906 9.3888 45.3172 9.6083C49.3219 9.79835 52.8687 10.6617 55.7859 13.4166C58.7031 16.1715 59.6344 19.5186 59.825 23.2945C60.0578 27.172 60.0578 38.828 59.825 42.7232Z" fill="url(#paint0_linear_131_478)"/>
<defs>
<linearGradient id="paint0_linear_131_478" x1="72.4449" y1="66" x2="-2.83088" y2="66" gradientUnits="userSpaceOnUse">
<stop stop-color="#4F55F5"/>
<stop offset="0.717342" stop-color="#66C7E5" stop-opacity="0.459065"/>
</linearGradient>
</defs>
</svg>
