<svg width="157" height="216" viewBox="0 0 157 216" fill="none" xmlns="http://www.w3.org/2000/svg">
<path fill-rule="evenodd" clip-rule="evenodd" d="M103.884 28.8633H104.122C105.177 29.1198 106.179 29.479 107.208 29.7869C108.658 30.2744 110.214 30.6849 111.427 31.6342C113.062 32.9426 114.487 34.482 115.884 36.0214C116.174 36.3549 116.544 36.6371 116.939 36.868C117.256 35.7905 117.071 34.6359 117.308 33.5327C118.311 33.9689 119.155 34.6616 119.999 35.3287C121.133 36.2523 122.267 37.2272 123.137 38.4074C123.427 38.8179 123.77 39.2284 124.166 39.5363C124.245 38.4331 124.007 37.3042 124.166 36.201C126.038 37.7147 127.963 39.1771 129.651 40.8961C131.365 42.5381 132.71 44.4879 133.897 46.5148C134.688 47.9002 135.453 49.3626 135.875 50.902C136.139 51.723 135.981 52.6723 136.561 53.365C137.405 52.0822 137.537 50.5172 138.381 49.2343C140.069 51.2099 141.203 53.5189 142.258 55.8537C143.497 58.6502 144.025 61.652 144.737 64.6024C145 65.68 145.264 66.7576 145.528 67.8608C145.739 68.6561 145.95 69.5541 146.636 70.0929C147.321 69.3488 147.295 68.143 148.192 67.5529C148.508 67.5786 148.614 67.9121 148.693 68.143C149.326 70.0672 149.879 72.0171 150.09 74.0183C150.381 76.6865 150.46 79.3804 150.46 82.0743C150.486 83.5881 150.407 85.1018 150.17 86.6155C149.985 87.77 149.906 88.9246 149.457 90.0278C149.273 90.4126 149.273 90.8488 149.352 91.2849C150.143 90.9257 150.855 90.4126 151.409 89.7456C151.726 89.3607 152.016 89.0015 152.385 88.668C152.57 90.3357 152.385 92.0033 152.332 93.6966C152.2 95.9287 152.042 98.1865 151.699 100.419C151.013 104.524 149.959 108.654 147.981 112.349C147.532 113.195 146.715 113.785 146.214 114.606C147.374 114.427 148.429 113.939 149.378 113.272C149.774 112.99 150.196 112.785 150.671 112.682C149.668 115.684 148.93 118.788 147.664 121.713C147.216 122.611 146.978 123.612 146.451 124.458C145.66 125.793 144.869 127.101 144.025 128.384C143.603 129.025 142.943 129.461 142.495 130.077C141.967 130.924 141.229 131.591 140.702 132.438C139.831 133.772 138.671 134.901 137.88 136.286C137.695 136.62 137.642 136.979 137.563 137.338C137.906 137.364 138.249 137.364 138.618 137.389C138.565 138.185 138.143 138.852 137.8 139.57C137.273 140.904 136.429 142.059 135.48 143.136C134.688 144.188 133.607 145.009 132.658 145.907C131.708 146.728 130.812 147.652 129.757 148.344C129.308 148.652 128.728 148.935 128.623 149.525C128.253 151.09 127.251 152.424 126.17 153.604C125.722 154.091 125.089 154.399 124.64 154.887C124.377 155.58 124.719 156.477 124.139 157.068C122.794 158.684 120.632 159.223 118.654 159.685C117.467 159.992 116.254 159.967 115.04 159.89C114.935 160.634 115.014 161.429 114.698 162.122C114.144 163.02 113.062 163.251 112.139 163.584C112.087 164.354 112.377 165.226 111.849 165.893C110.9 167.125 109.238 167.612 107.735 167.433C106.865 167.356 106.073 166.945 105.256 166.663C105.124 167.176 105.203 167.715 105.019 168.228C104.623 168.767 103.832 168.715 103.225 168.613C102.302 168.433 101.564 167.792 100.72 167.433C100.825 167.843 101.036 168.254 101.036 168.715C100.852 169.254 100.192 169.357 99.6911 169.434C99.0054 169.562 98.267 169.46 97.6604 169.793C95.8143 171.153 93.7572 172.282 91.5418 173C89.722 173.744 87.7441 173.949 85.8452 174.334C84.1837 174.642 82.4958 174.796 80.8079 174.899H78.5134C76.8519 174.796 75.164 174.719 73.5025 174.539C71.2871 174.334 69.2037 173.488 67.0938 172.846C65.6433 172.436 64.2982 171.794 62.9268 171.23C62.0301 170.845 61.3444 170.152 60.4741 169.716C59.6038 169.485 58.628 169.844 57.8368 169.383C57.2302 168.972 57.4676 168.151 57.3357 167.535C56.4917 168.151 55.5423 168.639 54.5401 168.946C54.1182 169.1 53.5379 168.921 53.3797 168.485C53.2215 167.971 53.2478 167.407 53.0632 166.894C51.6918 167.638 50.083 168.1 48.527 167.689C47.393 167.407 46.4699 166.432 46.2853 165.278C46.1798 164.841 46.4435 164.457 46.6018 164.072C46.1798 163.918 45.7578 163.841 45.3359 163.738C44.5183 163.533 43.859 162.892 43.5425 162.148C43.3579 161.686 43.4897 161.198 43.4897 160.711C43.2787 160.326 42.7777 160.454 42.4084 160.48C41.0107 160.711 39.5865 160.531 38.2415 160.172C37.0283 159.941 35.9734 159.3 35.0767 158.53C34.6283 158.145 34.1536 157.658 34.0745 157.042C33.969 156.606 34.0481 156.093 33.7316 155.759C33.336 155.323 32.8349 154.989 32.3866 154.579C31.5427 153.861 30.9361 152.886 30.0394 152.193C29.4328 151.731 28.7735 151.398 28.1932 150.936C27.3757 150.269 26.3999 149.781 25.6878 149.011C24.5801 147.806 23.4988 146.6 22.4175 145.368C21.5999 144.342 20.6769 143.393 20.0439 142.238C19.5164 141.289 18.8044 140.417 18.5143 139.339C18.7516 139.236 18.989 139.16 19.2263 139.006C19.1472 138.698 19.0154 138.415 18.8307 138.159C17.5121 136.106 15.9033 134.233 14.2154 132.463C12.3165 130.513 10.8924 128.179 9.70559 125.767C8.20232 122.637 7.12102 119.353 6.17158 116.018C6.06608 115.581 6.01334 115.145 5.98697 114.709C7.30563 115.53 8.70341 116.428 10.2858 116.633C9.89021 115.71 8.88802 115.274 8.43968 114.376C7.54299 112.785 6.83091 111.092 6.2507 109.373C5.4595 107.089 4.87929 104.729 4.56281 102.343C4.32545 100.213 4.00897 98.0582 3.90348 95.9031C3.85073 94.3124 3.69249 92.7473 3.79799 91.1567C4.29908 91.5158 4.61556 92.0803 4.95841 92.5934C5.59137 93.1065 6.46168 93.2861 7.27925 93.2861C7.12102 92.6191 6.88366 91.9777 6.69904 91.3106C6.01334 88.5397 5.8551 85.6919 5.77598 82.844C5.8551 80.2014 6.03971 77.5332 6.40894 74.9162C6.61992 73.3256 7.09464 71.7605 7.54299 70.2212C7.67485 69.785 7.85947 69.3745 8.07045 68.964C8.86165 69.8363 9.17813 70.9908 9.83746 71.9401C10.0221 71.5553 10.2067 71.1448 10.3386 70.7343C11.7363 66.501 12.3957 62.0625 13.9517 57.8548C14.4792 56.2642 15.4286 54.8531 16.2198 53.3907C16.7473 52.4927 17.3011 51.6204 18.145 50.979C18.9099 52.1848 19.1208 53.6729 20.0703 54.7504C20.3604 53.9807 20.4659 53.1341 20.6769 52.3388C21.3362 50.0297 22.4175 47.8489 23.7362 45.8477C25.1076 43.9492 26.8218 42.3328 28.5097 40.7165C29.1691 40.0751 29.8284 39.4593 30.5932 38.9462C31.3317 38.4331 31.9119 37.7147 32.7031 37.2785C32.7294 38.4074 32.5185 39.5363 32.6503 40.6652C33.5206 39.9724 33.7053 38.7666 34.6283 38.0995C36.2635 36.7141 37.8722 35.2517 39.7184 34.1741C39.8239 35.3287 39.692 36.4832 39.8502 37.6377C40.7205 37.4581 41.037 36.6115 41.6172 36.047C43.1205 34.482 44.7293 33.0196 46.4172 31.6855C47.3666 30.8901 48.6325 30.7105 49.7666 30.3C50.9006 29.9665 52.0083 29.479 53.2215 29.2994C52.694 30.0435 51.8237 30.454 51.2962 31.1723C51.0852 31.4289 51.1644 31.7624 51.2171 32.0703C52.0347 31.6855 52.8786 31.4032 53.7226 31.0954C55.5423 30.2487 57.5203 29.7356 59.5247 29.6843C61.028 29.6843 62.5049 29.6843 64.0081 29.7356C64.9576 29.7869 65.9598 29.7356 66.8828 30.0178C65.9861 30.6849 64.8784 30.9414 63.8499 31.3519C61.5554 32.1729 59.2873 33.0709 56.8873 33.5071C56.6236 33.584 56.228 33.661 56.2808 34.0202C57.5467 34.3537 58.8917 34.0715 60.2104 34.2511C60.0785 34.5846 59.8675 34.8668 59.551 35.0208C58.1269 35.7905 56.7819 36.7141 55.305 37.4068C53.6962 38.0226 52.1665 38.8949 50.5314 39.485C48.4215 40.229 46.2589 40.8704 44.0963 41.4092C44.2809 41.5888 44.4655 41.8197 44.782 41.8453C45.7842 41.9993 46.8128 41.9736 47.8149 42.1276C48.0523 42.1532 48.2897 42.2558 48.4743 42.4098C47.8149 43.0768 46.971 43.59 46.2062 44.1287C44.5447 45.2833 42.8304 46.4122 41.0634 47.4128C39.4019 48.5416 37.6349 49.5422 35.8942 50.5428C34.3118 51.4664 32.6503 52.3131 30.9624 53.0315C30.1449 53.3907 29.2482 53.5446 28.457 53.9551C29.802 54.5195 31.2789 54.3913 32.6503 54.8018C31.8064 56.1102 30.9097 57.3674 29.9339 58.5989C28.5625 60.2665 27.0065 61.7803 25.4504 63.294C23.7625 64.9616 21.8637 66.424 20.2549 68.143C19.8857 68.5535 19.4637 68.964 19.3055 69.5284C19.7274 70.0929 20.3868 69.2206 20.8879 69.5284C21.2043 69.8876 21.2043 70.4008 21.2307 70.8626C21.3889 73.8643 20.6241 76.7892 19.912 79.6883C19.1736 82.1 18.4088 84.486 17.4593 86.8207C17.1165 87.847 16.6418 88.8219 16.5099 89.8995C17.3538 89.8482 18.0659 89.412 18.8571 89.1811C19.2791 92.6447 19.1472 96.2109 18.1714 99.5719C17.7758 100.957 17.3802 102.343 17.1165 103.754C16.8 105.216 16.4835 106.833 17.0901 108.244C17.5385 107.474 17.7758 106.602 18.2505 105.858C19.0154 107.859 19.7802 109.886 20.9933 111.656C22.523 113.837 24.2373 115.889 25.9515 117.942L26.0834 117.89L26.1625 118.044C26.2153 116.505 26.2416 114.94 26.2416 113.401C26.2416 108.808 26.2153 104.216 26.057 99.6489C26.901 98.4943 26.3471 96.9037 27.1383 95.7235C27.6658 97.0063 27.1911 98.4943 27.9295 99.7515C28.4306 99.5206 28.3515 98.9305 28.4042 98.4943C28.4834 96.6214 28.4834 94.7485 28.5097 92.9013C28.5361 91.6441 28.5097 90.3613 28.7998 89.1042C28.9844 88.3345 28.879 87.5391 28.9317 86.7438C29.1163 86.6412 29.3273 86.5642 29.5119 86.5129C30.1185 87.6161 29.9075 88.9246 30.3031 90.0791C31.0152 88.5654 30.435 86.8207 30.8833 85.2557C31.0943 85.1787 31.3317 85.1018 31.5163 84.9735C31.6481 84.3321 31.4899 83.6907 31.4108 83.0493C31.3844 82.8697 31.4108 82.6901 31.5163 82.5362C32.2547 82.4592 32.9932 82.5875 33.7316 82.6388C33.6525 83.3058 33.3888 83.9986 33.4943 84.6913C33.5734 85.0505 33.9954 85.1018 34.2591 85.2557C34.3646 86.4872 34.4173 87.7444 34.4965 88.9759C34.5228 89.3351 34.6019 89.7199 34.7074 90.0534C35.6305 88.9759 34.7866 87.4108 35.6305 86.3076C35.7624 86.5385 35.947 86.7694 35.9734 87.0773C36.0525 87.9496 35.9997 88.8219 36.2107 89.6686C36.3953 90.3357 36.5272 91.0284 36.5536 91.7468C36.5799 93.594 36.6327 95.4669 36.6327 97.3142C36.6591 98.1352 36.6327 99.0075 36.9228 99.7772C37.1338 99.5462 37.3975 99.341 37.4239 99.0075C37.5558 98.0582 37.3975 97.0319 37.8459 96.134C38.2415 97.2628 38.0041 98.4687 38.2942 99.6232C38.6371 99.7002 38.9799 99.5976 39.2964 99.5206C39.4546 98.8022 39.4546 98.0582 39.6656 97.3398C39.8239 96.801 39.8502 96.1853 40.2195 95.7491L40.2458 96.057C40.4304 96.5188 40.2722 97.2372 40.7733 97.4938C41.1689 96.5188 40.9843 95.4413 40.9843 94.415C41.2216 94.3893 41.459 94.3637 41.67 94.338C41.6964 93.7223 41.67 93.1065 41.6436 92.4651C42.1183 92.4651 42.6194 92.4651 43.0941 92.4908C43.0414 93.0809 42.9095 93.671 42.9623 94.2867C43.2787 94.338 43.5952 94.338 43.9381 94.338C43.9381 95.4413 43.4106 96.5958 43.9645 97.6477C44.2282 97.0319 44.3337 96.3649 44.4919 95.7235C44.7029 96.3649 44.8348 97.0319 45.0985 97.6477C45.2567 98.0325 45.4414 98.4174 45.4677 98.8535C45.5732 100.188 45.5732 101.547 45.626 102.882C46.0743 102.933 46.4963 102.959 46.9446 102.959C50.8215 102.984 54.6984 102.907 58.5752 102.83C58.7335 101.676 58.6544 100.47 59.05 99.3667C59.2346 99.2127 59.4983 99.1357 59.5774 98.9048C59.762 98.3404 59.8675 97.776 60.2104 97.2628C60.606 97.622 60.817 98.1095 60.9225 98.6226C61.028 99.264 61.7928 99.5719 61.8455 100.239C61.9246 101.111 61.8719 101.984 62.0038 102.856C62.8477 103.061 63.718 103.087 64.5883 102.959C64.7993 101.522 64.7466 100.085 64.773 98.6483C64.8257 94.6459 64.7993 90.6692 64.773 86.6668C64.773 85.7432 64.4565 84.8965 64.1927 84.0499C64.9839 83.1776 64.6675 81.8948 65.1422 80.8685C65.5114 81.9204 65.3532 83.0749 65.907 84.0755C66.0652 83.9216 66.4081 83.8446 66.3817 83.5624C66.3817 83.0749 66.2235 82.5875 66.1971 82.1C66.5927 82.1257 66.9883 82.2283 67.4103 82.2283C67.674 81.6895 67.674 81.0481 67.885 80.4837C68.096 80.1245 68.5707 79.9192 68.6235 79.4574C68.8344 78.816 68.5707 78.2002 68.518 77.5588C68.6234 76.9431 69.0718 76.4813 69.4146 75.9682V75.8655H69.5729L69.5993 75.6346C69.9421 76.1734 70.3377 76.7122 70.4959 77.3793C70.6278 78.0207 70.6014 78.6621 70.6014 79.3035C70.5223 80.0218 71.2608 80.4323 71.4718 81.0737C71.6827 79.2265 71.6036 77.3536 71.6564 75.4807C71.6827 72.6842 71.6827 69.8876 71.4981 67.1168C71.3926 66.501 71.9201 66.0905 71.9992 65.5004C72.1838 64.5255 72.1047 63.4992 72.4739 62.5499C72.8695 63.5505 72.4739 64.7307 73.0542 65.68C73.1596 65.2182 73.2124 64.7564 73.3179 64.2946C73.4234 63.7301 73.8717 63.2683 74.0036 62.7039C74.1091 62.2677 74.1355 61.8059 74.1618 61.3698C74.241 59.6251 74.2673 57.8805 74.4256 56.1359C74.4519 55.5714 74.6893 55.0583 75.0585 54.6222C75.164 54.93 75.2695 55.2636 75.4014 55.5714C75.6124 55.2636 75.8233 54.9813 75.9552 54.6478C76.4299 53.7242 75.6387 52.7492 75.9288 51.8C76.0343 51.0816 76.8255 50.825 77.142 50.2606C77.3002 49.3113 76.7992 48.439 76.7728 47.4897C76.9574 47.1818 77.2475 46.9509 77.4057 46.6174C77.5112 46.2326 77.4849 45.8221 77.5112 45.4116C77.5376 44.5136 77.8541 43.6669 77.8805 42.7946C77.9859 40.0494 78.0387 37.3042 78.0651 34.559C77.7222 34.3024 77.2739 34.0715 77.1684 33.6353C76.9574 33.0453 77.2475 32.3525 77.8541 32.1473C77.6431 32.6861 77.1684 33.3275 77.6431 33.8663C77.8805 34.3281 78.4607 34.2768 78.8826 34.1228C78.8035 33.7636 78.3024 33.8149 78.0914 34.0202C78.0387 33.9689 77.9859 33.9176 77.9332 33.8663C77.9068 33.5327 77.6958 33.3018 77.5112 33.0453C77.7222 33.0196 77.9068 32.9939 78.1178 32.9683C78.1969 32.7887 78.2761 32.6347 78.3552 32.4808C78.5662 32.763 78.8035 33.0453 79.2255 32.9939C79.1727 33.0966 79.1464 33.1992 79.0936 33.3018C78.9881 33.5071 78.9618 33.7636 79.0672 33.9689C79.331 33.7636 79.331 33.4044 79.4628 33.1222C79.2519 32.8143 79.0936 32.4808 78.9354 32.1473C79.5947 32.3782 79.8848 33.1222 79.6211 33.738C79.4365 34.2511 78.6717 34.405 78.8035 35.0464C78.8563 38.3561 78.8299 41.6914 79.2782 45.0011C79.3837 45.6681 79.2519 46.4122 79.7002 46.9766C79.8585 47.2332 80.1486 47.4641 80.0431 47.7976C79.9112 48.6443 79.4628 49.4909 79.7266 50.3376C80.0167 50.7737 80.6233 50.902 80.8343 51.4151C81.1771 52.2874 80.7551 53.2111 80.7288 54.109C80.8343 54.6478 81.0452 55.2123 81.4672 55.6228C81.6782 55.2379 81.8628 54.8531 82.0474 54.4426C82.3375 54.9557 82.5221 55.5458 82.5221 56.1359C82.6013 58.1627 82.5485 60.1639 82.6013 62.1908C82.6013 62.9604 83.2342 63.5249 83.3661 64.2432C83.4716 64.7307 83.5243 65.2438 83.6298 65.757C83.7881 65.603 84.0782 65.5004 84.1045 65.2438C84.2364 64.2176 84.1309 63.14 84.5529 62.1908C84.8957 63.0887 84.8166 64.0637 84.9749 64.9873C85.0804 65.8083 85.3177 66.6293 85.3177 67.4759C85.3968 71.1448 85.3968 74.8136 85.4232 78.4825C85.4496 79.3804 85.4232 80.2784 85.5814 81.1507C86.2935 80.0218 86.1617 78.6108 86.5045 77.3536C86.6628 76.7635 87.032 76.2504 87.4276 75.8142C87.6913 76.1478 88.0078 76.5069 88.1397 76.9174C88.3506 77.5845 88.3243 78.3029 88.4561 78.9956C88.588 79.56 88.8254 80.0988 88.9572 80.6889C89.0627 81.1251 89.1155 81.5869 89.3001 81.9717C89.5902 82.1 89.933 82.1257 90.2495 82.2026C90.2231 82.7157 90.0913 83.2802 90.3023 83.7677C90.4605 83.6907 90.6451 83.6137 90.6979 83.4341C91.1198 82.5105 90.777 81.3816 91.3308 80.5093C91.7 81.4842 91.5154 82.5362 91.911 83.4854C92.0165 83.5111 92.2539 83.5368 92.3594 83.5368C92.1484 84.486 91.8319 85.4097 91.8847 86.4102C91.8319 90.4126 91.8055 94.415 91.8583 98.4174C91.8583 99.9311 91.8319 101.47 91.9901 102.984C92.9132 103.01 93.8099 103.01 94.733 102.907C94.944 101.855 94.8385 100.803 94.944 99.7515C94.944 99.3667 95.2604 99.1101 95.4978 98.8279C95.8143 98.52 95.8143 98.0582 95.9725 97.6733C96.078 97.3398 96.3154 97.0833 96.5527 96.8523C96.9747 97.3398 97.1857 97.9812 97.1593 98.6226C97.5022 98.9048 98.0296 99.1101 98.056 99.6232C98.1879 100.701 98.1879 101.804 98.267 102.907C102.46 102.907 106.68 102.907 110.873 102.907C110.953 101.522 111.005 100.136 111.137 98.7509C111.19 98.0069 111.665 97.3911 111.876 96.6984C112.007 96.2109 112.087 95.6978 112.192 95.1847L112.218 94.8768C112.64 95.4156 112.614 96.1083 112.799 96.7241C113.115 95.8774 113.01 94.9538 113.115 94.0815C113.141 93.594 113.616 93.2605 113.616 92.7987C113.643 92.4651 113.643 92.1572 113.669 91.8494C114.117 91.8494 114.592 91.7724 115.014 91.9263C115.146 92.4138 115.146 92.9013 115.199 93.3887C115.304 93.4144 115.515 93.4657 115.594 93.4657C115.752 94.6202 115.621 95.8004 115.963 96.9293C116.227 96.2622 116.227 95.4926 116.544 94.8512C116.913 95.9031 116.834 97.0576 117.203 98.1095C117.282 98.3917 117.625 98.4687 117.836 98.6226C118.574 97.776 118.232 96.5958 118.522 95.6208L118.574 95.313C119.128 96.134 118.891 97.1346 119.128 98.0325C119.207 98.2891 119.497 98.6226 119.761 98.3661C119.972 97.5194 119.919 96.6214 119.972 95.7491C120.051 93.4401 120.078 91.131 120.21 88.8219C120.394 87.6931 120.421 86.4872 120.816 85.4097C121.264 86.6925 120.922 88.1549 121.581 89.3864C121.924 87.7187 121.792 86.0254 121.897 84.3321C122.293 84.2808 122.689 84.2551 123.084 84.2038C123.031 83.2802 122.873 82.3566 123.058 81.4329C123.717 81.6895 124.403 81.5869 125.062 81.4586C125.141 82.2796 124.746 83.0493 124.904 83.8446C125.009 84.3064 125.616 84.1012 125.959 84.1782L125.88 84.2551C125.959 85.5379 125.933 86.8464 126.012 88.1292C126.038 88.4627 126.038 88.8476 126.302 89.1042C126.961 87.924 126.513 86.4103 127.198 85.2301L127.278 85.5636C127.673 86.7951 127.62 88.1036 128.069 89.3351C128.438 90.5666 128.253 91.8494 128.332 93.1065C128.412 94.8255 128.28 96.5445 128.517 98.2634C128.702 98.2378 128.886 98.2121 129.097 98.1608C129.387 97.6477 129.308 97.0319 129.361 96.4675C129.387 95.7748 129.572 95.1077 129.915 94.5176C130.442 95.6722 130.627 96.9293 130.732 98.1865C130.838 98.1608 131.049 98.1095 131.128 98.0838C130.996 101.214 130.996 104.344 130.97 107.474C130.97 110.373 130.917 113.247 131.023 116.146C132.552 114.427 133.897 112.554 135.295 110.732C136.746 108.859 137.616 106.602 138.486 104.421C138.908 105.114 139.066 105.986 139.778 106.473C140.174 105.345 139.831 104.19 139.699 103.061C139.304 100.701 138.697 98.3661 138.091 96.0313C137.669 94.492 137.669 92.9013 137.59 91.3363C137.616 90.2074 137.537 89.0785 137.853 88.0009C138.592 88.1292 139.304 88.4114 140.042 88.4627C140.306 87.7957 139.778 87.1286 139.62 86.4872C138.328 83.1519 137.115 79.7653 136.297 76.3017C135.664 73.7617 135.084 71.0935 135.532 68.4509C136.086 68.4765 136.64 68.4765 137.194 68.4252C136.825 67.5529 136.086 66.9372 135.427 66.2701C133.291 64.115 130.864 62.2421 128.834 59.9843C127.99 59.0607 127.093 58.1627 126.381 57.1365C125.669 56.1102 124.851 55.084 124.403 53.9038C125.563 53.6472 126.803 53.6985 127.911 53.2367C127.198 52.8006 126.381 52.5953 125.59 52.3131C124.825 52.0565 124.166 51.5691 123.427 51.2612C122.029 50.7224 120.842 49.7731 119.524 49.0804C117.625 48.0285 115.726 46.9509 113.88 45.8221C113.089 45.2833 112.377 44.6162 111.506 44.2057C110.451 43.59 109.449 42.9229 108.526 42.1276C109.159 41.8967 109.845 41.7684 110.531 41.7171C111.243 41.6144 112.034 41.6657 112.667 41.2296C112.007 40.9474 111.322 40.8447 110.636 40.6395C108.131 39.8698 105.625 39.0232 103.172 38.0482C101.59 37.4325 100.113 36.5602 98.6362 35.7648C97.9241 35.3543 97.1593 34.9951 96.6318 34.3281C98.0033 33.9945 99.4538 34.3024 100.799 33.8663C100.008 33.4301 99.1109 33.3018 98.2406 33.0709C96.9219 32.7374 95.5769 32.4552 94.2846 31.9933C92.9396 31.5059 91.5418 31.121 90.1968 30.5566C90.144 30.4796 90.0649 30.3513 90.0122 30.3C90.7242 30.1204 91.4627 30.0178 92.2011 29.9922C94.1791 29.9152 96.1571 29.7356 98.1351 29.7099C99.6648 29.6586 101.089 30.377 102.487 30.8645C103.568 31.2493 104.597 31.7881 105.757 31.942C105.783 31.8907 105.836 31.8138 105.862 31.7624C105.783 30.3 104.57 29.7613 103.884 28.8633ZM97.9241 30.377C97.7659 30.4283 97.5813 30.5309 97.6077 30.7362C97.9505 31.0184 98.3725 31.0697 98.7681 31.2237C99.3219 31.4289 99.7439 31.8907 100.271 32.1473C100.772 32.096 101.247 31.9164 101.696 31.7624C101.959 31.6598 102.328 31.5572 102.276 31.198C101.669 30.8132 100.904 30.8388 100.245 30.6336C99.4802 30.5309 98.7153 30.1204 97.9241 30.377ZM56.65 30.9928C55.8852 31.121 55.094 31.2493 54.4346 31.6598C54.9357 32.1473 55.6742 32.2756 56.3335 32.3525C56.861 32.4295 57.3093 32.096 57.7577 31.8651C58.3643 31.5059 59.1027 31.3519 59.6565 30.8645C58.6544 30.6336 57.6522 30.8901 56.65 30.9928ZM108.236 31.6855C108.183 32.5834 108.948 33.1479 109.396 33.8406C110.24 34.8668 110.9 36.0983 112.087 36.7654C112.878 37.2016 113.827 36.9707 114.566 36.5602C113.827 35.3543 112.851 34.3024 111.717 33.4301C110.583 32.7887 109.423 32.1986 108.236 31.6855ZM47.7622 32.6091C46.4435 33.1479 45.2567 33.9945 44.2809 35.0208C43.648 35.6878 42.9359 36.3036 42.5403 37.1503C42.7513 37.3298 42.9623 37.5094 43.2524 37.5094C44.0699 37.5864 45.0194 37.5608 45.6523 36.9707C46.971 35.7392 47.7095 34.0458 48.9226 32.7117C49.0545 32.6091 49.1072 32.4552 49.0809 32.2756C48.6061 32.2756 48.1842 32.4552 47.7622 32.6091ZM101.696 34.4563C102.144 35.1234 102.777 35.6365 103.515 35.9701C104.702 36.7141 106.021 37.2529 107.287 37.8686C108.131 38.2535 108.948 38.7153 109.818 38.9975C109.924 38.4844 109.555 38.0482 109.291 37.6377C108.447 36.4832 107.603 35.2517 106.284 34.5846C104.887 33.7893 103.146 33.9176 101.696 34.4563ZM50.1094 35.4826C49.2127 36.2523 48.4479 37.1759 47.7622 38.1508C47.4457 38.587 47.182 39.0745 46.9974 39.5619C48.0259 39.3054 48.7908 38.5613 49.7666 38.2022C51.349 37.5607 52.8786 36.7654 54.3028 35.8161C54.7247 35.5596 55.0676 35.2004 55.2786 34.7386C54.3819 34.5077 53.4325 34.5333 52.483 34.482C51.5863 34.4307 50.7688 34.9182 50.1094 35.4826ZM118.337 35.6109C118.047 36.3293 117.704 37.0733 117.889 37.843C117.994 38.8436 118.759 39.5363 119.445 40.229C120.315 41.0757 121.396 41.6401 122.425 42.2558C122.715 42.3841 123.084 42.692 123.348 42.3585C123.137 41.3579 122.504 40.5112 121.871 39.7415C120.684 38.3561 119.55 36.945 118.337 35.6109ZM38.7162 36.1753C37.3711 37.689 36.158 39.3054 34.8129 40.8191C34.2855 41.4605 33.6525 42.2558 33.8371 43.1282C34.3646 43.2051 34.8129 42.8203 35.2877 42.5894C36.6854 41.8453 38.1623 40.9987 38.848 39.5106C39.2173 38.4587 39.27 37.1759 38.7162 36.1753ZM114.434 40.0238C114.592 40.5882 115.119 40.8961 115.594 41.127C115.884 40.9474 116.438 40.8961 116.465 40.4599C116.517 39.8698 116.57 39.2284 116.385 38.664C116.201 38.2022 115.568 38.2791 115.199 38.4074C114.513 38.6127 114.196 39.3823 114.434 40.0238ZM41.0634 38.8949C40.2722 39.3054 40.114 40.4856 40.5887 41.2039C40.9315 41.7684 41.8282 41.9736 42.2766 41.4348C42.593 40.9474 42.6458 40.306 42.5667 39.7672C42.4612 39.0745 41.6964 38.6383 41.0634 38.8949ZM125.669 41.948C125.801 43.1282 125.88 44.4366 126.697 45.4116C127.409 46.2839 128.253 47.0279 129.176 47.6693C130.179 48.362 131.102 49.1574 132.209 49.6962C132.948 50.0553 133.607 50.5428 134.425 50.7224C134.398 50.2606 134.346 49.7988 134.135 49.3883C133.502 48.0028 132.552 46.7713 131.603 45.5398C130.574 44.1287 129.361 42.8716 128.253 41.5118C127.568 40.6652 126.961 39.7672 126.144 39.0232C125.563 39.8698 125.642 40.9474 125.669 41.948ZM26.3207 45.155C25.1867 46.4378 24.2373 47.8489 23.3406 49.2857C22.8922 50.0553 22.3911 50.8507 22.4175 51.7487C22.8922 51.723 23.3406 51.5434 23.7625 51.2868C24.7647 50.6711 25.8197 50.1323 26.7427 49.4396C27.9295 48.5673 29.2218 47.7206 30.1185 46.5404C30.5932 45.7707 31.1734 44.9754 31.2525 44.0261C31.358 42.9229 31.4108 41.8197 31.1998 40.7165C31.1734 40.4086 30.9097 40.2033 30.6723 39.9981C29.2218 41.7427 27.7449 43.436 26.3207 45.155ZM113.115 42.769C113.405 43.3077 113.906 43.6669 114.407 44.0261C115.462 44.8215 116.517 45.7194 117.81 46.1043C119.286 46.72 120.711 47.4127 122.108 48.1568C122.715 48.4647 123.269 48.9265 123.928 49.1317C123.981 49.1061 124.06 49.0291 124.113 48.9778C123.902 48.3107 123.453 47.7463 123.137 47.1305C122.557 46.0273 121.818 45.0267 121.001 44.0774C120.078 42.9742 118.706 42.1789 117.229 42.2045C115.858 42.2302 114.434 42.3072 113.115 42.769ZM37.4239 43.6413C36.5272 44.257 35.6305 44.9241 35.0503 45.8734C34.391 46.9253 33.6525 47.9515 33.0987 49.0547C32.8613 49.5166 32.7294 50.0297 32.8086 50.5428C33.336 50.158 33.8108 49.6448 34.3646 49.2857C34.9712 48.9008 35.5778 48.516 36.2371 48.1824C38.1887 47.2075 40.1403 46.2069 42.0128 45.078C42.7249 44.5649 43.5689 44.0774 43.9381 43.2564C43.1469 43.0255 42.3293 42.9486 41.5117 42.8716C40.114 42.7946 38.5843 42.8459 37.4239 43.6413ZM124.35 44.7445C124.324 45.2833 124.456 45.7964 124.64 46.2839C125.036 47.6437 125.906 48.8752 127.067 49.7218C127.462 50.0297 127.911 50.4145 128.464 50.3119C128.623 50.0553 128.359 49.7988 128.253 49.5935C127.409 48.439 126.46 47.3871 125.563 46.2582C125.168 45.7451 124.957 45.0524 124.35 44.7445ZM32.624 45.0524C31.6481 46.8227 30.3822 48.439 29.0899 50.004C28.7207 50.4658 28.2724 50.9277 28.1405 51.5434C28.9317 51.4664 29.591 50.9533 30.224 50.5172C31.4899 49.4909 32.202 47.9515 32.624 46.4378C32.7294 46.0017 32.9141 45.5398 32.8086 45.078C32.7558 45.0524 32.6767 45.0524 32.624 45.0524ZM131.735 51.6973C130.864 52.0052 130.838 53.1597 131.181 53.8525C131.418 54.4682 132.183 54.9044 132.816 54.5965C133.159 54.3656 133.238 53.9038 133.291 53.5189C133.343 53.0058 133.343 52.467 133.08 52.0052C132.763 51.6204 132.183 51.5691 131.735 51.6973ZM137.906 53.8268C137.352 55.9819 137.59 58.2397 138.196 60.3692C138.644 61.7803 139.357 63.0631 140.148 64.2946C140.965 65.4234 141.941 66.4497 142.943 67.4246C143.444 67.8608 143.866 68.4252 144.526 68.6561C144.552 67.322 144.051 66.0392 143.655 64.7564C143.181 63.3196 142.653 61.9085 142.047 60.4974C141.572 59.3173 140.992 58.1884 140.543 57.0082C140.016 55.6227 139.699 54.1603 139.488 52.6723C139.436 52.2618 139.33 51.8256 139.198 51.4408C138.46 52.0309 138.143 52.9545 137.906 53.8268ZM24.0526 52.8006C23.2351 53.3907 23.0768 54.6222 23.5779 55.4432C23.9735 56.1359 25.1603 56.1359 25.5559 55.4432C25.846 54.9044 25.846 54.2373 25.6878 53.6729C25.5032 53.0315 24.6856 52.544 24.0526 52.8006ZM17.5385 53.2111C17.222 53.5959 17.2483 54.109 17.1429 54.5452C16.6418 58.291 14.5583 61.5493 13.2924 65.0643C12.844 66.424 12.3957 67.7838 12.1847 69.1949C12.1319 69.5284 12.2111 69.8363 12.2638 70.1442C13.1341 69.6311 13.7934 68.8614 14.4792 68.143C16.0879 66.3727 17.3802 64.3202 18.3824 62.1651C19.1736 60.3692 19.0945 58.368 19.0681 56.4438C19.0681 55.4432 18.5934 54.5195 18.0659 53.6985C17.934 53.4933 17.7758 53.288 17.5385 53.2111ZM128.306 54.109C128.227 55.007 128.623 55.8537 128.939 56.6747C129.256 57.4443 129.625 58.1884 130.205 58.7785C131.26 59.9587 132.394 61.0106 133.528 62.1138C133.924 62.4986 134.319 62.8835 134.768 63.1657C134.451 61.8316 133.897 60.5487 133.423 59.2659C132.974 58.1114 132.447 56.9825 131.576 56.0846C130.68 55.1609 129.467 54.6735 128.306 54.109ZM26.0306 56.4951C25.1867 57.0082 24.5274 57.8292 24.1054 58.7272C23.5516 59.8047 23.156 60.9336 22.734 62.0625C22.4702 62.8578 22.1538 63.6275 22.0483 64.4485C23.6834 62.9861 25.2394 61.4467 26.69 59.8304C27.3757 59.0607 27.7449 58.1114 28.1932 57.2134C28.5097 56.572 28.7471 55.8793 28.668 55.1609C27.7713 55.4945 26.8746 55.9819 26.0306 56.4951ZM135.031 55.828C134.741 56.7003 134.715 57.6239 134.688 58.5219C134.715 59.4455 134.636 60.4205 134.952 61.3184C135.401 62.3447 136.086 63.2427 136.64 64.2176C137.115 65.0386 137.8 65.757 138.75 66.0392C138.697 65.68 138.592 65.3208 138.381 65.0129C137.906 64.2946 137.484 63.5249 137.141 62.7295C136.561 61.4211 135.849 60.1383 135.612 58.7015C135.401 57.7266 135.453 56.726 135.031 55.828ZM20.7296 61.3441C20.2022 62.8322 19.3846 64.1919 18.6198 65.603C18.3033 66.2188 17.9077 66.8089 17.7231 67.4759C17.7758 67.5016 17.9077 67.5529 17.9604 67.5786C19.2 67.1424 19.7274 65.8339 20.3868 64.8333C20.9933 63.961 21.5736 63.0374 21.8637 62.0112C22.4439 60.4205 22.2329 58.6758 21.7318 57.0852C21.2307 58.4963 21.2043 59.9843 20.7296 61.3441ZM76.7464 58.0857C76.6937 59.3942 76.6937 60.7283 76.7464 62.0368C76.7464 62.319 76.8255 62.6012 76.9046 62.8578C77.1948 62.2164 77.0893 61.5237 77.1156 60.831C77.1156 59.6251 77.142 58.4449 77.0365 57.2391C76.7464 57.4443 76.7728 57.7779 76.7464 58.0857ZM77.986 60.2665C77.986 61.1388 77.8541 62.0368 78.1706 62.8578C78.3288 62.5243 78.3815 62.1651 78.4079 61.8059C78.5134 60.5487 78.5398 59.2916 78.5398 58.0601C78.487 57.7779 78.5662 57.3417 78.2233 57.2391C78.0123 58.214 78.0387 59.2403 77.986 60.2665ZM79.6475 57.8805C79.542 59.3173 79.5156 60.7283 79.542 62.1651C79.5683 62.4217 79.542 62.7808 79.8848 62.8065C80.1486 62.5756 80.1222 62.1908 80.1486 61.8829C80.1486 60.8566 80.1486 59.8304 80.1486 58.7785C80.1486 58.214 80.1749 57.5983 79.9112 57.0595C79.7793 57.3417 79.6475 57.5983 79.6475 57.8805ZM142.02 69.4515C141.229 69.708 141.176 70.683 141.308 71.35C141.414 71.9401 141.967 72.6072 142.653 72.3763C143.708 71.9401 143.919 70.3238 143.049 69.6054C142.759 69.3488 142.363 69.3488 142.02 69.4515ZM137.827 69.862C137.379 71.4783 137.589 73.1973 137.695 74.8649C137.906 76.5069 137.88 78.2003 138.381 79.8166C138.987 81.3303 139.488 82.921 140.121 84.4347C140.438 85.1788 140.675 85.9998 141.255 86.6155C141.651 85.7688 141.651 84.7939 141.756 83.8959C141.967 81.6125 142.047 79.3035 141.783 76.9944C141.651 75.8912 141.545 74.7367 140.992 73.7361C140.491 72.8381 139.884 71.9914 139.251 71.1961C138.803 70.7086 138.407 70.1698 137.827 69.862ZM146.636 71.8632C145.818 74.5058 145.422 77.2766 145.449 80.0475C145.449 82.4848 145.923 84.8965 146.82 87.1543C147.137 87.9496 147.506 88.745 148.112 89.3607C148.429 88.4884 148.297 87.5391 148.323 86.6412C148.244 83.3058 148.139 79.9962 147.796 76.6865C147.585 74.5827 147.664 72.4789 147.427 70.4007C147.005 70.8112 146.794 71.35 146.636 71.8632ZM13.7143 71.0935C12.633 71.7092 13.1869 73.5565 14.3737 73.7104C14.7956 73.813 15.2704 73.4795 15.2704 73.0433C15.2967 72.5046 15.3231 71.9401 15.0857 71.4527C14.7956 71.0165 14.1627 70.9139 13.7143 71.0935ZM76.008 71.0422C76.0343 71.1191 76.0607 71.2731 76.0607 71.35C77.2739 71.5553 78.5134 71.504 79.7266 71.4527C80.1749 71.427 80.7551 71.4527 81.0189 71.0165C79.3574 70.8626 77.6695 70.9395 76.008 71.0422ZM18.145 71.9145C17.0637 72.9664 16.1143 74.1722 15.6132 75.5833C15.0066 77.097 14.822 78.739 14.7956 80.381C14.7429 82.5362 14.822 84.6913 15.0594 86.8207C15.1121 87.3595 15.2176 87.924 15.3758 88.4371C15.6923 88.1036 16.0088 87.7187 16.167 87.2569C16.5099 86.3333 16.8791 85.4097 17.1956 84.4604C18.5406 80.9198 19.2263 77.097 19.1208 73.3256C19.0681 72.7355 19.1472 72.0684 18.8044 71.5553C18.5406 71.4783 18.3296 71.7605 18.145 71.9145ZM143.497 73.9926C143.233 74.6597 143.075 75.3781 143.075 76.1221C143.102 78.0207 143.075 79.9449 143.444 81.8434C143.708 82.844 143.972 83.8959 144.658 84.6913C144.895 84.1525 144.71 83.5624 144.658 82.998C144.367 80.5093 144.42 78.0207 144.447 75.532C144.447 74.1722 144.684 72.8381 144.578 71.4783C144.051 72.248 143.84 73.146 143.497 73.9926ZM9.25725 72.171C8.96714 73.7104 9.09901 75.3011 9.04626 76.8405C8.83528 80.8942 8.43968 84.9478 8.38693 89.0015C8.43968 89.7712 8.33418 90.5666 8.70341 91.2849C9.09901 90.6692 9.36274 89.9765 9.6001 89.2837C10.3649 87.1286 11.1034 84.9478 11.1825 82.6388C11.2352 81.1251 11.3144 79.5857 11.0506 78.0976C10.7342 76.6865 10.3913 75.2754 9.9957 73.89C9.78471 73.2999 9.57373 72.6842 9.25725 72.171ZM11.8682 73.069L11.7627 73.1973C11.8155 73.7361 12.1056 74.2492 12.1056 74.8136C12.3165 78.6621 12.1583 82.5362 12.0264 86.3846C12.3429 86.0511 12.633 85.6919 12.844 85.307C12.422 84.9735 12.7913 84.4604 12.9231 84.0755C13.5561 82.7927 13.5561 81.356 13.5825 79.9449C13.5825 78.1233 13.5297 76.2247 12.7385 74.5571C12.5012 74.0696 12.3957 73.5565 12.1583 73.069C12.0528 73.0433 11.9209 73.069 11.8682 73.069ZM78.7508 74.3518C78.6717 76.0708 78.6717 77.7897 78.698 79.4831C78.7244 79.9449 78.698 80.4323 78.9618 80.8172C79.3837 79.4831 79.2255 78.0463 79.2782 76.6865C79.1991 75.4807 79.3837 74.2492 79.0672 73.069C78.7508 73.4025 78.8035 73.9157 78.7508 74.3518ZM76.0607 73.1716C76.0079 73.5052 75.9552 73.8387 75.9552 74.1722C75.9552 76.0708 75.9552 77.995 75.9552 79.8936C75.9552 80.2014 76.0079 80.535 76.0607 80.8428C76.2189 80.5606 76.2717 80.2271 76.2717 79.9192C76.3244 78.2002 76.3244 76.4813 76.2981 74.7623C76.2717 74.2492 76.3508 73.6591 76.0607 73.1716ZM80.2277 74.4801C80.1749 76.0964 80.1222 77.7128 80.1486 79.3035C80.1486 79.8166 80.2013 80.3297 80.3068 80.8428C80.7024 80.3297 80.5969 79.637 80.6496 79.0213C80.6496 77.0714 80.6496 75.0958 80.3859 73.146C80.3068 73.6078 80.2541 74.0439 80.2277 74.4801ZM77.5376 73.2486C77.4057 73.7361 77.353 74.2492 77.353 74.7623C77.2739 76.7122 77.2211 78.6877 77.353 80.6376C77.8013 80.8942 77.7486 80.3297 77.8013 80.0475C77.8541 78.2516 77.775 76.43 77.775 74.6084C77.775 74.1722 77.8013 73.6847 77.5376 73.2486ZM73.4497 82.6644C74.2937 82.8697 75.164 82.8184 76.0343 82.8697C78.3024 82.9467 80.5969 83.0493 82.8386 82.6901C80.7815 82.5618 78.698 82.5105 76.6145 82.5618C75.5596 82.5618 74.4783 82.5105 73.4497 82.6644ZM70.8388 87.4108C70.7333 93.0809 70.7333 98.7509 70.7333 104.421C70.7597 108.783 70.7069 113.144 70.8388 117.506C71.0498 117.403 71.2608 117.326 71.4718 117.223C71.6827 115.812 71.6036 114.376 71.6827 112.939C71.7091 107.551 71.7619 102.189 71.6564 96.801C71.63 93.7736 71.63 90.7205 71.4718 87.6931C71.4454 87.3082 71.4981 86.8208 71.0762 86.6412C70.8915 86.8208 70.8652 87.1286 70.8388 87.4108ZM85.5814 86.6925C85.3968 89.3351 85.4232 91.952 85.3968 94.5946C85.3441 98.597 85.3177 102.625 85.3177 106.627C85.3177 109.86 85.265 113.093 85.3441 116.3C85.3441 116.71 85.3441 117.172 85.7133 117.454C86.2144 117.069 86.0825 116.402 86.1353 115.864C86.188 113.965 86.2144 112.041 86.2144 110.142C86.2144 105.652 86.2408 101.137 86.188 96.6471C86.1353 93.3374 86.2144 90.0278 85.9507 86.7438C85.8452 86.7181 85.6606 86.6925 85.5814 86.6925ZM88.1397 87.0517C87.9287 87.9753 87.955 88.9502 87.9287 89.8995C87.8495 97.5194 87.8759 105.165 87.9023 112.785C87.955 115.248 87.9023 117.711 88.0869 120.174C89.8012 120.148 91.5418 120.174 93.2561 120.046C93.5198 120.046 93.7044 119.866 93.8626 119.686C92.4649 119.404 91.0143 119.507 89.5902 119.456C89.5902 108.552 89.5902 97.6477 89.5902 86.7438C89.1155 86.7694 88.2715 86.3846 88.1397 87.0517ZM67.3839 86.9234C67.3312 89.6686 67.2784 92.4138 67.252 95.1847C67.1993 103.241 67.1202 111.271 67.041 119.327C65.8015 119.379 64.5883 119.43 63.3488 119.456C62.9796 119.481 62.584 119.455 62.2675 119.661C62.2147 120.02 62.6367 120.02 62.8741 120.071C64.7729 120.148 66.6718 120.2 68.5443 119.969C68.7026 118.66 68.6498 117.326 68.7026 115.992C68.7289 106.294 68.7289 96.5958 68.7289 86.9234C68.307 86.7951 67.8323 86.7694 67.3839 86.9234ZM79.4101 87.1799C79.331 87.7444 79.3046 88.3088 79.2782 88.8732C79.1727 96.4418 79.1727 104.036 79.2782 111.605C79.2782 112.323 79.3046 113.041 79.4101 113.734C79.6475 113.426 79.5947 112.99 79.5947 112.631C79.6211 108.629 79.6475 104.601 79.6738 100.598C79.6738 96.5958 79.6475 92.5678 79.6475 88.5654C79.6475 88.1036 79.753 87.5648 79.4101 87.1799ZM76.2717 87.3082C76.1926 87.6417 76.1398 87.9496 76.1134 88.2832C76.008 90.3357 76.0343 92.3882 76.008 94.4407C75.9552 99.8285 75.9816 105.191 76.0343 110.578C76.0871 111.579 76.008 112.58 76.2189 113.555C76.2717 113.349 76.3508 113.144 76.3508 112.939C76.4036 105.165 76.4299 97.3911 76.3772 89.5916C76.3508 88.8476 76.4827 88.0522 76.2717 87.3082ZM144.42 88.9759C144.025 89.1555 143.84 89.6173 143.814 90.0534C143.787 90.5666 143.814 91.1567 144.209 91.5415C144.42 91.7467 144.71 92.0803 145.027 91.9007C145.528 91.6441 146.082 91.2849 146.108 90.6692C146.134 90.1817 146.134 89.566 145.686 89.2324C145.317 88.9502 144.842 88.7963 144.42 88.9759ZM139.462 91.5158C139.805 94.6972 140.069 97.8786 140.359 101.06C140.411 101.701 140.517 102.317 140.781 102.907C141.044 102.702 141.282 102.445 141.387 102.112C141.809 100.983 142.258 99.8541 142.521 98.6996C142.891 97.0576 142.996 95.313 142.6 93.6453C142.389 92.6704 141.862 91.7981 141.387 90.9001C140.86 90.1047 140.121 89.4377 139.33 88.8989C139.225 89.7712 139.383 90.6435 139.462 91.5158ZM123.717 90.2587C122.609 90.4639 121.792 91.5672 121.924 92.696C122.003 93.8506 123.111 94.7998 124.271 94.6972C125.484 94.6716 126.539 93.5683 126.46 92.3625C126.407 91.054 125.036 89.9765 123.717 90.2587ZM31.5427 90.4383C29.9075 91.0027 29.7756 93.4657 31.0679 94.4407C31.8591 94.9025 32.8877 94.8255 33.6789 94.4407C34.8921 93.8506 35.1294 92.0803 34.3118 91.0797C33.6525 90.2843 32.4921 90.0534 31.5427 90.4383ZM10.7869 91.208C10.444 91.8237 10.5232 92.6191 10.8396 93.2348C11.2089 93.9275 12.2638 93.7223 12.7121 93.2348C12.8968 92.6447 12.844 91.9777 12.7385 91.3619C12.6594 90.9258 12.1847 90.7462 11.8418 90.5152C11.4462 90.6692 10.9979 90.8231 10.7869 91.208ZM15.3231 92.6191C14.5846 93.4657 14.3737 94.5689 14.1099 95.6208C13.8462 96.8267 13.7671 98.0582 13.9253 99.2897C14.1099 100.521 14.5319 101.701 14.9275 102.882C15.1385 103.42 15.2967 104.01 15.6923 104.447C15.8242 104.601 16.2462 104.652 16.2198 104.344C16.5099 101.881 16.6418 99.418 16.8527 96.9293C17.1429 94.8255 17.4593 92.7217 17.5121 90.6179C16.6154 91.131 15.9561 91.875 15.3231 92.6191ZM148.323 94.5433C147.084 96.1083 146.425 98.0582 145.976 99.9824C145.449 102.497 144.974 105.062 145.343 107.654C145.475 108.5 145.422 109.45 145.976 110.194C146.636 109.629 146.952 108.808 147.295 108.038C148.192 105.883 149.009 103.651 149.405 101.342C149.642 99.7258 149.879 98.1095 150.117 96.4932C150.222 95.2103 150.486 93.9275 150.381 92.6191C149.563 93.1322 148.956 93.8762 148.323 94.5433ZM6.19795 94.5946C6.22432 97.0576 6.69904 99.4693 7.01552 101.907C7.51661 104.678 8.07045 107.474 9.25725 110.04C9.62647 110.784 9.91658 111.656 10.6287 112.169C11.4462 110.758 11.3671 109.065 11.4462 107.474C11.4199 105.909 11.3935 104.318 10.8924 102.805C10.4704 101.445 10.2067 100.008 9.52098 98.7509C9.07264 97.9299 8.70341 97.0576 8.04408 96.3649C7.51661 95.7491 6.96278 95.0308 6.19795 94.5946ZM144.288 97.0063C143.787 97.776 143.392 98.6483 143.233 99.5719C142.996 100.932 142.838 102.317 142.785 103.703C142.759 104.524 142.785 105.345 143.102 106.114C143.471 105.345 143.55 104.498 143.761 103.703C144.262 101.445 144.895 99.1871 145.501 96.955C145.66 96.4162 145.765 95.8261 145.739 95.2617C145.106 95.7235 144.71 96.3649 144.288 97.0063ZM10.9451 98.1095C11.288 99.3153 11.6308 100.521 12.0528 101.676C12.6594 103.42 12.9759 105.216 13.3451 107.012C13.3978 107.371 13.5033 107.705 13.6616 108.038C14.1363 107.141 13.8989 106.089 13.8726 105.139C13.7934 103.933 13.7934 102.702 13.5297 101.522C13.2396 100.342 12.5275 99.3153 11.9473 98.2891C11.6836 97.8273 11.3671 97.3911 10.9188 97.0833C10.866 97.4424 10.8396 97.8016 10.9451 98.1095ZM126.724 102.266C126.618 108.731 126.539 115.197 126.618 121.662C127.146 121.38 127.489 120.841 127.594 120.251C127.752 119.173 127.726 118.096 127.726 117.018C127.805 112.528 127.858 108.038 127.752 103.523C127.726 103.087 127.726 102.599 127.568 102.189C127.33 102.009 126.987 102.189 126.724 102.266ZM118.073 109.988C118.021 113.118 118.021 116.248 117.994 119.379C117.994 121.251 117.968 123.15 118.126 125.023C118.944 124.638 118.785 123.637 118.864 122.893C118.891 119.019 118.917 115.171 118.917 111.297C118.864 108.603 118.944 105.935 118.812 103.241C118.785 102.959 118.733 102.317 118.311 102.599C118.1 105.088 118.126 107.525 118.073 109.988ZM37.714 103.395C37.5558 106.525 37.5821 109.655 37.5294 112.785C37.503 116.454 37.4503 120.123 37.5294 123.791C37.5294 124.305 38.0305 124.587 38.3997 124.869C38.5052 122.791 38.5052 120.738 38.5316 118.66C38.5579 114.863 38.5316 111.04 38.5052 107.243C38.4788 105.883 38.5579 104.524 38.347 103.189C38.1623 103.241 37.6876 103.087 37.714 103.395ZM29.2482 103.651C29.0899 104.19 29.0899 104.754 29.0636 105.293C29.0372 107.243 29.0108 109.193 28.9844 111.169C28.9581 112.605 28.9844 114.016 28.8526 115.453C28.7207 117.454 28.1669 119.507 28.7998 121.482C28.9581 122.072 29.5119 122.406 30.013 122.688C30.1185 121.893 30.1185 121.072 30.1449 120.276C30.1712 116.223 30.1976 112.143 30.1449 108.09C30.1185 106.576 30.1712 105.037 29.9866 103.523C29.7229 103.523 29.3273 103.318 29.2482 103.651ZM96.3154 105.986C96.078 109.706 96.1835 113.452 96.1571 117.172C96.1835 121.354 96.078 125.536 96.2626 129.692C96.5527 129.769 97.1329 129.975 97.1593 129.513C97.2912 122.329 97.2384 115.12 97.2648 107.936C97.2648 107.346 97.2648 106.756 97.1593 106.166C96.9747 105.883 96.6055 105.96 96.3154 105.986ZM59.1818 107.064C58.9708 113.375 59.0236 119.686 59.05 125.998C59.0763 127.435 58.9972 128.871 59.1818 130.308C59.1818 130.616 59.4719 130.744 59.6829 130.873C60.0785 130.129 59.9994 129.282 60.0521 128.461C60.184 125.279 60.1576 122.098 60.184 118.917C60.184 114.966 60.2368 110.989 60.1313 107.038C60.1049 106.653 60.0521 106.166 59.6565 105.986C59.1554 106.14 59.1818 106.679 59.1818 107.064ZM109.37 106.191C109.133 106.268 109.133 106.55 109.106 106.756C108.975 110.476 109.001 114.196 108.975 117.916C109.001 121.559 108.948 125.228 109.08 128.871C109.607 128.948 110.161 128.923 110.689 128.82C110.715 124.612 110.794 120.379 110.768 116.171C110.742 112.785 110.821 109.398 110.742 106.012C110.293 106.037 109.818 106.037 109.37 106.191ZM45.9688 106.499C45.7842 109.963 45.8106 113.426 45.7578 116.89C45.7315 120.79 45.6787 124.715 45.7578 128.615C45.7842 128.82 45.7051 129.154 45.9688 129.231C46.3908 129.308 46.8391 129.154 47.2611 129.077C47.3666 125.356 47.3402 121.636 47.3666 117.916C47.3402 114.145 47.3666 110.348 47.2611 106.576C46.8128 106.473 46.3908 106.448 45.9688 106.499ZM135.19 112.246C134.662 113.118 134.609 114.145 134.53 115.12C134.477 115.889 134.398 116.685 134.847 117.377C135.427 116.351 136.06 115.35 136.904 114.504C137.932 113.503 138.618 112.143 138.724 110.707C138.776 109.834 138.935 108.859 138.46 108.064C137.299 109.45 136.113 110.758 135.19 112.246ZM142.917 108.629C142.284 108.988 142.126 109.783 142.152 110.45C142.178 110.886 142.231 111.476 142.732 111.605C143.339 111.784 144.236 111.656 144.42 110.963C144.552 110.373 144.526 109.732 144.262 109.193C143.998 108.757 143.418 108.372 142.917 108.629ZM18.3824 109.604C18.145 110.399 18.0659 111.22 18.1187 112.041C18.1714 112.759 18.1978 113.503 18.4615 114.196C19.0681 115.299 20.0703 116.146 20.7296 117.198C21.0461 117.685 21.3626 118.173 21.6791 118.66C21.9692 118.558 22.2856 118.506 22.523 118.327C22.7076 117.967 22.6021 117.557 22.6021 117.198C22.4439 116.171 22.2329 115.12 21.7054 114.196C21.0197 112.913 19.9912 111.861 19.1472 110.681C18.9099 110.322 18.8044 109.86 18.3824 109.604ZM13.1077 110.527C12.6858 110.655 12.3165 111.015 12.2902 111.451C12.2374 112.118 12.2374 112.888 12.6594 113.426C13.3187 113.991 14.4528 113.503 14.5846 112.708C14.6901 112.041 14.6374 111.297 14.2154 110.732C13.9517 110.424 13.477 110.399 13.1077 110.527ZM141.519 113.965C139.647 115.043 138.143 116.685 137.115 118.558C136.693 119.25 137.22 120.02 137.537 120.636C137.721 120.841 137.827 121.277 138.143 121.251C138.46 120.738 138.644 120.174 138.882 119.609C139.488 118.019 140.411 116.582 141.546 115.325C142.099 114.709 142.864 114.35 143.26 113.606C142.68 113.349 142.073 113.683 141.519 113.965ZM76.7464 114.914C76.6409 114.837 76.509 114.76 76.4036 114.683C76.2981 114.914 76.2453 115.274 75.9025 115.222C75.164 115.145 74.5311 114.709 73.819 114.555C73.8717 115.197 73.9772 115.864 74.3992 116.377C74.8475 116.916 75.4277 117.377 75.8761 117.942C73.7399 118.173 71.6036 117.993 69.4674 118.044C69.3092 118.506 69.4938 119.019 69.4674 119.507C69.3883 120.071 70.074 120.276 70.5223 120.328C71.7355 120.379 72.8959 119.815 74.1091 119.994C75.164 120.071 76.2453 120.584 77.3002 120.174C77.8541 119.969 77.7222 119.25 77.986 118.814C78.2761 118.352 78.0387 117.583 78.5662 117.3C78.9354 117.352 78.9881 117.762 79.0936 118.044C79.2519 118.609 79.6475 119.071 79.7793 119.661C79.8585 119.917 79.9639 120.328 80.3068 120.251C82.6804 120.02 85.0804 120.174 87.4539 119.969C87.4803 119.327 87.4539 118.66 87.4276 118.019C85.6078 117.762 83.7881 118.044 81.9683 118.019C81.52 117.993 80.9925 118.096 80.6496 117.737C81.098 116.685 82.3112 116.018 82.3903 114.786C82.1529 114.606 81.8628 114.683 81.6255 114.76C81.0452 114.94 80.4914 115.197 79.9376 115.427C79.3574 114.991 78.8299 114.478 78.1706 114.145C77.564 113.914 77.1684 114.632 76.7464 114.914ZM13.7143 115.351C13.7407 115.581 13.6616 115.889 13.8726 116.043C14.3737 116.582 15.0857 116.89 15.5341 117.48C16.5363 118.865 17.5121 120.302 18.1714 121.893C18.3296 122.355 18.4351 122.893 18.8307 123.253C19.3055 122.74 19.4637 122.072 19.7274 121.457C19.8593 121.149 20.0439 120.79 19.8329 120.456C18.8835 118.737 17.5121 117.249 15.8506 116.171C15.2176 115.735 14.4792 115.427 13.7143 115.351ZM131.339 118.275C130.627 120.123 129.915 122.021 128.649 123.586C128.253 124.048 128.464 124.664 128.675 125.151C129.308 126.588 130.073 127.999 130.495 129.513C131.128 131.54 131.207 133.695 131.023 135.824C130.943 136.62 130.759 137.415 130.812 138.21C131.234 138.236 131.656 138.159 132.077 138.031C133.238 137.62 134.504 137.671 135.691 137.389C136.033 137.338 136.271 137.056 136.403 136.748C136.798 135.876 137.537 135.208 138.17 134.541C138.328 134.387 138.407 134.182 138.407 133.951C138.46 131.95 138.565 129.898 138.17 127.922C137.721 125.639 137.036 123.407 135.981 121.328C135.374 120.2 134.873 119.045 134.161 117.993C133.634 117.172 133.185 116.248 132.368 115.633C131.946 116.428 131.708 117.377 131.339 118.275ZM146.662 115.941C145.106 116.556 143.497 117.172 142.31 118.378C141.625 119.045 141.335 119.994 141.018 120.867C140.411 122.945 140.174 125.126 140.121 127.306C140.174 127.589 140.069 128.204 140.517 128.204C141.124 127.845 141.545 127.255 141.967 126.716C142.97 125.485 143.682 124.099 144.473 122.714C145.343 121.021 146.055 119.225 146.978 117.557C147.268 117.018 147.611 116.505 147.849 115.915C147.4 115.812 147.005 115.787 146.662 115.941ZM22.5757 119.532C21.4681 121.072 20.756 122.842 20.123 124.612C19.7011 125.947 19.2263 127.255 18.9099 128.615C18.4615 130.436 18.356 132.335 18.3824 134.208C18.4088 134.824 18.3824 135.491 18.7516 136.029C19.2791 136.85 20.0439 137.517 20.5714 138.364C20.7296 138.595 20.8879 138.852 21.1516 138.954C22.7076 139.493 24.3955 139.313 25.9515 139.827C26.268 139.724 26.4526 139.39 26.3207 139.057C25.9779 137.62 25.9251 136.106 25.9779 134.644C26.0306 131.847 26.9801 129.154 28.2724 126.691C28.4306 126.331 28.6152 125.972 28.668 125.587C28.3779 124.458 27.3229 123.817 26.8482 122.791C26.3207 121.739 25.8988 120.687 25.4768 119.584C25.1603 118.737 24.923 117.839 24.501 117.018C23.6043 117.634 23.2087 118.686 22.5757 119.532ZM8.83528 118.019C10.2594 119.994 11.2616 122.201 12.3165 124.382C13.0814 125.87 14.0044 127.281 15.0857 128.538C15.5341 129.077 15.9561 129.692 16.589 130.026C16.8 128.486 16.6418 126.947 16.5363 125.408C16.2989 123.484 15.7451 121.457 14.3209 120.046C13.2924 119.019 11.8418 118.558 10.5232 118.044C9.96933 117.865 9.31 117.583 8.83528 118.019ZM62.5576 121.431C63.3488 121.559 64.1664 121.534 64.9839 121.559C67.8586 121.585 70.7333 121.585 73.6344 121.559C74.8475 121.534 76.0871 121.585 77.3002 121.405C76.2717 121.226 75.2431 121.226 74.2146 121.226C70.3377 121.2 66.4345 121.097 62.5576 121.431ZM79.6738 121.431C80.465 121.688 81.309 121.585 82.1002 121.585C85.2386 121.559 88.3506 121.534 91.4891 121.482C92.2275 121.457 92.9923 121.534 93.7044 121.303C92.544 120.995 91.3308 121.123 90.1704 121.098C87.3484 121.098 84.5265 121.046 81.7046 121.123C80.9925 121.174 80.2541 121.046 79.6738 121.431ZM64.6938 122.611C63.929 122.637 63.1642 122.637 62.3994 122.791C62.2147 125.536 62.2411 128.307 62.3994 131.052C62.4521 130.796 62.4785 130.565 62.5576 130.308C62.6103 129.975 63.0323 130 63.2433 129.872C63.3752 129.154 63.2697 128.435 63.3752 127.717C63.507 126.896 63.3752 126.049 63.4015 125.228C63.5334 124.638 63.718 124.022 64.0609 123.509L64.1664 123.689C64.562 124.151 64.7993 124.741 65.1422 125.254C65.274 125.485 65.5641 125.485 65.7751 125.562C66.2499 126.998 66.1971 128.538 66.1707 130.052C66.1707 130.359 66.1971 130.924 66.6455 130.873C67.0674 130.975 67.0938 130.488 67.1202 130.205C67.1993 128.512 67.1465 126.793 67.1465 125.074C67.1202 124.382 67.4103 123.714 67.3575 123.022C67.3312 122.611 66.8828 122.355 66.4872 122.38C65.8806 122.432 65.3004 122.586 64.6938 122.611ZM88.4298 122.457C88.4298 124.176 88.3506 125.87 88.377 127.589C88.4034 128.461 88.3506 129.333 88.5353 130.18C88.6407 130.18 88.8254 130.205 88.9045 130.205C89.2473 128.846 89.01 127.46 89.221 126.1C89.3001 125.664 89.5638 125.331 89.8275 124.997C89.9594 125.177 90.0913 125.356 90.2231 125.536C90.2495 125.587 90.2759 125.664 90.3023 125.69C90.4605 124.741 91.3044 124.099 91.4099 123.124C92.0956 123.766 92.544 124.715 92.4649 125.664C92.3857 126.973 92.7022 128.256 92.9396 129.513C93.0187 129.692 92.9923 130.052 93.2824 130.052C93.6253 130.154 93.6517 129.718 93.678 129.487C93.7572 127.178 93.7308 124.895 93.7308 122.586C91.9638 122.56 90.1968 122.483 88.4298 122.457ZM67.674 123.073C67.3839 123.766 67.5949 124.561 67.7268 125.279C68.0696 127.075 67.7795 128.923 68.0169 130.719C68.6234 130.821 69.23 130.898 69.8366 130.847C69.9685 129.821 69.8894 128.769 69.8894 127.742C69.863 126.075 69.8894 124.382 69.7839 122.714C69.2564 122.663 68.7553 122.586 68.2279 122.56C67.9377 122.509 67.7795 122.842 67.674 123.073ZM71.9728 123.355C71.8937 125.331 71.8673 127.306 71.9465 129.256C71.9728 129.821 71.9992 130.385 72.1838 130.924C72.5003 130.642 72.6849 130.231 72.6849 129.821C72.764 128.102 72.764 126.383 72.6849 124.664C72.6586 123.971 72.6849 123.278 72.4739 122.611C71.9728 122.406 72.0256 123.047 71.9728 123.355ZM74.5047 123.484C74.3992 125.433 74.3464 127.409 74.3728 129.359C74.3992 129.769 74.3464 130.257 74.5574 130.616C76.0607 130.334 77.5903 130.693 79.0936 130.462C79.4101 130.513 79.3837 130.154 79.1991 130C78.5925 129.846 77.9332 129.949 77.3266 129.769C77.3002 129.59 77.2475 129.41 77.2475 129.231C77.4849 129.128 77.7222 129.025 77.9596 128.923C77.4057 128.743 76.8255 128.666 76.2453 128.82C76.1134 129.102 76.0607 129.41 75.9288 129.692C75.5069 129.821 74.9267 129.615 74.8212 129.179C74.6102 128.512 74.7948 127.794 74.8739 127.127C75.0321 126.203 74.953 125.279 74.953 124.356C74.953 123.74 74.9794 123.099 74.742 122.509C74.5047 122.765 74.5838 123.176 74.5047 123.484ZM76.7464 122.586C76.509 123.74 76.5354 124.946 76.509 126.126C76.5354 126.793 76.4299 127.512 76.8783 128.076C77.0629 127.742 77.1684 127.383 77.1948 126.998C77.3266 125.587 77.4321 124.151 77.353 122.74C77.142 122.688 76.9574 122.637 76.7464 122.586ZM79.6475 123.484C79.6738 124.382 79.7793 125.254 79.8584 126.152C79.9376 126.819 79.9112 127.486 80.1749 128.102C80.3332 127.691 80.4123 127.281 80.465 126.844C80.5442 125.767 80.6233 124.689 80.5969 123.612C80.5705 123.227 80.5705 122.816 80.3332 122.509C79.8057 122.509 79.6475 123.073 79.6475 123.484ZM82.232 122.457C81.9683 124.099 82.0738 125.767 82.0738 127.435C82.1002 128.204 82.0211 129 82.3375 129.718C82.4958 127.794 82.5221 125.87 82.4958 123.945C82.4694 123.432 82.4958 122.893 82.232 122.457ZM84.3683 123.484C84.2892 125.254 84.21 127.024 84.2628 128.769C84.2892 129.282 84.2892 129.846 84.6848 130.257C84.8166 129.872 84.8694 129.461 84.8957 129.051C84.9221 127.512 84.9485 125.998 84.9221 124.458C84.8957 123.766 85.0012 123.022 84.6584 122.355C84.4474 122.714 84.3683 123.099 84.3683 123.484ZM87.032 123.047C86.9529 125.151 87.0056 127.281 87.0583 129.384C87.0583 129.718 87.1902 130 87.3485 130.282C87.4539 129.949 87.5594 129.59 87.5594 129.231C87.6386 127.332 87.6649 125.408 87.6386 123.484C87.6386 123.15 87.5858 122.816 87.5331 122.483C87.1902 122.483 87.0056 122.74 87.032 123.047ZM125.537 126.229C124.535 127.075 123.77 128.127 123.031 129.179C122.557 130.026 122.056 130.821 121.528 131.642C121.133 132.361 120.552 133.028 120.421 133.849C121.106 133.772 121.502 133.182 121.924 132.745C123.19 131.386 124.086 129.718 125.431 128.41C126.012 127.742 126.856 127.306 127.251 126.485C126.803 126.075 126.038 125.767 125.537 126.229ZM29.38 127.127C29.9075 127.819 30.7778 128.102 31.358 128.769C32.4393 129.975 33.0459 131.488 33.9954 132.771C34.4701 133.387 34.8921 134.054 35.5514 134.49C35.5514 134.131 35.525 133.797 35.3931 133.464C34.9975 132.515 34.4965 131.591 34.0481 130.667C33.5206 129.641 33.0459 128.589 32.3602 127.64C31.9119 127.024 31.2789 126.46 30.4877 126.331C30.013 126.434 29.6174 126.768 29.38 127.127ZM127.568 128.41C126.117 129.179 125.352 130.693 124.561 132.053C124.429 132.412 123.981 132.925 124.377 133.259C124.667 133.105 124.878 132.848 125.089 132.591C126.091 131.386 127.33 130.385 128.359 129.205C128.517 128.974 128.807 128.717 128.675 128.41C128.332 128.256 127.937 128.281 127.568 128.41ZM28.0086 129.359C28.5625 130.257 29.38 130.975 30.1976 131.642C30.9097 132.284 31.2789 133.207 32.0965 133.746C32.0965 132.822 31.4899 132.104 31.0943 131.334C30.5405 130.462 30.013 129.384 28.9317 129.077C28.6152 128.974 28.0614 128.923 28.0086 129.359ZM74.6365 131.668C73.7135 131.873 73.6344 132.976 73.3443 133.72C75.3223 133.9 77.3002 133.823 79.2782 133.849C79.331 134.157 79.3837 134.49 79.4101 134.798C77.6695 134.798 75.9288 134.849 74.2146 134.747C73.0805 134.695 71.8674 134.593 70.8388 135.157C70.0476 135.593 69.23 136.029 68.4125 136.44C67.8059 136.748 67.1202 136.722 66.4608 136.748C63.9818 136.748 61.5027 136.748 59.0236 136.748C58.5489 136.748 58.0478 136.799 57.5731 136.876C58.0214 137.671 58.7862 138.313 58.9445 139.262C59.0763 139.75 58.9708 140.391 59.4456 140.699C60.0258 141.109 60.7642 141.161 61.3972 141.366C64.8784 142.469 68.5443 142.931 72.1838 143.213C74.1618 143.29 76.1134 143.239 78.0914 143.188C81.5727 143.008 85.054 142.931 88.5089 142.546C90.9616 142.161 93.4143 141.751 95.7352 140.878C96.2362 140.75 96.7373 140.186 97.2384 140.545C97.5549 140.673 97.9241 141.007 98.267 140.75C98.8999 140.314 98.7417 139.467 99.0054 138.852C99.4538 137.979 100.245 137.287 100.509 136.337C97.1593 136.389 93.7835 136.594 90.4341 136.568C89.6166 136.543 88.7462 136.466 88.0078 136.029C87.1638 135.516 86.3199 134.978 85.5023 134.439C84.6584 134.49 83.8408 134.593 83.0232 134.593C82.7595 134.593 82.4166 134.541 82.3639 134.234C82.232 133.464 82.3112 132.668 82.2848 131.899C80.887 131.899 79.5156 131.924 78.1178 131.899C76.931 131.847 75.7706 131.36 74.6365 131.668ZM128.913 132.207C128.174 132.489 127.858 133.592 128.385 134.208C128.596 134.516 128.886 134.824 129.308 134.875C130.152 134.747 130.627 133.772 130.337 133.028C130.205 132.438 129.546 131.976 128.913 132.207ZM27.6394 132.925C26.8482 133.464 26.7955 134.67 27.3229 135.388C27.5603 135.747 28.035 135.593 28.3779 135.542C29.0899 135.465 29.2482 134.618 29.2482 134.028C29.2218 133.259 28.3779 132.643 27.6394 132.925ZM111.506 134.567C110.715 134.772 109.871 135.003 109.238 135.542C108.79 135.927 108.79 136.543 108.632 137.056C108.104 137.056 107.629 136.773 107.128 136.671C106.654 136.568 106.205 136.876 105.915 137.261C105.282 138.133 104.913 139.185 104.781 140.237C104.649 141.007 104.676 141.828 104.306 142.572C103.594 142.187 102.724 141.879 101.906 142.136C101.221 142.418 100.588 142.905 100.324 143.624C99.9812 144.522 99.7175 145.522 99.0318 146.215C97.845 146.933 96.9483 148.037 96.2099 149.165C95.656 150.166 95.1022 151.398 95.5769 152.526C96.5527 152.039 97.7659 151.936 98.5835 151.167C99.6648 150.012 100.614 148.755 101.511 147.446C101.827 147.01 102.117 146.523 102.619 146.318C102.566 147.523 101.696 148.447 101.168 149.473C101.063 149.73 100.878 150.192 101.3 150.269C102.276 150.012 103.067 149.319 103.884 148.755C105.282 147.78 106.364 146.497 107.418 145.189C108.553 143.701 109.581 142.11 110.267 140.365C110.583 139.75 110.689 139.006 111.19 138.492C111.295 139.467 111.216 140.468 110.847 141.392C110.346 142.751 109.66 144.06 108.711 145.189C108.051 146.01 107.234 146.677 106.522 147.446C106.258 147.703 106.1 148.011 105.968 148.344C106.944 147.934 107.893 147.19 109.027 147.37C109.739 147.344 109.924 148.165 110.531 148.37C111.19 148.344 111.744 147.934 112.324 147.677C113.352 147.139 114.566 146.677 115.067 145.548C115.41 144.778 115.067 144.009 114.935 143.239C115.7 142.187 116.886 141.366 117.203 140.032C117.335 139.467 117.045 138.929 116.676 138.518C116.069 138.544 115.489 138.595 114.909 138.672C115.093 137.8 115.225 136.876 115.067 135.978C114.882 135.362 114.276 135.003 113.774 134.644C113.115 134.182 112.245 134.387 111.506 134.567ZM43.1205 136.106C42.7777 137.056 43.1733 138.082 43.3051 139.031C42.7513 139.031 42.1974 138.98 41.6436 139.031C41.3535 139.057 41.0898 139.288 41.0898 139.596C40.9843 140.622 41.4326 141.623 42.1183 142.367C42.5139 142.828 43.0414 143.136 43.437 143.572C43.3315 144.085 42.8304 144.47 42.804 145.035C42.7513 145.856 43.3842 146.497 43.9908 146.985C45.0721 147.934 46.4963 148.37 47.8677 148.755C48.2633 148.396 48.5534 147.908 49.0281 147.677C50.0303 147.318 50.9534 148.011 51.9292 148.216C51.7709 147.883 51.5863 147.549 51.3226 147.267C50.4259 146.241 49.4501 145.291 48.6589 144.162C47.9204 143.111 47.3402 141.905 47.0765 140.648C46.971 139.981 46.8391 139.211 47.3139 138.646C47.604 139.031 47.6567 139.519 47.7622 139.955C48.316 141.546 49.0281 143.059 50.0567 144.419C51.7446 146.651 53.7226 148.781 56.2808 150.038C56.5972 150.217 56.9665 150.243 57.3093 150.217C56.8873 148.986 55.8852 148.011 55.7533 146.677C55.8324 146.549 55.8852 146.446 55.9643 146.318C56.8346 147.472 57.6522 148.678 58.5489 149.833C59.1027 150.551 59.6829 151.321 60.5532 151.654C61.1598 151.885 61.8191 152.116 62.4785 152.193C62.795 152.27 62.795 151.911 62.795 151.68C62.7158 150.525 62.0565 149.525 61.4763 148.55C61.0807 147.96 60.7642 147.318 60.2895 146.779C59.8939 146.292 59.1554 146.292 58.7862 145.779C58.1269 144.778 58.0478 143.495 57.2829 142.572C56.861 142.161 56.2016 142.084 55.6214 142.059C54.9094 142.007 54.3555 142.495 53.8017 142.828C53.5116 142.033 53.6434 141.161 53.4852 140.314C53.3006 139.134 52.8522 138.005 52.2193 137.004C52.0083 136.62 51.5072 136.773 51.138 136.748C50.5841 136.671 50.3204 137.287 49.8193 137.312C49.6083 136.773 49.4501 136.183 48.949 135.799C47.9996 135.029 46.76 134.387 45.4941 134.67C44.571 134.824 43.5952 135.285 43.1205 136.106ZM124.377 135.208C123.664 135.722 123.533 136.696 122.82 137.21C122.636 136.696 122.504 136.132 122.029 135.824C121.581 135.465 121.001 135.799 120.579 136.029C120.157 136.337 119.55 136.697 119.682 137.312C119.84 138.569 119.919 139.852 119.84 141.109C119.788 141.52 119.735 142.033 119.286 142.213C118.917 142.469 118.258 142.546 118.205 143.059C118.232 143.726 118.416 144.393 118.812 144.958C120.447 143.88 121.739 142.392 123.031 140.955C123.77 140.16 124.245 139.159 125.089 138.441C125.036 139.211 124.587 139.852 124.218 140.494C123.664 141.443 123.163 142.443 122.478 143.316C122.003 143.932 121.396 144.445 121.08 145.163C121.818 145.343 122.636 145.24 123.348 145.522C124.086 145.804 124.851 146.189 125.247 146.882C125.405 147.421 125.431 148.011 125.722 148.498C126.645 148.267 127.594 147.96 128.306 147.293C128.702 146.933 128.596 146.318 128.491 145.856C128.412 145.445 128.042 145.163 127.937 144.778C128.28 144.368 128.834 144.162 129.071 143.649C129.361 142.957 129.467 142.161 129.387 141.417C129.176 140.725 128.438 140.442 127.937 140.006C128.306 139.083 128.596 138.056 128.359 137.081C128.122 136.158 127.357 135.491 126.513 135.106C125.827 134.747 124.983 134.721 124.377 135.208ZM31.5427 135.85C30.5405 136.286 29.8548 137.261 29.5647 138.287C29.4592 139.134 29.9603 139.904 30.2767 140.673C30.3559 140.93 30.0394 141.007 29.8811 141.135C29.1954 141.443 28.8526 142.161 28.6943 142.854C28.5097 143.957 29.2482 145.06 30.2767 145.497C30.0921 146.292 29.3273 147.087 29.802 147.908C30.3822 148.729 31.4635 149.063 32.4393 149.088C33.3624 148.267 33.8108 147.01 34.8921 146.343C35.5514 145.856 36.369 145.881 37.1338 145.702C36.9755 145.42 36.7909 145.137 36.6063 144.881C35.4723 143.47 34.5228 141.905 33.6261 140.314C33.4415 139.955 33.2305 139.621 33.1778 139.211C33.2569 139.185 33.3888 139.108 33.4415 139.057C33.9426 139.57 34.2063 140.237 34.6811 140.776C35.4195 141.699 36.2371 142.572 37.0547 143.444C37.8986 144.214 38.6371 145.137 39.6656 145.702C39.7711 144.958 39.9293 144.214 40.114 143.47C39.481 143.059 38.7689 142.597 38.5316 141.828C37.9514 140.494 38.5316 139.083 38.5843 137.723C38.6107 137.235 38.2151 136.876 37.8722 136.594C37.4766 136.286 36.9228 135.901 36.4217 136.26C35.7887 136.543 35.736 137.287 35.2613 137.723C34.9448 137.235 34.8129 136.594 34.3382 136.209C33.5734 135.542 32.4393 135.439 31.5427 135.85ZM134.003 139.236C132.368 139.75 131.445 141.417 131.207 143.008C131.075 143.624 131.418 144.291 131.998 144.573C132.315 144.522 132.526 144.239 132.737 144.034C133.343 143.367 134.003 142.726 134.583 142.033C135.348 141.084 136.271 140.211 136.798 139.083C135.875 138.929 134.926 139.083 134.003 139.236ZM20.967 140.75C21.8109 142.469 23.2351 143.803 24.4482 145.266C24.7911 145.676 25.1339 146.061 25.5559 146.395C26.0043 145.907 26.6109 145.317 26.479 144.599C26.2416 143.341 25.6878 142.059 24.5801 141.315C23.5252 140.622 22.1801 140.545 20.967 140.75ZM116.465 146.087C116.438 146.882 116.702 147.908 116.016 148.524C115.225 149.114 114.17 149.088 113.247 148.935C112.772 148.832 112.957 149.345 113.141 149.55C113.616 150.14 114.407 150.525 115.199 150.448C116.676 150.448 118.205 150.038 119.656 150.525C119.682 150.602 119.735 150.705 119.761 150.782C118.363 151.115 116.913 151.064 115.489 151.192C113.695 151.244 111.928 151.551 110.161 151.782C109.687 151.834 109.238 151.988 108.843 152.244C109.212 152.757 109.818 153.117 109.977 153.732C110.135 154.271 110.346 154.989 111.032 155.041C112.166 155.143 113.511 155.143 114.328 156.067C114.961 156.708 114.909 157.658 115.04 158.504C115.014 158.838 115.436 158.812 115.673 158.838C117.071 158.812 118.495 158.633 119.84 158.248C120.421 158.094 120.895 157.709 121.475 157.529C122.24 157.273 122.741 156.529 122.926 155.785C123.111 154.989 122.9 154.194 122.794 153.424C124.271 153.091 125.3 151.449 124.957 149.986C124.64 148.755 123.48 147.831 122.24 147.703C121.528 147.575 120.842 147.908 120.13 147.883C119.603 147.549 119.577 146.754 118.996 146.472C118.179 146.112 117.282 146.189 116.465 146.087ZM39.5601 146.856C38.9535 147.19 38.848 147.985 38.347 148.421C37.7404 148.447 37.1602 148.267 36.5536 148.293C35.7096 148.267 34.8657 148.678 34.3118 149.319C33.5998 150.192 33.4943 151.423 33.7053 152.475C34.1009 153.373 34.9975 153.963 35.9206 154.297C35.7096 155.22 35.4459 156.272 35.8942 157.17C36.1843 157.837 36.9228 158.017 37.4766 158.376C38.7425 159.094 40.2195 159.171 41.6172 159.377C42.1711 159.454 42.6985 159.377 43.2524 159.274C43.6743 158.248 43.5161 156.965 44.4392 156.144C45.3359 155.4 46.6282 155.528 47.7358 155.4C48.1314 155.297 48.1314 154.861 48.2369 154.553C48.4479 153.758 49.0017 153.142 49.4765 152.501C48.8435 152.193 48.1578 152.065 47.4721 151.962C45.3359 151.68 43.1996 151.551 41.037 151.526C40.2722 151.5 39.481 151.577 38.7425 151.321C39.6392 150.628 40.8524 150.833 41.9073 150.807C42.8568 150.756 43.9645 151.09 44.7556 150.423C45.1512 150.063 45.5996 149.576 45.4414 149.011C45.0194 149.14 44.6238 149.371 44.1491 149.345C43.2524 149.345 42.1974 149.037 41.8282 148.165C41.5645 147.549 42.0656 146.908 41.8282 146.292C41.1953 146.856 40.2986 146.574 39.5601 146.856ZM89.9067 148.37C87.243 149.063 84.5265 149.473 81.8101 149.858C79.9903 150.217 78.1442 150.14 76.2981 150.166C74.6102 150.089 72.8959 150.063 71.208 149.833C69.23 149.679 67.2784 149.14 65.4059 148.447C64.3246 148.088 63.4807 147.241 62.373 146.959C62.795 148.755 63.8763 150.294 64.2719 152.09C64.4301 152.706 64.6411 153.322 64.6938 153.963C64.8257 156.016 64.9312 158.068 64.8784 160.121C64.8257 161.275 64.5092 162.404 64.2455 163.507C63.9554 164.79 63.3488 165.945 62.8741 167.15C62.6103 167.843 62.1884 168.485 62.0829 169.229C62.2675 169.639 62.7686 169.793 63.1378 170.024C64.9576 171.076 66.9883 171.717 69.0191 172.23C71.3399 172.769 73.6607 173.257 76.008 173.641C77.142 173.77 78.2761 173.693 79.4101 173.667C80.7551 173.616 82.1265 173.667 83.4188 173.334C84.3683 173.103 85.3705 173 86.3199 172.82C88.0605 172.564 89.7221 171.948 91.4363 171.512C92.4912 171.255 93.4407 170.691 94.3901 170.178C95.1286 169.742 95.8934 169.306 96.5263 168.715C96.078 167.895 95.5242 167.15 95.1813 166.278C94.4956 164.79 94.2319 163.174 93.9154 161.609C93.7572 160.48 93.467 159.377 93.4934 158.222C93.5462 156.375 93.7572 154.528 93.9418 152.655C94.1791 150.423 94.9967 148.344 95.7352 146.241C93.8626 147.062 91.9638 147.934 89.9067 148.37ZM109.607 149.704C108.553 150.038 107.471 150.346 106.469 150.833C106.654 151.013 106.812 151.321 107.128 151.244C108.764 151.038 110.372 150.807 112.007 150.551C112.377 150.525 112.561 150.089 112.298 149.833C111.48 149.319 110.478 149.473 109.607 149.704ZM46.1534 150.089C46.0216 150.269 45.9161 150.474 45.8106 150.679C46.4699 151.064 47.2611 151.013 47.9996 151.09C49.2655 151.192 50.5578 151.372 51.8237 151.218C51.6127 150.987 51.349 150.782 51.0589 150.705C49.9248 150.32 48.7116 150.089 47.5248 149.935C47.0765 149.884 46.549 149.807 46.1534 150.089ZM101.59 153.963C101.063 154.348 100.878 154.989 100.561 155.528C100.324 155.015 100.192 154.297 99.5593 154.091C98.9527 153.835 98.3197 154.194 97.845 154.528C96.8956 155.246 96.1044 156.144 95.1286 156.837C94.6802 157.196 94.1 157.606 94.2055 158.248C94.2846 158.658 94.4165 159.12 94.8121 159.351C95.3923 159.428 95.9725 159.223 96.5263 159.197C98.0033 159.069 99.5065 159.146 100.983 159.325C102.17 159.454 103.331 159.813 104.491 160.069C105.572 160.3 106.654 160.685 107.577 161.301C107.788 161.403 107.814 161.634 107.893 161.84C106.944 161.609 106.1 161.07 105.15 160.813C104.755 160.942 104.808 161.455 104.728 161.788C104.649 162.994 104.676 164.405 105.572 165.355C106.522 166.355 107.946 166.92 109.344 166.791C110.003 166.766 110.557 166.304 110.847 165.739C111.005 165.047 110.715 164.303 110.873 163.61C111.243 163.174 111.823 162.969 112.087 162.455C112.509 161.788 112.298 160.865 111.744 160.326C111.243 159.787 110.267 159.992 109.871 159.3C109.792 158.556 110.109 157.786 109.792 157.093C109.528 156.554 108.895 156.401 108.342 156.298C107.524 156.195 106.706 156.17 105.915 155.964C106.073 155.349 106.601 154.758 106.39 154.091C106.126 153.45 105.361 153.219 104.728 153.168C103.647 153.091 102.487 153.322 101.59 153.963ZM51.7973 154.579C51.8764 155.169 52.3248 155.631 52.5358 156.195C51.5336 156.426 50.4786 156.247 49.5292 156.657C49.0545 156.837 48.6061 157.17 48.4479 157.683C48.3688 158.427 48.6061 159.146 48.5798 159.89C48.1578 160.069 47.6567 160.044 47.2875 160.326C46.8919 160.608 46.4435 160.916 46.2853 161.378C46.1534 161.942 46.2326 162.584 46.549 163.071C46.8391 163.482 47.3402 163.661 47.6831 164.02C47.6831 164.739 47.4193 165.483 47.7358 166.15C48.0523 166.92 49.0017 167.227 49.7929 167.099C50.6896 166.945 51.6654 166.714 52.3248 166.022C52.7204 165.611 53.116 165.201 53.327 164.662C53.5116 164.02 53.5379 163.328 53.5643 162.635C53.5643 162.096 53.6171 161.506 53.3797 160.993C52.3511 160.89 51.6127 161.917 50.6105 161.968C51.2171 161.07 52.2457 160.634 53.2478 160.3C54.5138 159.915 55.806 159.582 57.0983 159.3C58.8653 159.069 60.6851 158.94 62.4521 159.248C62.9005 159.274 63.4807 159.351 63.8235 158.966C64.0081 158.479 64.14 157.889 63.9026 157.401C63.3488 156.529 62.2939 156.247 61.4763 155.682C61.1598 155.272 60.8961 154.784 60.4214 154.528C59.8148 154.194 59.05 153.912 58.3643 154.22C58.0478 154.605 58.1269 155.195 57.8632 155.631C57.3093 155.143 57.2829 154.271 56.5709 153.912C55.6478 153.45 54.5665 153.168 53.5116 153.193C52.8259 153.424 51.9028 153.784 51.7973 154.579ZM95.9725 160.608C95.9725 160.942 96.2362 161.198 96.4472 161.429C97.2912 162.353 98.1879 163.251 99.1373 164.072C99.401 164.277 99.6648 164.559 100.008 164.636C100.377 164.611 100.35 164.097 100.298 163.815C99.8494 162.738 98.8208 162.122 97.845 161.557C97.2121 161.25 96.6846 160.711 95.9725 160.608ZM60.7378 160.813C60.1049 161.044 59.6038 161.532 59.0763 161.942C58.3115 162.558 57.5203 163.199 57.0456 164.072C56.8873 164.328 56.9665 164.739 57.3093 164.816C57.6522 164.995 57.8104 164.611 58.0214 164.405C58.9972 163.199 60.2631 162.25 61.1598 160.993C61.3444 160.788 60.8433 160.762 60.7378 160.813ZM121.924 33.7636C121.027 34.2511 121.475 35.8674 122.478 35.9444C123.269 35.7648 123.269 34.7642 123.084 34.1485C122.952 33.661 122.319 33.584 121.924 33.7636ZM34.7074 34.8155C34.3118 34.8925 33.758 34.9951 33.7053 35.4569C33.758 35.9187 33.969 36.3806 34.3646 36.6628C34.8129 36.8937 35.2085 36.4319 35.3668 36.047C35.4986 35.6622 35.7096 35.1747 35.4195 34.8412C35.1822 34.7642 34.9184 34.7899 34.7074 34.8155ZM106.073 41.6401C106.205 42.3328 107.419 42.3328 107.524 41.6401C107.788 40.973 107.498 40.2803 106.944 39.8698C106.205 40.1007 105.651 40.8961 106.073 41.6401ZM49.8721 40.5625C49.3446 40.9217 49.3973 41.7171 49.6083 42.2558C49.7666 42.7946 50.5841 42.8716 50.927 42.4354C51.2435 41.9736 51.3226 41.3322 51.0852 40.8447C50.8479 40.4086 50.2677 40.3316 49.8721 40.5625ZM136.508 46.4891C135.796 46.9766 135.664 48.2081 136.376 48.7469C136.666 48.9265 137.036 48.9521 137.326 48.8495C137.8 48.6442 137.906 48.0798 137.959 47.6437C138.17 46.874 137.168 46.1556 136.508 46.4891ZM19.9384 47.8489C19.411 48.0798 18.9362 48.5673 18.7252 49.1061C18.6461 49.5935 18.9099 50.081 19.2527 50.3889C20.3076 50.6711 20.9933 49.3883 20.7032 48.516C20.5977 48.2338 20.3604 47.695 19.9384 47.8489ZM122.214 51.6973C121.739 51.9026 121.686 52.5183 121.766 52.9545C121.818 53.3907 122.082 53.9294 122.609 53.9038C123.242 53.7755 123.533 53.0571 123.533 52.4927C123.533 51.8513 122.794 51.4408 122.214 51.6973ZM34.0745 52.5183C33.2569 52.9545 33.3097 54.2117 34.0481 54.7248C34.4701 54.8787 35.103 54.7248 35.2349 54.2373C35.3931 53.7242 35.3668 53.1341 35.0239 52.6979C34.8129 52.3901 34.3646 52.3901 34.0745 52.5183ZM146.477 64.2689C146.029 64.6538 145.765 65.2438 145.792 65.8083C146.003 66.2957 146.398 66.8858 147.005 66.9372C147.901 66.7576 148.35 65.68 147.954 64.8847C147.77 64.3459 147.058 63.8841 146.477 64.2689ZM9.2045 65.7826C8.88802 65.9366 8.65066 66.2444 8.62429 66.6036C8.59792 67.1168 8.62429 67.7068 8.88802 68.1687C9.04626 68.4509 9.38911 68.6561 9.70559 68.5278C10.6287 68.22 10.9979 66.8858 10.2858 66.1931C10.0221 65.9109 9.62647 65.5517 9.2045 65.7826ZM133.976 65.757C133.396 66.0648 133.001 66.7832 133.238 67.4246C133.37 67.9121 133.818 68.4765 134.372 68.2456C135.137 67.9378 135.269 66.9372 134.979 66.2701C134.847 65.8596 134.372 65.5517 133.976 65.757ZM22.1538 67.0654C21.0988 67.4759 21.3889 69.3232 22.5494 69.3745C23.4461 69.2462 23.6834 68.0404 23.2351 67.3733C23.0505 66.9628 22.5494 66.8089 22.1538 67.0654ZM136.825 83.9473C136.508 84.1012 136.297 84.4347 136.297 84.7682C136.244 85.2814 136.271 85.8458 136.561 86.3076C136.93 86.7694 137.8 86.6925 138.064 86.1537C138.328 85.5892 138.354 84.8965 138.143 84.3064C137.906 83.8446 137.247 83.7163 136.825 83.9473ZM151.937 85.2044C150.723 85.8202 151.093 88.0009 152.517 88.0266C153.044 87.6674 153.282 87.026 153.413 86.4359V85.9741C153.15 85.461 152.57 84.8709 151.937 85.2044ZM19.2 85.4097C18.567 85.6406 18.4351 86.3846 18.4351 86.949C18.4351 87.3852 18.4879 88.0009 18.989 88.1549C19.3582 88.2575 19.8857 88.3088 20.1494 87.9496C20.5186 87.4878 20.7296 86.8207 20.3868 86.282C20.2022 85.8458 19.7802 85.2814 19.2 85.4097ZM3.21777 88.4114V88.7963C3.32327 89.3864 3.71887 90.0534 4.3782 90.1304C5.4595 89.6429 5.82873 87.7444 4.58918 87.2056C3.79799 86.8464 3.29689 87.7957 3.21777 88.4114ZM32.1492 92.696C32.9404 92.9013 33.7053 93.1322 34.4965 93.2605C33.9954 92.9526 33.3624 92.85 32.9141 92.4395C32.5712 91.9007 33.0196 91.2849 33.1514 90.7462C32.7031 91.3106 32.3075 91.952 32.1492 92.696ZM123.19 94.1328C123.664 93.6966 123.796 92.9782 124.324 92.5934C124.904 92.4138 125.537 92.5164 126.144 92.4395C125.458 92.2086 124.719 92.1829 124.034 91.9777C123.796 92.7217 123.453 93.4144 123.19 94.1328ZM137.695 100.367C137.247 100.496 137.036 100.932 136.957 101.342C136.851 101.881 136.877 102.497 137.194 102.959C137.51 103.42 138.328 103.318 138.539 102.779C138.776 102.24 138.829 101.624 138.671 101.034C138.592 100.649 138.143 100.239 137.695 100.367ZM18.5934 102.24C18.0395 102.651 17.7494 103.42 17.9868 104.062C18.1714 104.626 18.8835 105.139 19.4637 104.754C20.2022 104.19 20.0967 102.933 19.3846 102.394C19.2 102.215 18.8307 101.958 18.5934 102.24ZM151.093 108.808C150.75 109.219 150.381 109.629 150.301 110.168C150.143 110.912 150.592 111.81 151.356 112.041C152.068 111.656 152.596 110.835 152.385 110.014C152.306 109.321 151.567 109.116 151.093 108.808ZM4.87929 111.22C4.21996 111.63 4.08809 112.58 4.29908 113.272C4.45732 113.888 5.22214 114.401 5.80235 114.016C6.46168 113.452 6.67267 112.349 6.11883 111.63C5.88147 111.271 5.35401 111.04 4.87929 111.22ZM139.937 134.824C139.383 135.337 139.04 136.235 139.488 136.927C139.752 137.441 140.464 137.569 140.965 137.338C141.335 136.927 141.493 136.363 141.546 135.824C141.335 135.208 140.596 134.516 139.937 134.824ZM16.4835 136.286C15.6923 136.594 15.2704 137.594 15.6659 138.339C15.9561 138.903 16.7736 139.057 17.2747 138.672C17.5121 138.364 17.5912 137.954 17.6439 137.594C17.6703 137.261 17.7494 136.85 17.4066 136.62C17.1692 136.414 16.8264 136.183 16.4835 136.286ZM69.9949 137.979C69.7575 138.031 69.7575 138.313 69.652 138.467C70.285 138.544 70.9179 138.569 71.5245 138.569C75.6915 138.569 79.8585 138.544 84.0254 138.441C84.7375 138.364 85.4496 138.441 86.1617 138.287L86.3199 138.133C85.7397 137.774 85.0012 137.902 84.3683 137.851C80.2013 137.8 76.0343 137.851 71.8674 137.825C71.2344 137.851 70.6014 137.825 69.9949 137.979ZM67.9114 139.493C67.9377 139.596 67.9641 139.801 67.9905 139.878C71.3926 140.109 74.8212 140.032 78.2497 140.032C81.4672 139.955 84.7111 140.006 87.9287 139.775C87.955 139.698 88.0342 139.544 88.0869 139.467C85.0012 139.313 81.9419 139.365 78.8563 139.339C75.1904 139.365 71.5509 139.339 67.9114 139.493ZM113.405 152.475C113.537 153.168 114.328 153.168 114.856 153.45C115.911 153.937 116.755 154.784 117.836 155.22C118.1 155.323 118.126 154.938 118.126 154.759C117.73 153.963 116.807 153.63 116.043 153.296C115.172 152.963 114.328 152.552 113.405 152.475ZM42.1711 153.938C41.6172 154.22 41.037 154.476 40.5359 154.835C40.2195 155.066 40.3249 155.477 40.3249 155.785C41.5381 155.195 42.6985 154.528 43.8326 153.809C44.2018 153.578 44.6238 153.373 44.782 152.937C43.859 153.116 43.015 153.553 42.1711 153.938ZM72.7113 155.426C72.4476 156.118 72.2893 156.837 72.2366 157.581C73.397 157.221 74.6629 157.35 75.8233 157.606C75.3486 158.248 75.0058 158.966 74.742 159.71C73.9245 161.942 73.3706 164.277 72.9487 166.637C73.2388 166.766 73.5289 166.92 73.819 167.048C73.9772 166.997 74.1618 166.971 74.3201 166.92C74.3464 164.97 74.742 163.02 75.4014 161.173C76.1398 159.146 77.0365 157.145 77.9332 155.169C76.1926 155.22 74.4519 155.169 72.7113 155.426ZM79.9112 155.4C79.12 156.58 78.698 157.991 78.7508 159.402C79.6738 159.89 80.676 160.377 81.3881 161.147C81.8101 161.583 81.9683 162.276 81.7046 162.84C81.1771 163.918 80.2541 164.739 79.4365 165.585C79.4365 165.816 79.4365 166.047 79.4365 166.278C79.753 166.252 80.1222 166.278 80.4123 166.099C81.5727 165.406 82.6804 164.508 83.3397 163.302C83.7881 162.507 83.9463 161.48 83.5507 160.634C82.9177 159.223 81.3617 158.633 79.9639 158.299C79.7793 157.889 79.8585 157.196 80.3595 157.042C81.3617 156.683 82.4694 157.042 83.4452 156.606C83.4716 156.118 83.5507 155.656 83.6826 155.195C82.443 155.22 81.1771 155.195 79.9112 155.4ZM86.6364 155.349C86.2144 156.503 85.9243 157.683 85.7133 158.889C86.2672 159.377 86.9265 159.736 87.6122 160.018C88.2451 160.275 88.7726 160.762 89.01 161.403C89.221 161.968 88.9308 162.558 88.588 163.02C87.8759 163.943 86.9792 164.713 86.1617 165.534C86.2144 165.714 86.2672 165.893 86.3199 166.047L86.2672 166.201C87.9023 165.714 89.4319 164.687 90.1968 163.148C90.7242 162.122 90.6979 160.813 89.9858 159.864C89.2473 158.812 88.0342 158.299 86.821 157.966C86.8474 157.504 86.9265 157.068 87.0583 156.606C88.0342 156.657 89.01 156.837 89.9858 157.068C90.2231 156.401 90.4341 155.759 90.6715 155.118C89.3264 155.092 87.9814 155.169 86.6364 155.349ZM66.8037 156.247C67.0938 156.477 67.4103 156.708 67.7268 156.914C67.8322 158.992 67.9114 161.07 67.7531 163.174C67.6476 163.969 67.6476 164.867 67.041 165.483C68.096 165.97 69.2828 165.739 70.3905 165.739C70.3905 165.508 70.3905 165.252 70.3905 165.021C70.1531 164.944 69.9421 164.867 69.7048 164.79C69.7311 162.661 69.863 160.531 69.7839 158.402C69.7311 157.375 69.7048 156.298 69.2828 155.323C68.4652 155.58 67.5685 155.785 66.8037 156.247Z" fill="url(#paint0_linear_131_1533)"/>
<defs>
<linearGradient id="paint0_linear_131_1533" x1="158.659" y1="174.899" x2="-2.85632" y2="174.899" gradientUnits="userSpaceOnUse">
<stop stop-color="#4F55F5"/>
<stop offset="0.717342" stop-color="#66C7E5" stop-opacity="0.459065"/>
</linearGradient>
</defs>
</svg>
