<svg width="60" height="60" viewBox="0 0 60 60" fill="none" xmlns="http://www.w3.org/2000/svg">
<path d="M29.9826 0.833252C24.214 0.833252 18.5749 2.54385 13.7785 5.74872C8.98203 8.9536 5.24367 13.5088 3.03611 18.8383C0.828555 24.1678 0.250958 30.0323 1.37636 35.6901C2.50176 41.3478 5.27962 46.5448 9.35865 50.6239C13.4377 54.7029 18.6347 57.4808 24.2925 58.6062C29.9502 59.7316 35.8147 59.154 41.1442 56.9464C46.4737 54.7389 51.0289 51.0005 54.2338 46.2041C57.4387 41.4076 59.1493 35.7685 59.1493 29.9999C59.1493 26.1697 58.3948 22.377 56.9291 18.8383C55.4633 15.2997 53.3149 12.0843 50.6065 9.37597C47.8982 6.6676 44.6829 4.51919 41.1442 3.05343C37.6055 1.58767 33.8128 0.833252 29.9826 0.833252ZM39.2576 45.0266C39.1488 45.2991 38.9829 45.5451 38.771 45.7482C38.5592 45.9512 38.3064 46.1066 38.0296 46.2038C37.7527 46.3011 37.4583 46.338 37.166 46.312C36.8738 46.286 36.5904 46.1978 36.3351 46.0533L28.4163 39.8991L23.3355 44.5891C23.2176 44.6762 23.0797 44.7322 22.9344 44.7521C22.7892 44.772 22.6413 44.755 22.5043 44.7028L23.4784 35.9849L23.5076 36.0112L23.528 35.8391C23.528 35.8391 37.7759 22.8658 38.3563 22.3145C38.9455 21.7633 38.7501 21.6437 38.7501 21.6437C38.7851 20.9728 37.6972 21.6437 37.6972 21.6437L18.8176 33.7887L10.9572 31.1112C10.9572 31.1112 9.74968 30.6795 9.63593 29.7258C9.51635 28.7808 10.9951 28.2674 10.9951 28.2674L42.253 15.8483C42.253 15.8483 44.8226 14.7049 44.8226 16.6008L39.2576 45.0266Z" fill="url(#paint0_linear_131_476)"/>
<defs>
<linearGradient id="paint0_linear_131_476" x1="61.1866" y1="59.1666" x2="-1.54315" y2="59.1666" gradientUnits="userSpaceOnUse">
<stop stop-color="#0711FC"/>
<stop offset="0.717342" stop-color="#ECECEC" stop-opacity="0.459065"/>
</linearGradient>
</defs>
</svg>
